# Blender v3.0.0 OBJ File: 'Sphere_Cell_Fracture.blend'
# www.blender.org
mtllib Sphere_Cell_Fracture13.mtl
v 0.242337 0.131525 -0.239547
v -0.444371 0.082378 -0.307635
v -0.179799 -0.423653 -0.347342
v -0.465268 0.026525 -0.316368
v 0.206405 -0.395551 -0.308863
v -0.088470 -0.486220 -0.346889
v -0.527825 0.231452 -0.055240
v -0.531212 0.277671 0.022074
v 0.291044 0.198572 -0.127161
v -0.522286 0.281734 0.030250
v -0.315030 -0.053371 0.211995
v -0.235092 -0.403660 -0.159102
v 0.149009 -0.085743 0.111158
v -0.141313 -0.510898 -0.281079
v 0.316056 -0.228990 -0.058876
v 0.246142 -0.393050 -0.216912
v -0.523255 0.270392 0.037912
v -0.488017 0.044830 -0.263116
v -0.529303 0.277616 0.028685
v 0.293686 0.190007 -0.121947
v 0.296509 0.066349 -0.035154
v -0.525923 0.279077 0.032826
v -0.139682 -0.508684 -0.293641
v 0.318412 -0.060791 -0.058343
vt 0.000000 0.000000
vt 1.000000 0.000000
vt 1.000000 1.000000
vt 0.000000 0.000000
vt 1.000000 0.000000
vt 0.000000 0.000000
vt 1.000000 0.000000
vt 0.000000 0.000000
vt 1.000000 0.000000
vt 0.000000 0.000000
vt 1.000000 0.000000
vt 0.000000 0.000000
vt 1.000000 0.000000
vt 0.000000 0.000000
vt 1.000000 0.000000
vt 0.000000 0.000000
vt 1.000000 0.000000
vt 0.000000 0.000000
vt 1.000000 0.000000
vt 1.000000 1.000000
vt 0.000000 0.000000
vt 1.000000 1.000000
vt 1.000000 1.000000
vt 0.000000 0.000000
vt 0.000000 0.000000
vt 1.000000 0.000000
vt 1.000000 1.000000
vt 1.000000 1.000000
vt 0.000000 0.000000
vt 1.000000 0.000000
vt 1.000000 1.000000
vt 0.000000 0.000000
vt 1.000000 1.000000
vt 1.000000 0.000000
vt 1.000000 1.000000
vt 0.000000 0.000000
vt 0.000000 0.000000
vt 1.000000 0.000000
vt 0.000000 0.000000
vt 1.000000 0.000000
vt 0.000000 0.000000
vt 1.000000 0.000000
vt 1.000000 0.000000
vt 0.000000 0.000000
vt 1.000000 0.000000
vt 0.000000 0.000000
vt 1.000000 1.000000
vt 1.000000 1.000000
vt 1.000000 0.000000
vt 0.000000 0.000000
vt 1.000000 0.000000
vt 1.000000 0.000000
vt 1.000000 0.000000
vt 1.000000 1.000000
vt 1.000000 1.000000
vt 1.000000 0.000000
vt 1.000000 1.000000
vt 0.000000 0.000000
vt 1.000000 1.000000
vt 1.000000 1.000000
vt 1.000000 1.000000
vn 0.2807 -0.9508 -0.1311
vn 0.3050 -0.9460 -0.1098
vn 0.3054 -0.9463 -0.1063
vn 0.1016 -0.7123 0.6945
vn 0.1006 -0.7114 0.6956
vn 0.0837 -0.7156 0.6935
vn -0.8355 -0.5160 -0.1887
vn -0.8344 -0.5157 -0.1944
vn -0.8317 -0.5183 -0.1993
vn -0.4200 -0.6179 -0.6646
vn 0.9180 -0.0103 -0.3964
vn 0.0892 0.1240 -0.9883
vn 0.2121 0.5640 0.7980
vn 0.9189 -0.0116 -0.3944
vn 0.7082 -0.0122 0.7060
vn 0.1022 -0.7091 0.6977
vn 0.1753 0.5509 0.8159
vn 0.1198 0.5288 0.8402
vn -0.8701 -0.4311 0.2390
vn 0.2129 0.5623 0.7991
vn -0.8699 -0.4382 0.2262
vn -0.8381 -0.5146 -0.1811
vn 0.0859 0.1225 -0.9887
vn -0.8139 0.3462 -0.4667
vn -0.7932 0.3721 -0.4821
vn 0.9105 0.0297 -0.4124
vn -0.0107 0.8591 -0.5117
vn -0.0096 0.8606 -0.5092
vn 0.9766 0.1381 0.1650
vn 0.7078 -0.0069 0.7064
vn -0.5157 0.8447 0.1432
vn 0.0045 0.8935 -0.4489
vn -0.5568 0.8136 0.1675
vn -0.7888 0.1116 0.6044
vn -0.8753 -0.4144 0.2493
vn -0.8753 -0.4310 0.2193
vn -0.0214 0.8577 -0.5137
vn 0.2570 0.5591 0.7883
usemtl None
s off
f 23/1/1 6/2/1 14/3/1
f 6/4/2 5/5/2 14/3/2
f 5/6/3 16/7/3 14/3/3
f 16/8/4 15/9/4 14/3/4
f 15/10/5 11/11/5 14/3/5
f 11/12/6 12/13/6 14/3/6
f 12/14/7 4/15/7 14/3/7
f 4/16/8 3/17/8 14/3/8
f 3/18/9 23/19/9 14/3/9
f 3/18/10 6/2/10 23/20/10
f 24/21/11 16/7/11 5/22/11 1/23/11 20/24/11
f 2/25/12 1/26/12 5/5/12 6/27/12 3/28/12
f 9/29/13 10/30/13 11/31/13 21/32/13
f 24/21/14 15/9/14 16/33/14
f 24/21/15 13/34/15 15/35/15
f 13/36/16 11/11/16 15/35/16
f 10/37/17 22/38/17 11/31/17
f 22/39/18 17/40/18 11/31/18
f 17/41/19 8/42/19 11/31/19
f 13/36/20 21/43/20 11/31/20
f 8/44/21 18/45/21 12/13/21 11/31/21
f 18/46/22 4/15/22 12/47/22
f 2/25/23 3/17/23 4/48/23
f 18/46/24 7/49/24 4/48/24
f 7/50/25 2/51/25 4/48/25
f 9/29/26 20/52/26 1/23/26
f 2/25/27 8/42/27 1/23/27
f 8/44/28 9/53/28 1/23/28
f 20/24/29 21/43/29 24/54/29
f 21/32/30 13/34/30 24/54/30
f 8/44/31 22/38/31 10/55/31
f 9/29/32 8/42/32 10/55/32
f 8/44/33 19/56/33 22/57/33
f 19/58/34 17/40/34 22/57/34
f 19/58/35 8/42/35 17/59/35
f 7/50/36 18/45/36 8/60/36
f 2/25/37 7/49/37 8/60/37
f 20/24/38 9/53/38 21/61/38
