# Blender v3.0.0 OBJ File: 'Sphere_Cell_Fracture.blend'
# www.blender.org
mtllib Sphere_Cell_Fracture43.mtl
v -0.444310 0.084587 -0.308321
v 0.242310 0.133245 -0.240788
v -0.404270 0.103159 -0.472062
v 0.075783 0.172553 -0.796324
v 0.236566 0.164738 -0.573616
v -0.210176 0.605944 -0.614588
v 0.363530 0.334338 -0.262725
v -0.401944 0.502335 -0.124787
v -0.368458 0.447829 0.017861
v 0.315176 0.302636 -0.122427
v 0.355798 0.314326 -0.192773
v 0.326466 0.302803 -0.131882
v -0.530071 0.236972 -0.049249
v 0.291781 0.200110 -0.127488
v -0.520831 0.283369 0.028494
v -0.532207 0.277656 0.019288
v -0.202695 0.588434 -0.700251
v 0.314595 0.301074 -0.646985
v 0.236723 0.324950 -0.779955
v 0.097720 0.398241 -0.815270
v -0.424021 0.351716 -0.512370
v -0.204716 0.584969 -0.704371
v 0.126918 0.266293 -0.849692
v 0.061723 0.390640 -0.834632
v -0.534142 0.339580 -0.081320
v -0.546942 0.276279 -0.002107
v 0.294958 0.207284 -0.127771
v 0.316936 0.280109 -0.124968
vt 0.000000 0.000000
vt 1.000000 0.000000
vt 1.000000 1.000000
vt 0.000000 0.000000
vt 1.000000 0.000000
vt 1.000000 0.000000
vt 0.000000 0.000000
vt 1.000000 0.000000
vt 0.000000 0.000000
vt 0.000000 0.000000
vt 1.000000 0.000000
vt 1.000000 0.000000
vt 1.000000 1.000000
vt 0.000000 0.000000
vt 1.000000 0.000000
vt 0.000000 0.000000
vt 1.000000 0.000000
vt 0.000000 0.000000
vt 1.000000 0.000000
vt 1.000000 1.000000
vt 0.000000 0.000000
vt 1.000000 0.000000
vt 1.000000 1.000000
vt 1.000000 1.000000
vt 0.000000 0.000000
vt 1.000000 0.000000
vt 1.000000 1.000000
vt 0.000000 0.000000
vt 0.000000 0.000000
vt 1.000000 1.000000
vt 1.000000 0.000000
vt 0.000000 0.000000
vt 1.000000 0.000000
vt 0.000000 0.000000
vt 1.000000 0.000000
vt 1.000000 1.000000
vt 1.000000 1.000000
vt 0.000000 0.000000
vt 0.000000 0.000000
vt 1.000000 1.000000
vt 1.000000 0.000000
vt 1.000000 0.000000
vt 1.000000 1.000000
vt 0.000000 0.000000
vt 1.000000 0.000000
vt 0.000000 0.000000
vt 1.000000 0.000000
vt 0.000000 0.000000
vt 1.000000 0.000000
vt 0.000000 0.000000
vt 1.000000 0.000000
vt 0.000000 0.000000
vt 1.000000 0.000000
vt 0.000000 0.000000
vt 0.000000 0.000000
vt 1.000000 0.000000
vt 1.000000 1.000000
vt 1.000000 0.000000
vt 0.000000 0.000000
vt 1.000000 0.000000
vt 1.000000 0.000000
vt 1.000000 1.000000
vt 0.000000 0.000000
vt 0.000000 0.000000
vt 1.000000 1.000000
vt 1.000000 0.000000
vt 1.000000 1.000000
vt 1.000000 1.000000
vt 1.000000 1.000000
vt 1.000000 1.000000
vt 1.000000 0.000000
vn 0.6305 -0.6109 -0.4789
vn 0.6287 -0.6144 -0.4767
vn -0.5325 -0.1803 -0.8270
vn -0.5329 -0.1792 -0.8270
vn 0.3872 0.3083 -0.8689
vn 0.3922 0.3300 -0.8587
vn 0.4898 0.8601 -0.1429
vn 0.4912 0.8604 -0.1360
vn 0.4974 0.8566 -0.1375
vn 0.8521 -0.5195 -0.0635
vn -0.7874 0.5881 -0.1847
vn 0.6286 -0.6156 -0.4754
vn 0.0838 -0.9919 -0.0953
vn 0.0799 -0.9924 -0.0942
vn -0.5337 -0.1776 -0.8268
vn 0.0795 -0.9925 -0.0931
vn -0.9613 -0.1185 -0.2485
vn -0.5354 -0.1765 -0.8260
vn 0.1814 0.7070 -0.6836
vn 0.2035 0.7216 -0.6617
vn -0.7258 0.6588 -0.1980
vn 0.4897 0.8616 -0.1333
vn 0.8584 -0.5104 -0.0511
vn 0.2571 0.9212 0.2920
vn 0.8990 -0.3904 0.1986
vn 0.4756 -0.1767 0.8618
vn 0.2019 -0.0942 0.9749
vn 0.1819 -0.0898 0.9792
vn 0.1775 -0.1012 0.9789
vn 0.0115 -0.8560 0.5169
vn 0.0101 -0.8597 0.5107
vn 0.0099 -0.8605 0.5094
vn 0.0116 -0.8634 0.5045
vn -0.9615 -0.1166 -0.2490
vn -0.5382 -0.7320 0.4178
vn -0.9619 -0.1156 -0.2478
vn -0.7864 0.5899 -0.1831
vn 0.2512 0.9224 0.2935
vn 0.2553 0.9210 0.2942
vn 0.8887 -0.2576 0.3793
vn 0.8869 -0.2817 0.3661
vn 0.2560 0.9198 0.2974
vn 0.6420 -0.0363 0.7659
vn 0.2600 0.9087 0.3265
vn -0.6568 0.6400 0.3987
vn -0.6573 0.6370 0.4028
vn -0.6549 0.6334 0.4121
vn -0.6512 0.6404 0.4073
vn 0.8509 -0.5214 -0.0640
usemtl None
s off
f 19/1/1 18/2/1 23/3/1
f 18/4/2 4/5/2 23/3/2
f 3/6/3 23/3/3 4/7/3
f 24/8/4 23/3/4 3/9/4
f 24/10/5 19/11/5 23/3/5
f 20/12/6 19/13/6 24/10/6
f 20/14/7 17/15/7 19/13/7
f 19/13/8 17/16/8 7/17/8
f 18/2/9 19/13/9 7/18/9
f 7/18/10 14/19/10 18/20/10
f 25/21/11 6/22/11 22/23/11 21/24/11
f 5/25/12 4/5/12 18/20/12
f 5/25/13 2/26/13 4/27/13
f 2/28/14 3/6/14 4/27/14
f 22/29/15 24/8/15 3/30/15
f 2/28/16 1/31/16 3/30/16
f 1/32/17 13/33/17 3/30/17
f 21/34/18 22/35/18 3/30/18
f 22/29/19 17/15/19 24/36/19
f 24/36/20 17/16/20 20/12/20
f 17/37/21 22/29/21 6/22/21
f 17/37/22 6/38/22 7/17/22
f 11/39/23 14/19/23 7/40/23
f 6/38/24 11/41/24 7/40/24
f 11/39/25 27/42/25 14/43/25
f 27/44/26 28/45/26 14/43/26
f 28/46/27 10/47/27 14/43/27
f 10/48/28 9/49/28 14/43/28
f 9/50/29 15/51/29 14/43/29
f 15/52/30 16/53/30 14/43/30
f 16/54/31 13/33/31 14/43/31
f 13/55/32 1/31/32 14/43/32
f 1/32/33 2/26/33 14/43/33
f 25/21/34 21/56/34 3/30/34 13/57/34
f 16/54/35 26/58/35 13/57/35
f 26/59/36 25/60/36 13/57/36
f 8/61/37 6/62/37 25/21/37
f 8/63/38 9/49/38 6/62/38
f 6/62/39 9/50/39 11/41/39
f 12/64/40 28/45/40 11/65/40
f 28/46/41 27/42/41 11/65/41
f 9/50/42 12/66/42 11/65/42
f 12/64/43 10/47/43 28/67/43
f 12/64/44 9/49/44 10/68/44
f 8/63/45 25/60/45 9/69/45
f 25/21/46 26/58/46 9/69/46
f 26/59/47 15/51/47 9/69/47
f 26/59/48 16/53/48 15/70/48
f 2/28/49 5/71/49 18/20/49 14/43/49
