# Blender v3.0.0 OBJ File: 'Sphere_Cell_Fracture.blend'
# www.blender.org
mtllib Sphere_Cell_Fracture1.mtl
v -0.073693 -0.697899 0.185870
v 0.243558 -0.851849 0.022558
v -0.071271 -0.696323 0.164147
v 0.241735 -0.849406 0.016161
v 0.014707 -0.722462 0.008250
v -0.032367 -0.704046 0.062259
v -0.056256 -0.704219 0.092026
v 0.162212 -0.980785 0.108386
v 0.137950 -0.980785 0.137950
v 0.108386 -0.980785 0.162212
v 0.074658 -0.980785 0.180240
v 0.074658 -0.923880 0.375330
v 0.038060 -0.980785 0.191342
v 0.000000 -0.980785 0.195090
v -0.038060 -0.980785 0.191342
v -0.066318 -0.936847 0.333405
v -0.101626 -0.942384 0.303711
v 0.054750 -0.898884 0.424054
v -0.005971 -0.923880 0.382095
v 0.000000 -0.921853 0.386475
v -0.101141 -0.944031 0.298210
v -0.097217 -0.949916 0.279227
v -0.076380 -0.980785 0.179320
v -0.070880 -0.983329 0.153116
v -0.078515 -0.977728 0.189551
v 0.075315 -0.906165 0.408407
v 0.080441 -0.908034 0.404406
v 0.131794 -0.923880 0.357998
v 0.143181 -0.926468 0.345671
v 0.192028 -0.935116 0.287390
v 0.178780 -0.980785 0.077390
v 0.174112 -0.981439 0.072119
v 0.134383 -0.986505 0.026731
v 0.111373 -0.989031 0.000000
v 0.095379 -0.990422 -0.018972
v 0.278882 -0.941451 0.163858
v 0.233087 -0.939972 0.233087
v 0.269191 -0.941756 0.179868
v -0.066353 -0.984023 0.147587
v -0.055980 -0.985592 0.135148
v 0.010893 -0.994500 0.054765
v 0.000000 -0.993312 0.067900
v -0.017754 -0.991037 0.089254
v 0.041691 -0.995555 0.017269
v 0.036106 -0.995723 0.024125
v 0.025097 -0.995551 0.037560
v 0.018749 -0.995175 0.045264
v 0.030716 -0.995722 0.030716
v 0.047965 -0.995183 0.009541
v 0.082830 -0.991188 -0.033673
v 0.066342 -0.993338 -0.013196
v 0.055690 -0.994515 0.000000
v -0.005971 -0.923880 0.382095
v 0.000000 -0.921853 0.386475
v -0.066318 -0.936847 0.333405
v 0.054750 -0.898884 0.424054
v -0.101141 -0.944031 0.298210
v -0.097217 -0.949916 0.279227
v -0.078515 -0.977728 0.189551
v 0.075315 -0.906165 0.408407
v 0.080441 -0.908034 0.404406
v 0.131794 -0.923880 0.357998
v 0.143181 -0.926468 0.345671
v 0.192028 -0.935116 0.287390
v 0.178780 -0.980785 0.077390
v 0.174112 -0.981439 0.072119
v 0.134383 -0.986505 0.026731
v 0.111373 -0.989031 0.000000
v 0.095379 -0.990422 -0.018972
v 0.278882 -0.941451 0.163858
v 0.269191 -0.941756 0.179868
v -0.066353 -0.984023 0.147587
v -0.055980 -0.985592 0.135148
v 0.010893 -0.994500 0.054765
v 0.000000 -0.993312 0.067900
v -0.017754 -0.991037 0.089254
v 0.041691 -0.995555 0.017269
v 0.036106 -0.995723 0.024125
v 0.025097 -0.995551 0.037560
v 0.018749 -0.995175 0.045264
v 0.030716 -0.995722 0.030716
v 0.082830 -0.991188 -0.033673
v 0.066342 -0.993338 -0.013196
v 0.055690 -0.994515 0.000000
v -0.076380 -0.980785 0.179320
v -0.070880 -0.983329 0.153116
v 0.047965 -0.995183 0.009541
v 0.233087 -0.939972 0.233087
v -0.101626 -0.942384 0.303711
vt 0.381899 0.000000
vt 1.000000 0.000000
vt 1.000000 0.693662
vt 0.858443 0.547355
vt 0.618127 0.288855
vt 0.594697 0.261489
vt 1.000000 0.699680
vt 0.693663 0.693663
vt 0.000000 0.000000
vt 1.000000 0.000000
vt 0.699680 0.699680
vt 0.000000 0.000000
vt 1.000000 0.000000
vt 1.000000 0.709829
vt 0.709829 0.709829
vt 0.000000 0.000000
vt 0.806815 0.000000
vt 0.799382 0.142367
vt 0.790512 0.200359
vt 0.000000 0.000000
vt 0.999030 0.000000
vt 0.928342 0.383983
vt 0.882320 0.630181
vt 0.848634 0.807074
vt 0.842662 0.035488
vt 0.843125 0.076993
vt 0.843100 0.116721
vt 0.842584 0.157799
vt 0.841472 0.203842
vt 0.839494 0.260404
vt 0.836018 0.338333
vt 0.829374 0.464664
vt 0.813492 0.735584
vt 0.808916 0.808916
vt 0.059672 0.037032
vt 0.002272 0.000000
vt 1.000000 0.000000
vt 1.000000 0.459822
vt 0.464676 0.275687
vt 0.441796 0.262747
vt 0.247989 0.150811
vt 0.136493 0.084476
vt 1.000000 0.000000
vt 0.459822 0.459822
vt 0.000000 0.000000
vt 1.000000 0.618101
vt 0.408364 0.000000
vt 0.000000 0.000000
vt 1.000000 1.000000
vt 1.000000 0.000000
vt 0.000000 0.000000
vt 1.000000 0.000000
vt 1.000000 1.000000
vt 0.808916 0.000000
vt 1.000000 0.193185
vt 1.000000 1.000000
vt 0.999031 0.999031
vt 0.998945 0.998945
vt 0.451946 0.451946
vt 0.591636 0.000000
vt 0.596931 0.026423
vt 0.641793 0.305439
vt 0.649109 0.371926
vt 0.673516 0.669369
vt 0.757550 0.581325
vt 0.521421 0.483179
vt 0.553430 0.028806
vt 0.539086 0.031155
vt 0.541457 0.021670
vt 0.506705 0.035680
vt 0.511165 0.017841
vt 0.521042 0.021670
vt 0.523414 0.031155
vt 0.488835 0.017841
vt 0.493295 0.035680
vt 0.473401 0.043895
vt 0.480458 0.015667
vt 0.457042 0.015667
vt 0.464099 0.043895
vt 0.438031 0.060375
vt 0.449511 0.014457
vt 0.436969 0.060375
vt 0.434969 0.062500
vt 0.406250 0.062500
vt 0.418397 0.013912
vt 0.425489 0.014457
vt 0.406250 0.105366
vt 0.415521 0.105701
vt 0.375000 0.107326
vt 0.375000 0.062500
vt 0.387146 0.013916
vt 0.394103 0.013912
vt 0.343750 0.062500
vt 0.343750 0.112659
vt 0.355757 0.014472
vt 0.362854 0.013916
vt 0.312500 0.122157
vt 0.312500 0.062500
vt 0.343750 0.112659
vt 0.324201 0.015696
vt 0.331743 0.014472
vt 0.281250 0.125000
vt 0.306122 0.125000
vt 0.281250 0.135717
vt 0.281250 0.062500
vt 0.292403 0.017888
vt 0.300799 0.015696
vt 0.250000 0.125000
vt 0.279078 0.136981
vt 0.270482 0.141905
vt 0.250000 0.062500
vt 0.260187 0.021753
vt 0.270097 0.017888
vt 0.247501 0.125000
vt 0.218750 0.110758
vt 0.218750 0.062500
vt 0.227086 0.029154
vt 0.239813 0.021753
vt 0.187500 0.062500
vt 0.198656 0.104677
vt 0.198004 0.102867
vt 0.196701 0.096404
vt 0.187500 0.065858
vt 0.191409 0.046864
vt 0.210414 0.029154
vt 0.183591 0.046864
vt 0.185904 0.062500
vt 0.179775 0.054226
vt 0.180907 0.051969
vn -0.6267 0.3953 0.6715
vn -0.9924 0.0622 -0.1061
vn -0.9788 0.0073 -0.2046
vn -0.9785 0.0062 -0.2060
vn -0.7703 -0.0984 -0.6301
vn 0.6569 -0.5528 -0.5127
vn 0.9392 -0.1304 -0.3175
vn 0.5396 0.7640 0.3537
vn 0.5028 0.8456 0.1796
vn 0.4814 0.8683 0.1195
vn 0.4759 0.8718 0.1163
vn 0.4730 0.8736 0.1144
vn -0.1885 0.9712 -0.1456
vn -0.7761 -0.0958 -0.6234
vn -0.7663 -0.0951 -0.6354
vn 0.1383 0.1868 -0.9726
vn 0.5478 0.7617 0.3461
vn 0.0942 -0.9951 -0.0286
vn 0.0967 -0.9952 -0.0160
vn 0.0972 -0.9951 -0.0138
vn 0.0980 -0.9951 0.0043
vn 0.0980 -0.9951 0.0042
vn 0.0950 -0.9951 0.0246
vn 0.0955 -0.9952 0.0220
vn 0.0879 -0.9951 0.0438
vn 0.0898 -0.9952 0.0392
vn 0.1581 -0.9838 0.0845
vn 0.1671 -0.9796 0.1116
vn 0.0811 -0.9952 0.0549
vn 0.2412 -0.9569 0.1616
vn 0.2571 -0.9565 0.1374
vn 0.2030 -0.9569 0.2075
vn 0.1421 -0.9796 0.1421
vn 0.0697 -0.9952 0.0688
vn 0.1116 -0.9796 0.1671
vn 0.1563 -0.9569 0.2446
vn 0.0559 -0.9952 0.0805
vn 0.1030 -0.9569 0.2715
vn 0.0769 -0.9796 0.1856
vn 0.0403 -0.9952 0.0894
vn 0.0738 -0.9222 0.3795
vn 0.0933 -0.9470 0.3075
vn 0.0756 -0.8818 0.4655
vn 0.0373 -0.9795 0.1979
vn 0.0232 -0.9951 0.0953
vn 0.0162 -0.9403 0.3400
vn 0.0464 -0.8809 0.4709
vn 0.0004 -0.9794 0.2018
vn 0.0054 -0.9951 0.0980
vn -0.0200 -0.9567 0.2905
vn -0.0418 -0.9571 0.2866
vn -0.0371 -0.9796 0.1974
vn -0.0127 -0.9951 0.0974
vn -0.0566 -0.9818 0.1812
vn -0.0846 -0.9566 0.2786
vn -0.0305 -0.9951 0.0938
vn -0.0464 -0.9951 0.0869
usemtl None
s off
f 56/1/1 1/2/1 89/3/1 16/4/1 53/5/1 54/6/1
f 57/7/2 89/8/2 1/9/2 3/10/2
f 57/11/3 3/12/3 7/13/3 58/14/3
f 58/15/4 7/16/4 86/17/4 85/18/4 59/19/4
f 6/20/5 82/21/5 83/22/5 84/23/5 49/24/5 77/25/5 78/26/5 81/27/5 46/28/5 80/29/5 41/30/5 75/31/5 76/32/5 73/33/5 72/34/5
f 69/35/6 82/36/6 4/37/6 70/38/6 31/39/6 66/40/6 67/41/6 68/42/6
f 2/43/7 70/44/7 4/45/7
f 1/2/8 56/46/8 60/47/8
f 2/48/9 4/37/9 1/49/9
f 4/45/10 5/50/10 1/49/10
f 5/51/11 3/10/11 1/49/11
f 5/51/12 6/52/12 3/53/12
f 6/20/13 7/13/13 3/53/13
f 72/54/14 86/55/14 7/56/14 6/20/14
f 5/50/15 82/57/15 6/20/15
f 5/51/16 4/37/16 82/58/16
f 70/59/17 2/48/17 1/9/17 60/60/17 27/61/17 28/62/17 29/63/17 30/64/17 37/65/17 38/66/17
s 1
f 50/67/18 35/68/19 51/69/20
f 34/70/21 52/71/22 51/72/20 35/73/19
f 52/74/22 34/75/21 33/76/23 87/77/24
f 87/78/24 33/79/23 32/80/25 44/81/26
f 32/82/25 65/83/27 8/84/28 45/85/29 44/86/26
f 71/87/30 8/84/28 65/83/27 36/88/31
f 88/89/32 9/90/33 8/84/28 71/87/30
f 8/84/28 9/90/33 48/91/34 45/92/29
f 10/93/35 9/90/33 88/89/32 64/94/36
f 9/90/33 10/93/35 79/95/37 48/96/34
f 63/97/38 11/98/39 10/93/35 64/99/36
f 10/93/35 11/98/39 47/100/40 79/101/37
f 12/102/41 62/103/42 61/104/43
f 62/103/42 12/102/41 13/105/44 11/98/39 63/97/38
f 11/98/39 13/105/44 74/106/45 47/107/40
f 20/108/46 12/102/41 61/104/43 26/109/47 18/110/47
f 13/105/44 12/102/41 20/108/46 14/111/48
f 13/105/44 14/111/48 42/112/49 74/113/45
f 14/111/48 20/108/46 19/114/50 55/115/51 15/116/52
f 14/111/48 15/116/52 43/117/53 42/118/49
f 23/119/54 15/116/52 55/115/51 17/120/55 21/121/55 22/122/55 25/123/55
f 15/116/52 23/119/54 40/124/56 43/125/53
f 40/126/56 23/127/54 24/128/57 39/129/57
