# Blender v3.0.0 OBJ File: 'Sphere_Cell_Fracture.blend'
# www.blender.org
mtllib Sphere_Cell_Fracture7.mtl
v -0.047059 -0.631022 0.273818
v -0.280306 -0.619089 0.235226
v 0.054450 -0.669797 0.432721
v 0.148613 -0.712924 0.608411
v -0.008490 -0.590429 0.296317
v -0.203193 -0.115132 0.449991
v 0.206203 -0.632509 0.607435
v 0.141729 -0.364536 0.768706
v 0.069737 -0.173635 0.840694
v -0.149330 -0.088708 0.566361
v -0.039540 -0.082730 0.751474
v -0.409511 -0.574569 0.228772
v -0.401053 -0.132981 0.406409
v -0.309085 -0.100709 0.435906
v -0.384520 -0.107427 0.420064
v 0.187238 -0.665286 0.604412
v -0.003614 -0.265653 0.905148
v -0.432007 -0.119722 0.729117
v -0.180240 -0.382683 0.906127
v -0.162212 -0.555570 0.815493
v -0.137950 -0.707107 0.693520
v -0.353553 -0.382683 0.853553
v -0.318190 -0.555570 0.768178
v -0.270598 -0.707107 0.653281
v -0.513280 -0.382683 0.768178
v -0.461940 -0.555570 0.691342
v -0.587938 -0.555570 0.587938
v -0.691341 -0.555570 0.461940
v -0.635823 -0.653611 0.395945
v -0.650783 -0.642074 0.387944
v -0.653711 -0.636444 0.392222
v -0.133772 -0.724679 0.672520
v -0.697865 -0.540893 0.466298
v -0.098687 -0.382683 0.914160
v -0.092954 -0.428135 0.890430
v -0.693919 -0.555570 0.457118
v -0.086351 -0.316924 0.935322
v -0.053224 -0.603155 0.787175
v -0.077466 -0.555570 0.823840
v -0.615393 -0.382683 0.684376
v -0.697369 -0.533999 0.472683
v -0.638209 -0.422562 0.638209
v -0.623941 -0.657476 0.411478
v -0.109009 -0.317518 0.932911
v -0.394899 -0.702606 0.591009
v -0.363961 -0.293030 0.878679
v -0.423307 -0.697971 0.572593
v -0.513956 -0.683057 0.513956
v -0.566016 -0.671091 0.465926
v -0.577297 -0.319829 0.740187
v -0.526491 -0.236861 0.811032
v -0.535469 -0.251023 0.801385
v -0.266336 -0.716247 0.642992
v -0.354801 -0.707107 0.608274
v 0.028489 -0.728018 0.678821
v -0.471849 -0.255652 0.833806
v -0.000832 -0.707107 0.707025
v 0.000000 -0.728274 0.681315
v -0.181560 -0.319822 0.925066
v -0.697865 -0.540893 0.466298
v -0.697369 -0.533999 0.472683
v -0.615393 -0.382683 0.684376
v -0.638209 -0.422562 0.638209
v -0.635823 -0.653611 0.395945
v -0.650783 -0.642074 0.387944
v -0.653711 -0.636444 0.392222
v -0.098687 -0.382683 0.914160
v -0.092954 -0.428135 0.890430
v -0.693919 -0.555570 0.457118
v -0.053224 -0.603155 0.787175
v -0.077466 -0.555570 0.823840
v -0.423307 -0.697971 0.572593
v -0.513956 -0.683057 0.513956
v -0.577297 -0.319829 0.740187
v -0.526491 -0.236861 0.811032
v -0.535469 -0.251023 0.801385
v -0.394899 -0.702606 0.591009
v -0.354801 -0.707107 0.608274
v -0.471849 -0.255652 0.833806
v -0.000832 -0.707107 0.707025
v 0.028489 -0.728018 0.678821
v 0.000000 -0.728274 0.681315
v -0.086351 -0.316924 0.935322
v -0.109009 -0.317518 0.932911
v -0.133772 -0.724679 0.672520
v -0.266336 -0.716247 0.642992
v -0.181560 -0.319822 0.925066
v -0.363961 -0.293030 0.878679
v -0.566016 -0.671091 0.465926
v -0.623941 -0.657476 0.411478
vt 0.000000 0.000000
vt 1.000000 0.000000
vt 1.000000 1.000000
vt 0.000000 0.000000
vt 1.000000 0.000000
vt 0.000000 0.000000
vt 1.000000 0.000000
vt 0.805113 0.000000
vt 1.000000 0.227607
vt 0.000000 0.000000
vt 1.000000 0.374016
vt 0.227607 0.227607
vt 0.374016 0.374016
vt 0.266453 0.059232
vt 0.255565 0.012668
vt 0.253050 0.000000
vt 1.000000 0.000000
vt 0.000000 0.000000
vt 1.000000 1.000000
vt 0.246323 0.000000
vt 1.000000 0.000000
vt 0.000000 0.000000
vt 1.000000 0.000000
vt 1.000000 1.000000
vt 0.000000 0.000000
vt 0.000000 0.000000
vt 1.000000 1.000000
vt 0.000000 0.000000
vt 1.000000 0.000000
vt 0.000000 0.000000
vt 1.000000 0.000000
vt 0.000000 0.000000
vt 1.000000 0.000000
vt 0.854866 0.000000
vt 1.000000 0.194887
vt 1.000000 1.000000
vt 0.854866 0.854866
vt 1.000000 0.000000
vt 1.000000 0.820947
vt 0.820947 0.820947
vt 0.000000 0.000000
vt 0.592751 0.000000
vt 0.730211 0.444868
vt 0.428894 0.000000
vt 1.000000 0.753677
vt 0.651666 0.327897
vt 0.552403 0.192212
vt 0.674267 0.000000
vt 1.000000 0.000000
vt 1.000000 1.000000
vt 0.428894 0.428894
vt 0.632663 0.065067
vt 0.000000 0.000000
vt 1.000000 0.000000
vt 0.000000 0.000000
vt 1.000000 0.000000
vt 1.000000 0.000000
vt 1.000000 1.000000
vt 1.000000 0.000000
vt 1.000000 0.000000
vt 1.000000 1.000000
vt 0.000000 0.000000
vt 1.000000 1.000000
vt 1.000000 1.000000
vt 0.615667 0.536732
vt 0.592751 0.592751
vt 0.369760 0.000000
vt 0.412750 0.022693
vt 0.550083 0.162004
vt 0.620677 0.333304
vt 0.620540 0.471602
vt 0.673926 0.000000
vt 1.000000 0.325733
vt 0.597235 0.000000
vt 1.000000 1.000000
vt 0.673926 0.673926
vt 0.613963 0.384334
vt 0.808573 0.000000
vt 1.000000 0.000000
vt 1.000000 1.000000
vt 0.597235 0.597235
vt 0.000000 0.000000
vt 0.660049 0.307564
vt 1.000000 0.566914
vt 1.000000 1.000000
vt 0.208645 0.000000
vt 1.000000 0.386912
vt 0.566914 0.566914
vt 0.850396 0.416016
vt 1.000000 0.191427
vt 0.791355 0.000000
vt 0.485154 0.323746
vt 0.630240 0.000000
vt 0.000000 0.000000
vt 0.613088 0.000000
vt 0.256770 0.239491
vt 0.250000 0.249598
vt 0.250000 0.239362
vt 0.218750 0.375000
vt 0.232890 0.375000
vt 0.235347 0.396909
vt 0.231489 0.396711
vt 0.218750 0.395917
vt 0.218750 0.312500
vt 0.235076 0.312500
vt 0.233453 0.358569
vt 0.218750 0.250000
vt 0.249812 0.250000
vt 0.239216 0.292874
vt 0.218750 0.241169
vt 0.187500 0.375000
vt 0.187500 0.404870
vt 0.187500 0.312500
vt 0.187500 0.250000
vt 0.187500 0.245407
vt 0.156250 0.375000
vt 0.156250 0.312500
vt 0.165976 0.250000
vt 0.156250 0.251856
vt 0.158386 0.423583
vt 0.156250 0.418865
vt 0.168060 0.417323
vt 0.144575 0.395941
vt 0.133457 0.375000
vt 0.125000 0.312500
vt 0.125000 0.360583
vt 0.125000 0.259919
vt 0.148705 0.253768
vt 0.093750 0.312500
vt 0.093750 0.270104
vt 0.109613 0.264854
vt 0.094038 0.319337
vt 0.093750 0.317806
vt 0.092702 0.312500
vt 0.085557 0.276822
vt 0.088661 0.272064
vt 0.086003 0.279144
vn 0.1656 0.3653 -0.9160
vn 0.1687 0.3646 -0.9158
vn 0.1689 0.3569 -0.9188
vn -0.2202 -0.7324 -0.6443
vn -0.5820 0.2781 -0.7642
vn -0.5858 0.3167 -0.7460
vn 0.1568 0.3846 -0.9097
vn -0.8080 0.5795 -0.1062
vn 0.1670 0.9420 -0.2912
vn 0.1715 0.3660 -0.9147
vn 0.1703 0.3489 -0.9215
vn 0.7383 -0.3755 -0.5603
vn 0.7371 -0.3781 -0.5601
vn 0.7325 -0.3846 -0.5618
vn -0.0111 -0.9723 -0.2334
vn -0.0107 -0.9727 -0.2318
vn -0.0110 -0.9730 -0.2305
vn -0.8081 0.5801 -0.1017
vn -0.8077 0.5809 -0.1010
vn -0.0952 0.9951 0.0250
vn 0.7587 0.4600 -0.4612
vn 0.7403 0.4949 -0.4550
vn -0.1033 0.6307 0.7691
vn 0.0136 -0.9694 -0.2453
vn -0.0938 0.9953 0.0234
vn 0.5566 -0.3897 0.7337
vn 0.6556 -0.5729 -0.4920
vn -0.0112 -0.9736 -0.2278
vn -0.1066 0.6261 0.7724
vn -0.1046 0.6259 0.7729
vn -0.1035 0.6247 0.7740
vn 0.6759 -0.0229 0.7366
vn 0.5043 -0.3488 0.7900
vn 0.5043 -0.3510 0.7890
vn -0.0992 0.6187 0.7793
vn 0.5057 -0.3523 0.7875
vn 0.0625 -0.7695 0.6355
vn -0.0431 -0.7248 0.6876
vn 0.0016 -0.7720 0.6356
vn -0.1812 -0.3798 0.9071
vn -0.0908 -0.3774 0.9216
vn -0.0938 -0.2890 0.9527
vn -0.1873 -0.2889 0.9388
vn -0.1626 -0.5528 0.8173
vn -0.0810 -0.5629 0.8225
vn -0.0865 -0.4696 0.8786
vn -0.1385 -0.7040 0.6965
vn -0.0759 -0.6326 0.7708
vn -0.1211 -0.7730 0.6227
vn -0.3536 -0.3799 0.8548
vn -0.3783 -0.2891 0.8794
vn -0.3189 -0.5528 0.7699
vn -0.2717 -0.7040 0.6561
vn -0.2383 -0.7730 0.5879
vn -0.5137 -0.3805 0.7689
vn -0.4630 -0.5528 0.6929
vn -0.3623 -0.6398 0.6778
vn -0.4234 -0.6344 0.6467
vn -0.4513 -0.2890 0.8443
vn -0.4899 -0.2899 0.8221
vn -0.6073 -0.2890 0.7400
vn -0.5739 -0.4260 0.6993
vn -0.5895 -0.5530 0.5888
vn -0.5956 -0.4710 0.6506
vn -0.5404 -0.6348 0.5522
vn -0.4913 -0.6326 0.5987
vn -0.6926 -0.5530 0.4631
vn -0.6379 -0.6348 0.4360
vn -0.5995 -0.6335 0.4891
vn -0.6825 -0.4696 0.5601
vn -0.6941 -0.4703 0.5449
vn -0.7233 -0.5721 0.3866
vn -0.6830 -0.6326 0.3651
usemtl None
s off
f 13/1/1 14/2/1 12/3/1
f 14/4/2 5/5/2 12/3/2
f 5/6/3 2/7/3 12/3/3
f 64/8/4 65/9/4 12/3/4 2/10/4
f 66/11/5 12/3/5 65/12/5
f 12/3/6 66/13/6 69/14/6 60/15/6 61/16/6 13/17/6
f 15/18/7 14/2/7 13/19/7
f 13/19/8 61/20/8 15/21/8
f 10/22/9 6/23/9 14/24/9
f 6/25/10 5/5/10 14/24/10
f 1/26/11 2/7/11 5/27/11
f 7/28/12 16/29/12 5/27/12
f 16/30/13 3/31/13 5/27/13
f 3/32/14 1/33/14 5/27/14
f 90/34/15 64/35/15 2/36/15 1/26/15
f 90/37/16 1/26/16 4/38/16 89/39/16
f 89/40/17 4/41/17 72/42/17 73/43/17
f 74/44/18 15/21/18 61/45/18 63/46/18 62/47/18
f 75/48/19 18/49/19 15/50/19 74/51/19 76/52/19
f 18/53/20 11/54/20 15/50/20
f 9/55/21 8/56/21 7/57/21 5/27/21 6/23/21 11/58/21
f 6/25/22 10/59/22 11/58/22
f 11/58/23 18/53/23 9/60/23
f 3/32/24 4/38/24 1/61/24
f 11/62/25 10/59/25 14/24/25 15/18/25
f 4/41/26 16/29/26 7/63/26
f 16/64/27 4/41/27 3/31/27
f 45/65/28 72/66/28 4/41/28 81/67/28 82/68/28 32/69/28 86/70/28 78/71/28
f 79/72/29 18/49/29 75/73/29
f 59/74/30 9/60/30 18/75/30 79/76/30 46/77/30
f 84/78/31 17/79/31 9/80/31 59/81/31
f 17/82/32 8/56/32 9/80/32
f 34/83/33 68/84/33 8/85/33 17/82/33 83/86/33
f 70/87/34 8/85/34 68/88/34 71/89/34
f 84/90/35 83/91/35 17/79/35
f 57/92/36 81/93/36 4/38/36 7/63/36 8/94/36 70/95/36
s 1
f 55/96/37 80/97/38 58/98/39
f 19/99/40 67/100/41 37/101/42 44/102/42 87/103/43
f 67/100/41 19/99/40 20/104/44 39/105/45 35/106/46
f 39/105/45 20/104/44 21/107/47 80/108/38 38/109/48
f 80/108/38 21/107/47 85/110/49 58/98/39
f 22/111/50 19/99/40 87/103/43 88/112/51
f 20/104/44 19/99/40 22/111/50 23/113/52
f 21/107/47 20/104/44 23/113/52 24/114/53
f 21/107/47 24/114/53 53/115/54 85/110/49
f 23/113/52 22/111/50 25/116/55 26/117/56
f 54/118/57 24/114/53 23/113/52 26/117/56 77/119/58
f 24/114/53 54/118/57 53/115/54
f 51/120/59 52/121/60 25/116/55 22/111/50 88/112/51 56/122/59
f 25/116/55 52/121/60 50/123/61 40/124/62
f 27/125/63 26/117/56 25/116/55 40/124/62 42/126/64
f 77/119/58 26/117/56 27/125/63 48/127/65 47/128/66
f 48/127/65 27/125/63 28/129/67 43/130/68 49/131/69
f 41/132/70 33/133/71 28/129/67 27/125/63 42/126/64
f 36/134/72 28/129/67 33/133/71
f 30/135/73 29/136/73 43/130/68 28/129/67 36/134/72 31/137/73
