# Blender v3.0.0 OBJ File: 'Sphere_Cell_Fracture.blend'
# www.blender.org
mtllib Sphere_Cell_Fracture23.mtl
v 0.423391 0.425351 -0.756779
v 0.388440 0.352828 -0.745472
v 0.409184 0.344194 -0.702910
v 0.650359 0.415198 -0.471710
v 0.568174 0.424106 -0.524789
v 0.715922 0.443915 -0.461718
v 0.513280 0.382683 -0.768178
v 0.544895 0.195090 -0.815493
v 0.653281 0.382683 -0.653281
v 0.693520 0.195090 -0.693520
v 0.768178 0.382683 -0.513280
v 0.815493 0.195090 -0.544895
v 0.642264 0.508360 -0.561327
v 0.599818 0.524138 -0.599818
v 0.566980 0.529397 -0.623148
v 0.691200 0.489795 -0.517264
v 0.748130 0.458854 -0.464834
v 0.744298 0.464833 -0.465256
v 0.762838 0.435762 -0.463374
v 0.429821 0.269857 -0.851408
v 0.439711 0.366414 -0.813070
v 0.441399 0.382683 -0.806599
v 0.440284 0.424383 -0.782044
v 0.455273 0.458369 -0.753533
v 0.462657 0.474935 -0.739594
v 0.481840 0.488558 -0.721124
v 0.501850 0.498537 -0.697835
v 0.726573 0.476296 -0.485481
v 0.775483 0.407247 -0.471894
v 0.786198 0.382683 -0.479566
v 0.818595 0.195090 -0.539092
v 0.817273 0.173357 -0.546084
v 0.815888 0.163354 -0.549317
v 0.653677 0.067983 -0.742335
v 0.547102 0.154751 -0.818797
v 0.503090 0.195090 -0.837838
v 0.450207 0.248156 -0.847940
v 0.701898 0.074791 -0.701898
v 0.642264 0.508360 -0.561327
v 0.599818 0.524138 -0.599818
v 0.566980 0.529397 -0.623148
v 0.691200 0.489795 -0.517264
v 0.748130 0.458854 -0.464834
v 0.744298 0.464833 -0.465256
v 0.762838 0.435762 -0.463374
v 0.439711 0.366414 -0.813070
v 0.441399 0.382683 -0.806599
v 0.440284 0.424383 -0.782044
v 0.455273 0.458369 -0.753533
v 0.462657 0.474935 -0.739594
v 0.481840 0.488558 -0.721124
v 0.726573 0.476296 -0.485481
v 0.775483 0.407247 -0.471894
v 0.786198 0.382683 -0.479566
v 0.818595 0.195090 -0.539092
v 0.817273 0.173357 -0.546084
v 0.815888 0.163354 -0.549317
v 0.653677 0.067983 -0.742335
v 0.547102 0.154751 -0.818797
v 0.501850 0.498537 -0.697835
v 0.429821 0.269857 -0.851408
v 0.450207 0.248156 -0.847940
v 0.701898 0.074791 -0.701898
v 0.503090 0.195090 -0.837838
vt 0.419802 0.000000
vt 1.000000 0.000000
vt 1.000000 0.192322
vt 0.651559 0.084001
vt 0.192322 0.192322
vt 0.000000 0.000000
vt 0.280587 0.000000
vt 0.902393 0.000000
vt 1.000000 0.000000
vt 1.000000 0.096527
vt 0.096527 0.096527
vt 0.000000 0.000000
vt 0.157291 0.000000
vt 1.000000 0.221716
vt 0.651764 0.000000
vt 1.000000 0.000000
vt 0.221716 0.221716
vt 0.000000 0.000000
vt 1.000000 0.000000
vt 1.000000 0.086058
vt 0.441319 0.191215
vt 0.086058 0.086058
vt 0.000000 0.000000
vt 0.106988 0.000000
vt 0.106988 0.106988
vt 0.275118 0.000000
vt 0.275118 0.275118
vt 1.000000 0.000000
vt 1.000000 0.590481
vt 0.593881 0.426208
vt 0.000000 0.000000
vt 1.000000 0.580199
vt 0.590481 0.590481
vt 1.000000 0.719413
vt 1.000000 1.000000
vt 0.097607 0.000000
vt 0.451830 0.275285
vt 1.000000 0.000000
vt 0.000000 0.000000
vt 1.000000 0.842709
vt 1.000000 1.000000
vt 0.343898 0.000000
vt 0.801928 0.022830
vt 0.773182 0.067594
vt 0.408791 0.328324
vt 0.343898 0.343898
vt 0.813098 0.000000
vt 0.615958 0.383576
vt 0.186902 0.000000
vt 1.000000 1.000000
vt 0.504145 0.504145
vt 1.000000 0.348236
vt 0.418232 0.418232
vt 1.000000 1.000000
vt 0.418232 0.000000
vt 0.388810 0.270636
vt 0.914072 0.314149
vt 0.504145 0.000000
vt 0.656250 0.625000
vt 0.670313 0.625000
vt 0.668418 0.640075
vt 0.663527 0.652361
vt 0.661043 0.658350
vt 0.656250 0.663275
vt 0.656250 0.562500
vt 0.663954 0.562500
vt 0.672315 0.580180
vt 0.675578 0.587410
vt 0.671099 0.619580
vt 0.656250 0.549577
vt 0.625000 0.676137
vt 0.625000 0.625000
vt 0.650782 0.666882
vt 0.632484 0.678038
vt 0.625000 0.562500
vt 0.625000 0.523960
vt 0.635113 0.521779
vt 0.593750 0.625000
vt 0.593750 0.562500
vt 0.593750 0.555537
vt 0.594311 0.552333
vt 0.593750 0.658842
vt 0.614325 0.670433
vt 0.602247 0.663722
vt 0.588895 0.654698
vt 0.588458 0.652536
vt 0.586832 0.644188
vt 0.586948 0.633880
vt 0.587154 0.625000
vt 0.592681 0.562500
vn -0.3809 0.6289 0.6778
vn -0.3764 0.6268 0.6822
vn 0.0490 0.1016 0.9936
vn 0.0517 0.0958 0.9941
vn -0.7889 0.2949 -0.5391
vn -0.7887 0.2961 -0.5387
vn -0.6234 0.6453 -0.4415
vn -0.6251 0.6466 -0.4373
vn -0.7648 0.4438 0.4670
vn -0.7590 0.4399 0.4801
vn -0.3758 0.6254 0.6838
vn -0.4995 -0.5313 0.6842
vn -0.3767 0.6208 0.6875
vn -0.0172 -0.2933 0.9559
vn -0.0180 -0.3052 0.9521
vn -0.4963 -0.5366 0.6824
vn -0.7280 -0.6482 0.2233
vn -0.7676 0.4423 0.4638
vn -0.7102 -0.6626 0.2379
vn 0.5137 0.3805 -0.7689
vn 0.4384 0.3674 -0.8202
vn 0.4162 0.4696 -0.7786
vn 0.5111 0.4712 -0.7188
vn 0.5450 0.1939 -0.8157
vn 0.4570 0.2452 -0.8550
vn 0.4513 0.2890 -0.8443
vn 0.5874 0.0979 -0.8034
vn 0.6145 0.4714 -0.6326
vn 0.6539 0.3805 -0.6539
vn 0.5601 0.4696 -0.6825
vn 0.6937 0.1939 -0.6937
vn 0.6900 0.0980 -0.7171
vn 0.6314 0.0975 -0.7693
vn 0.7689 0.3805 -0.5137
vn 0.8157 0.1939 -0.5450
vn 0.7808 0.0977 -0.6171
vn 0.7693 0.0975 -0.6314
vn 0.7210 0.4713 -0.5080
vn 0.6825 0.4696 -0.5601
vn 0.7786 0.4696 -0.4162
vn 0.8126 0.3886 -0.4343
vn 0.8623 0.2097 -0.4609
usemtl None
s off
f 41/1/1 5/2/1 39/3/1 40/4/1
f 39/5/2 5/6/2 42/7/2
f 44/8/3 6/9/3 43/10/3
f 43/11/4 6/12/4 45/13/4
f 46/14/5 61/15/5 2/16/5
f 46/17/6 2/18/6 1/19/6 48/20/6 47/21/6
f 48/22/7 1/23/7 49/24/7
f 49/25/8 1/23/8 50/26/8
f 50/27/9 1/23/9 3/28/9 60/29/9 51/30/9
f 3/31/10 5/2/10 41/32/10 60/33/10
f 42/34/11 5/35/11 6/12/11 44/36/11 52/37/11
f 5/35/12 3/31/12 4/38/12
f 5/35/13 4/39/13 6/9/13
f 45/40/14 6/41/14 4/39/14 53/42/14
f 56/43/15 55/44/15 54/45/15 53/46/15 4/39/15 57/47/15
f 38/48/16 57/49/16 4/38/16 3/50/16 58/51/16
f 2/16/17 61/52/17 62/53/17 3/31/17
f 3/31/18 1/19/18 2/54/18
f 3/31/19 62/55/19 36/56/19 35/57/19 58/58/19
s 1
f 7/59/20 22/60/21 23/61/22 24/62/22 25/63/22 26/64/23
f 7/59/20 8/65/24 64/66/25 37/67/26 20/68/26 21/69/26 22/60/21
f 59/70/27 64/66/25 8/65/24
f 14/71/28 9/72/29 7/59/20 26/64/23 27/73/30 15/74/30
f 8/65/24 7/59/20 9/72/29 10/75/31
f 59/70/27 8/65/24 10/75/31 63/76/32 34/77/33
f 10/75/31 9/72/29 11/78/34 12/79/35
f 63/76/32 10/75/31 12/79/35 32/80/36 33/81/37
f 28/82/38 11/78/34 9/72/29 14/71/28 13/83/39 16/84/39
f 28/82/38 18/85/40 17/86/40 19/87/40 29/88/40 30/89/41 11/78/34
f 31/90/42 12/79/35 11/78/34 30/89/41
f 32/80/36 12/79/35 31/90/42
