# Blender v3.0.0 OBJ File: 'Sphere_Cell_Fracture.blend'
# www.blender.org
mtllib Sphere_Cell_Fracture10.mtl
v 0.000000 0.707107 -0.707107
v 0.000000 0.555570 -0.831470
v 0.096971 0.399840 -0.816712
v 0.061222 0.393203 -0.835336
v 0.162212 0.555570 -0.815493
v -0.203101 0.589792 -0.701029
v -0.204951 0.586431 -0.706196
v -0.137950 0.707107 -0.693520
v -0.162212 0.555570 -0.815493
v -0.163578 0.542465 -0.822363
v 0.003354 0.421350 -0.902882
v 0.256645 0.515596 -0.809067
v 0.243841 0.542524 -0.797983
v 0.237544 0.555570 -0.792641
v 0.168936 0.491088 -0.849297
v 0.021042 0.428456 -0.897341
v -0.219381 0.707107 -0.668818
v -0.215677 0.715812 -0.658911
v -0.133259 0.726837 -0.669940
v -0.150644 0.724587 -0.667518
v -0.230494 0.651504 -0.712902
v -0.239459 0.602544 -0.751969
v -0.180798 0.555570 -0.809855
v 0.124158 0.650498 -0.741336
v 0.149286 0.636300 -0.750513
v 0.000000 0.714444 -0.698166
v -0.095581 0.723399 -0.677841
v 0.023438 0.707107 -0.704798
v 0.000000 0.714444 -0.698166
v 0.023438 0.707107 -0.704798
v 0.256645 0.515596 -0.809067
v 0.243841 0.542524 -0.797983
v 0.237544 0.555570 -0.792641
v 0.168936 0.491088 -0.849297
v 0.003354 0.421350 -0.902882
v 0.021042 0.428456 -0.897341
v -0.230494 0.651504 -0.712902
v -0.239459 0.602544 -0.751969
v 0.149286 0.636300 -0.750513
v -0.095581 0.723399 -0.677841
v 0.124158 0.650498 -0.741336
v -0.219381 0.707107 -0.668818
v -0.180798 0.555570 -0.809855
v -0.133259 0.726837 -0.669940
v -0.215677 0.715812 -0.658911
v -0.150644 0.724587 -0.667518
v -0.163578 0.542465 -0.822363
vt 1.000000 1.000000
vt 0.000000 0.000000
vt 1.000000 0.000000
vt 1.000000 0.000000
vt 0.000000 0.000000
vt 1.000000 0.684855
vt 0.000000 0.000000
vt 0.303747 0.000000
vt 0.373917 0.057217
vt 0.653885 0.000000
vt 1.000000 0.000000
vt 0.684855 0.684855
vt 1.000000 0.539415
vt 1.000000 1.000000
vt 0.352750 0.352750
vt 1.000000 0.614668
vt 0.539415 0.539415
vt 0.566446 0.533516
vt 0.906516 0.587530
vt 0.709896 0.000000
vt 0.614668 0.614668
vt 0.624951 0.291718
vt 0.635740 0.226934
vt 1.000000 1.000000
vt 0.587008 0.587008
vt 1.000000 0.159343
vt 0.159343 0.159343
vt 0.306055 0.276477
vt 1.000000 0.862638
vt 1.000000 0.862089
vt 0.862638 0.862638
vt 0.866780 0.000000
vt 0.913746 0.615568
vt 1.000000 0.587008
vt 0.709896 0.709896
vt 1.000000 0.696253
vt 1.000000 1.000000
vt 0.866780 0.866780
vt 0.851867 0.682099
vt 1.000000 0.352750
vt 0.653885 0.653885
vt 0.750000 0.750000
vt 0.750000 0.753687
vt 0.744691 0.750000
vt 0.718750 0.687500
vt 0.750000 0.687500
vt 0.723577 0.726652
vt 0.718750 0.720796
vt 0.750000 0.639821
vt 0.718750 0.664189
vt 0.746225 0.641547
vt 0.703657 0.687500
vt 0.702801 0.682784
vt 0.701107 0.673049
vt 0.781250 0.750000
vt 0.800434 0.750000
vt 0.800310 0.754375
vt 0.785417 0.758785
vt 0.781250 0.759916
vt 0.799149 0.708303
vt 0.799777 0.727067
vt 0.781250 0.687500
vt 0.784974 0.687500
vt 0.781250 0.682763
vt 0.772215 0.758188
vn -0.2068 -0.7261 0.6558
vn -0.2662 -0.7616 0.5908
vn -0.5443 -0.8302 0.1204
vn 0.4502 -0.6189 -0.6436
vn 0.1746 -0.3027 0.9370
vn 0.1726 -0.3008 0.9379
vn 0.1713 -0.3007 0.9382
vn 0.1646 -0.2978 0.9403
vn -0.8089 -0.2574 0.5286
vn -0.8153 -0.2626 0.5162
vn -0.8074 -0.3189 0.4964
vn 0.1696 -0.2994 0.9389
vn -0.5459 -0.8292 0.1197
vn 0.4656 -0.5997 -0.6508
vn 0.0000 0.7040 -0.7101
vn -0.0129 0.7729 -0.6343
vn 0.0739 0.6563 -0.7508
vn 0.1626 0.5528 -0.8173
vn -0.0005 0.5520 -0.8338
vn 0.0759 0.6326 -0.7708
vn 0.1098 0.6338 -0.7656
vn 0.0130 0.4700 -0.8825
vn 0.1529 0.4713 -0.8686
vn 0.0865 0.4696 -0.8786
vn 0.2466 0.5275 -0.8130
vn 0.2563 0.4696 -0.8448
vn -0.1385 0.7040 -0.6965
vn -0.2058 0.7050 -0.6786
vn -0.1847 0.7715 -0.6088
vn -0.1225 0.7730 -0.6225
vn -0.2248 0.6326 -0.7411
vn -0.1625 0.5520 -0.8178
vn -0.2320 0.6008 -0.7649
vn -0.1358 0.4689 -0.8727
vn -0.0623 0.7715 -0.6331
usemtl None
s off
f 4/1/1 3/2/1 6/3/1
f 7/4/2 4/1/2 6/5/2
f 35/6/3 4/1/3 7/7/3 43/8/3 10/9/3
f 36/10/4 3/11/4 4/1/4 35/12/4
f 32/13/5 3/14/5 31/15/5
f 41/16/6 3/14/6 32/17/6 33/18/6 39/19/6
f 40/20/7 6/3/7 3/14/7 41/21/7 30/22/7 29/23/7
f 6/24/8 46/25/8 45/26/8
f 6/24/9 45/27/9 17/28/9 37/29/9
f 38/30/10 6/24/10 37/31/10
f 38/32/11 7/4/11 6/24/11
f 19/33/12 46/34/12 6/24/12 40/35/12
f 43/36/13 7/37/13 38/38/13
f 15/39/14 31/40/14 3/14/14 36/41/14
s 1
f 1/42/15 26/43/16 28/44/17
f 5/45/18 2/46/19 1/42/15 28/44/17 24/47/20 25/48/21
f 11/49/22 2/46/19 5/45/18 34/50/23 16/51/24
f 14/52/25 5/45/18 25/48/21
f 5/45/18 14/52/25 13/53/26 12/54/26 34/50/23
f 8/55/27 42/56/28 18/57/29 20/58/29 44/59/30
f 22/60/31 21/61/31 42/56/28 8/55/27 9/62/32 23/63/33
f 23/63/33 9/62/32 47/64/34
f 26/43/16 1/42/15 8/55/27 44/59/30 27/65/35
f 9/62/32 8/55/27 1/42/15 2/46/19
f 47/64/34 9/62/32 2/46/19 11/49/22
