# Blender v3.0.0 OBJ File: 'Sphere_Cell_Fracture.blend'
# www.blender.org
mtllib Sphere_Cell_Fracture3.mtl
v -0.058573 -0.704214 0.092264
v -0.318526 -0.618379 -0.031658
v -0.485357 -0.718510 -0.072975
v -0.471488 -0.708092 -0.069903
v -0.077162 -0.695201 0.182556
v -0.075857 -0.695503 0.173700
v -0.280215 -0.621465 0.232988
v -0.409052 -0.575702 0.227161
v -0.493258 -0.717393 -0.066309
v -0.212608 -0.923880 0.318190
v -0.108386 -0.980785 0.162212
v -0.270598 -0.923880 0.270598
v -0.137950 -0.980785 0.137950
v -0.587938 -0.707107 0.392847
v -0.461940 -0.831470 0.308658
v -0.318190 -0.923880 0.212608
v -0.653281 -0.707107 0.270598
v -0.513280 -0.831470 0.212607
v -0.353553 -0.923880 0.146447
v -0.544895 -0.831470 0.108386
v -0.375330 -0.923880 0.074658
v -0.555570 -0.831470 0.000000
v -0.510355 -0.852996 -0.050181
v -0.514803 -0.850815 -0.046448
v -0.554495 -0.831470 -0.010913
v -0.612502 -0.781439 0.040931
v -0.566699 -0.822336 0.000000
v -0.622752 -0.772283 0.050133
v -0.649716 -0.748190 0.074428
v -0.667329 -0.688579 0.276417
v -0.667862 -0.707107 0.222530
v -0.660843 -0.734450 0.131450
v -0.096542 -0.982885 0.144486
v -0.114093 -0.982326 0.137384
v -0.072754 -0.983165 0.153997
v -0.415713 -0.906225 0.000000
v -0.380910 -0.923880 0.018010
v -0.293850 -0.949081 0.058450
v -0.130706 -0.981794 0.130706
v -0.150497 -0.980785 0.122660
v -0.221087 -0.967374 0.091577
v -0.170601 -0.977724 0.113992
v -0.651596 -0.645252 0.380920
v -0.650566 -0.643245 0.386322
v -0.635421 -0.655075 0.394162
v -0.076342 -0.981476 0.171422
v -0.081814 -0.975113 0.197516
v -0.103871 -0.942426 0.302886
v -0.077840 -0.980785 0.178539
v -0.197730 -0.920917 0.332396
v -0.189770 -0.923880 0.330397
v -0.128921 -0.937772 0.311242
v -0.623482 -0.667430 0.395091
v -0.597782 -0.694306 0.396609
v -0.593880 -0.698398 0.396818
v -0.404978 -0.831470 0.378066
v -0.584633 -0.707107 0.396874
v -0.371433 -0.847657 0.371433
v -0.226929 -0.910101 0.339624
v -0.514803 -0.850815 -0.046448
v -0.554495 -0.831470 -0.010913
v -0.612502 -0.781439 0.040931
v -0.566699 -0.822336 0.000000
v -0.622752 -0.772283 0.050133
v -0.649716 -0.748190 0.074428
v -0.667329 -0.688579 0.276417
v -0.667862 -0.707107 0.222530
v -0.660843 -0.734450 0.131450
v -0.510355 -0.852996 -0.050181
v -0.415713 -0.906225 0.000000
v -0.380910 -0.923880 0.018010
v -0.293850 -0.949081 0.058450
v -0.114093 -0.982326 0.137384
v -0.130706 -0.981794 0.130706
v -0.150497 -0.980785 0.122660
v -0.221087 -0.967374 0.091577
v -0.170601 -0.977724 0.113992
v -0.651596 -0.645252 0.380920
v -0.650566 -0.643245 0.386322
v -0.635421 -0.655075 0.394162
v -0.072754 -0.983165 0.153997
v -0.076342 -0.981476 0.171422
v -0.081814 -0.975113 0.197516
v -0.077840 -0.980785 0.178539
v -0.197730 -0.920917 0.332396
v -0.189770 -0.923880 0.330397
v -0.103871 -0.942426 0.302886
v -0.128921 -0.937772 0.311242
v -0.623482 -0.667430 0.395091
v -0.597782 -0.694306 0.396609
v -0.593880 -0.698398 0.396818
v -0.404978 -0.831470 0.378066
v -0.371433 -0.847657 0.371433
v -0.226929 -0.910101 0.339624
v -0.096542 -0.982885 0.144486
v -0.584633 -0.707107 0.396874
vt 0.000000 0.000000
vt 1.000000 0.000000
vt 1.000000 1.000000
vt 0.000000 0.000000
vt 1.000000 0.000000
vt 0.593927 0.593927
vt 0.598493 0.000000
vt 1.000000 0.000000
vt 1.000000 1.000000
vt 0.000000 0.000000
vt 0.000000 0.000000
vt 1.000000 0.780280
vt 0.598493 0.598493
vt 0.732483 0.646098
vt 0.784179 0.670194
vt 1.000000 0.767508
vt 0.780280 0.780280
vt 1.000000 0.711390
vt 0.767508 0.767508
vt 1.000000 1.000000
vt 0.156559 0.156559
vt 0.192440 0.157777
vt 0.235605 0.160097
vt 0.281742 0.167174
vt 0.400599 0.191121
vt 0.575700 0.233457
vt 0.788931 0.291793
vt 0.882699 0.332685
vt 1.000000 0.593927
vt 1.000000 0.000000
vt 0.000000 0.000000
vt 0.806991 0.000000
vt 0.918595 0.090052
vt 1.000000 0.156559
vt 0.000000 0.000000
vt 1.000000 0.000000
vt 1.000000 1.000000
vt 0.000000 0.000000
vt 0.411691 0.411691
vt 1.000000 0.228843
vt 0.228843 0.228843
vt 0.196404 0.000000
vt 1.000000 0.000000
vt 1.000000 0.000000
vt 1.000000 1.000000
vt 1.000000 0.193010
vt 0.000000 0.000000
vt 0.807135 0.000000
vt 0.805153 0.767154
vt 0.807135 0.807135
vt 0.696414 0.000000
vt 0.789070 0.650553
vt 0.696414 0.696414
vt 0.636659 0.000000
vt 0.644933 0.063083
vt 0.683526 0.514387
vt 1.000000 1.000000
vt 0.196404 0.196404
vt 1.000000 0.365623
vt 0.365623 0.365623
vt 0.300395 0.000000
vt 0.393680 0.046958
vt 0.363341 0.000000
vt 1.000000 0.699605
vt 0.988486 0.691431
vt 0.963990 0.672772
vt 0.614402 0.342388
vt 0.568948 0.285744
vt 1.000000 0.411691
vt 1.000000 0.000000
vt 0.711390 0.711390
vt 0.671086 0.543756
vt 0.622475 0.265560
vt 0.600586 0.096424
vt 0.197477 0.104630
vt 0.187500 0.109742
vt 0.187500 0.068730
vt 0.156250 0.125000
vt 0.167037 0.125000
vt 0.164542 0.127004
vt 0.156250 0.134319
vt 0.156250 0.062500
vt 0.184552 0.062500
vt 0.157957 0.055670
vt 0.178763 0.054761
vt 0.182890 0.060252
vt 0.125000 0.125000
vt 0.125000 0.062500
vt 0.125820 0.059218
vt 0.139776 0.057487
vt 0.154543 0.055670
vt 0.125000 0.176552
vt 0.094924 0.250000
vt 0.093750 0.253592
vt 0.093750 0.250000
vt 0.093750 0.187500
vt 0.119513 0.187500
vt 0.093750 0.125000
vt 0.093750 0.065862
vt 0.108838 0.062500
vt 0.124180 0.059218
vt 0.084201 0.275512
vt 0.062500 0.257642
vt 0.062500 0.250000
vt 0.093244 0.255280
vt 0.089926 0.266364
vt 0.088387 0.271460
vt 0.085289 0.276339
vt 0.062500 0.187500
vt 0.062500 0.125000
vt 0.062500 0.077230
vt 0.051176 0.250000
vt 0.031250 0.187500
vt 0.031250 0.236259
vt 0.031250 0.125000
vt 0.031250 0.097321
vt 0.000000 0.192090
vt 0.000000 0.187500
vt 0.018128 0.229353
vt 0.012787 0.217245
vt 0.010608 0.212644
vt 0.000000 0.136941
vt 0.007538 0.125000
vt 1.000000 0.187500
vt 1.000000 0.192090
vt 0.996853 0.187500
vt 0.984401 0.172941
vt 1.000000 0.136941
vt 0.985657 0.174416
vn -0.3977 0.7032 -0.5894
vn 0.3275 -0.1614 -0.9310
vn -0.6456 -0.0094 -0.7636
vn -0.4274 0.8560 -0.2907
vn -0.4164 0.8489 -0.3256
vn -0.6678 -0.0030 -0.7443
vn -0.6684 -0.0008 -0.7438
vn -0.6689 0.0010 -0.7434
vn 0.3575 -0.2205 -0.9075
vn 0.3304 0.9430 -0.0399
vn 0.3600 -0.2190 -0.9069
vn 0.3354 0.9418 -0.0199
vn 0.3339 0.9421 -0.0299
vn -0.4091 0.8781 -0.2481
vn 0.2274 0.7233 0.6520
vn 0.7437 0.6628 0.0869
vn 0.9793 -0.0051 0.2021
vn 0.9784 -0.0052 0.2064
vn 0.3554 0.3777 0.8550
vn 0.3454 0.9383 0.0189
vn 0.3472 0.3993 0.8485
vn 0.3516 0.3844 0.8536
vn 0.3524 0.3796 0.8554
vn -0.4292 0.8554 -0.2899
vn -0.0846 -0.9565 0.2790
vn -0.1233 -0.9568 0.2631
vn -0.1344 -0.9566 0.2584
vn -0.2155 -0.9217 0.3225
vn -0.1599 -0.9406 0.2993
vn -0.2230 -0.8809 0.4173
vn -0.2835 -0.8816 0.3773
vn -0.1116 -0.9796 0.1671
vn -0.1005 -0.9770 0.1880
vn -0.0534 -0.9952 0.0822
vn -0.0464 -0.9951 0.0868
vn -0.2743 -0.9217 0.2743
vn -0.1421 -0.9796 0.1421
vn -0.0675 -0.9952 0.0710
vn -0.0625 -0.9951 0.0761
vn -0.3551 -0.8815 0.3112
vn -0.5312 -0.7264 0.4360
vn -0.6726 -0.6334 0.3826
vn -0.5904 -0.7040 0.3945
vn -0.4654 -0.8286 0.3110
vn -0.4121 -0.8460 0.3382
vn -0.3225 -0.9217 0.2155
vn -0.2354 -0.9569 0.1702
vn -0.2022 -0.9651 0.1659
vn -0.6830 -0.6326 0.3651
vn -0.7051 -0.6342 0.3172
vn -0.6561 -0.7040 0.2717
vn -0.5171 -0.8286 0.2142
vn -0.3583 -0.9217 0.1484
vn -0.2627 -0.9568 0.1241
vn -0.6287 -0.7539 0.1907
vn -0.5490 -0.8286 0.1092
vn -0.6188 -0.7729 0.1404
vn -0.3804 -0.9217 0.0757
vn -0.2812 -0.9568 0.0738
vn -0.6339 -0.7725 0.0379
vn -0.5598 -0.8286 0.0000
vn -0.6331 -0.7715 0.0623
vn -0.4711 -0.8814 0.0336
vn -0.4120 -0.9103 0.0406
vn -0.5170 -0.8545 -0.0509
vn -0.4709 -0.8809 -0.0464
usemtl None
s off
f 9/1/1 4/2/1 3/3/1
f 4/4/2 2/5/2 3/3/2
f 3/3/3 69/6/3 60/7/3 9/8/3
f 9/9/4 8/10/4 2/5/4
f 2/11/5 4/2/5 9/9/5
f 62/12/6 9/9/6 60/13/6 61/14/6 63/15/6
f 64/16/7 9/9/7 62/17/7
f 65/18/8 9/9/8 64/19/8
f 2/20/9 73/21/9 74/22/9 75/23/9 77/24/9 76/25/9 72/26/9 71/27/9 70/28/9 69/29/9 3/3/9
f 8/10/10 1/30/10 2/20/10
f 2/20/11 1/31/11 81/32/11 33/33/11 73/34/11
f 7/35/12 6/36/12 8/37/12
f 6/38/13 1/30/13 8/37/13
f 43/39/14 79/40/14 8/37/14
f 8/37/15 79/41/15 80/42/15 7/43/15
f 6/38/16 5/44/16 1/45/16
f 81/46/17 1/45/17 5/47/17 82/48/17
f 84/49/18 82/50/18 5/47/18 87/51/18 83/52/18
f 87/53/19 5/47/19 85/54/19 86/55/19 88/56/19
f 5/47/20 6/36/20 7/57/20
f 80/58/21 89/59/21 7/57/21
f 7/57/22 89/60/22 90/61/22 5/44/22
f 94/62/23 85/63/23 5/44/23 90/64/23 91/65/23 57/66/23 56/67/23 93/68/23
f 43/69/24 8/70/24 9/9/24 65/71/24 32/72/24 31/73/24 30/74/24
s 1
f 48/75/25 52/76/26 47/77/27
f 10/78/28 51/79/29 50/80/30 59/81/31
f 10/78/28 11/82/32 49/83/33 47/77/27 52/76/26 51/79/29
f 11/82/32 95/84/34 35/85/35 46/86/35 49/83/33
f 11/82/32 10/78/28 12/87/36 13/88/37
f 11/82/32 13/88/37 39/89/38 34/90/39 95/91/34
f 58/92/40 12/87/36 10/78/28 59/81/31
f 96/93/41 55/94/42 14/95/43
f 14/95/43 15/96/44 92/97/45 96/93/41
f 15/96/44 16/98/46 12/87/36 58/92/40 92/97/45
f 13/88/37 12/87/36 16/98/46 42/99/47 40/100/48
f 13/88/37 40/100/48 39/101/38
f 78/102/49 66/103/50 17/104/51 14/95/43 55/94/42 54/105/49 53/106/49 45/107/49 44/108/49
f 15/96/44 14/95/43 17/104/51 18/109/52
f 16/98/46 15/96/44 18/109/52 19/110/53
f 42/99/47 16/98/46 19/110/53 41/111/54
f 67/112/55 17/104/51 66/103/50
f 20/113/56 18/109/52 17/104/51 67/112/55 68/114/57
f 19/110/53 18/109/52 20/113/56 21/115/58
f 41/111/54 19/110/53 21/115/58 38/116/59
f 27/117/60 22/118/61 20/113/56 68/114/57 29/119/62 28/120/62 26/121/62
f 21/115/58 20/113/56 22/118/61 36/122/63 37/123/64
f 21/115/58 37/123/64 38/116/59
f 22/124/61 27/125/60 25/126/65
f 23/127/66 36/128/63 22/124/61 25/126/65 24/129/66
