# Blender v3.0.0 OBJ File: 'Sphere_Cell_Fracture.blend'
# www.blender.org
mtllib Sphere_Cell_Fracture57.mtl
v 0.897479 0.146733 0.243877
v 0.867751 0.133680 0.284832
v 0.855652 -0.029725 0.370841
v 0.906127 0.195090 0.375330
v 0.923879 -0.000000 0.382683
v 0.847536 -0.012561 0.522899
v 0.873050 -0.077974 0.461566
v 0.908530 -0.168690 0.376325
v 0.910208 -0.172899 0.369369
v 0.853402 0.087108 0.496425
v 0.860559 0.195090 0.460582
v 0.862762 0.218500 0.441469
v 0.847977 -0.000000 0.524686
v 0.934638 -0.106400 0.311289
v 0.972029 0.113317 0.170677
v 0.976038 0.049144 0.194146
v 0.973678 -0.000000 0.218520
v 0.947440 0.201766 0.232196
v 0.920412 0.213482 0.309112
v 0.902608 0.221055 0.359929
v 0.898359 0.222810 0.372112
v 0.970578 0.122512 0.176208
v 0.951458 0.195090 0.225897
v 0.966388 0.149040 0.192227
v 0.847536 -0.012561 0.522899
v 0.873050 -0.077974 0.461566
v 0.908530 -0.168690 0.376325
v 0.853402 0.087108 0.496425
v 0.860559 0.195090 0.460582
v 0.847977 -0.000000 0.524686
v 0.972029 0.113317 0.170677
v 0.976038 0.049144 0.194146
v 0.934638 -0.106400 0.311289
v 0.973678 -0.000000 0.218520
v 0.920412 0.213482 0.309112
v 0.902608 0.221055 0.359929
v 0.862762 0.218500 0.441469
v 0.898359 0.222810 0.372112
v 0.947440 0.201766 0.232196
v 0.951458 0.195090 0.225897
v 0.970578 0.122512 0.176208
v 0.966388 0.149040 0.192227
v 0.910208 -0.172899 0.369369
vt 0.000000 0.000000
vt 0.601131 0.000000
vt 0.697830 0.143408
vt 0.730608 0.258826
vt 0.543681 0.000000
vt 1.000000 0.504816
vt 1.000000 1.000000
vt 1.000000 0.000000
vt 1.000000 0.406999
vt 0.637100 0.085261
vt 0.567479 0.000000
vt 0.406999 0.406999
vt 0.000000 0.000000
vt 1.000000 0.000000
vt 1.000000 0.350464
vt 0.928608 0.368735
vt 1.000000 0.000000
vt 1.000000 0.150752
vt 0.673415 0.000000
vt 0.150752 0.150752
vt 1.000000 0.191681
vt 0.226950 0.171810
vt 0.191681 0.191681
vt 0.432521 0.000000
vt 0.520951 0.520951
vt 1.000000 0.398869
vt 1.000000 1.000000
vt 1.000000 0.520951
vt 0.673415 0.673415
vt 0.697799 0.647027
vt 0.885314 0.548705
vt 0.000000 0.000000
vt 0.495184 0.000000
vt 0.484167 0.016190
vt 1.000000 0.213634
vt 0.649536 0.000000
vt 0.468750 0.547747
vt 0.468750 0.515744
vt 0.472350 0.536303
vt 0.471427 0.539248
vt 0.437500 0.571735
vt 0.437500 0.562500
vt 0.462881 0.562500
vt 0.461721 0.564724
vt 0.448457 0.568628
vt 0.439638 0.571150
vt 0.437500 0.500000
vt 0.464847 0.500000
vt 0.468750 0.515744
vt 0.437500 0.445958
vt 0.438648 0.444609
vt 0.448843 0.465913
vt 0.411832 0.500000
vt 0.412043 0.495976
vt 0.422596 0.475020
vt 0.424710 0.570299
vt 0.421789 0.562500
vt 0.416165 0.527906
vn -0.7338 -0.2734 -0.6220
vn -0.9972 0.0471 -0.0573
vn -0.9974 0.0433 -0.0581
vn -0.7354 -0.2722 -0.6206
vn -0.7300 0.5892 -0.3463
vn -0.7321 0.5878 -0.3441
vn -0.7350 0.5862 -0.3408
vn -0.5684 0.3564 -0.7416
vn -0.5677 0.3580 -0.7414
vn -0.9345 -0.3557 -0.0100
vn 0.9621 0.0978 0.2544
vn 0.9583 0.0977 0.2683
vn 0.9904 0.0975 0.0975
vn 0.8831 0.2903 0.3686
vn 0.9063 0.1939 0.3754
vn 0.9465 0.1470 0.2871
vn 0.9161 0.2890 0.2779
vn 0.9239 0.0000 0.3827
vn 0.9561 0.0415 0.2900
vn 0.9354 -0.0979 0.3396
vn 0.9524 -0.0975 0.2889
vn 0.8819 -0.0070 0.4714
vn 0.8777 -0.0975 0.4691
vn 0.8443 0.2890 0.4513
vn 0.8703 0.1619 0.4652
vn 0.8777 0.0975 0.4691
usemtl None
s off
f 1/1/1 31/2/1 32/3/1 34/4/1 33/5/1 43/6/1 3/7/1
f 2/8/2 28/9/2 29/10/2 37/11/2
f 28/12/3 2/13/3 3/14/3 25/15/3 30/16/3
f 2/13/4 1/17/4 3/7/4
f 1/17/5 35/18/5 39/19/5
f 35/20/6 1/1/6 2/8/6 36/21/6
f 38/22/7 36/23/7 2/13/7 37/24/7
f 41/25/8 31/26/8 1/27/8
f 41/28/9 1/27/9 39/29/9 40/30/9 42/31/9
f 3/32/10 43/33/10 8/34/10 7/35/10 25/36/10
s 1
f 24/37/11 16/38/12 15/39/13 22/40/13
f 21/41/14 4/42/15 23/43/16 18/44/17 19/45/17 20/46/17
f 23/43/16 4/42/15 5/47/18 17/48/19 16/49/12 24/37/11
f 5/47/18 27/50/20 9/51/21 14/52/21 17/48/19
f 5/47/18 13/53/22 6/54/23 26/55/23 27/50/20
f 4/42/15 21/41/14 12/56/24 11/57/25
f 5/47/18 4/42/15 11/57/25 10/58/26 13/53/22
