# Blender v3.0.0 OBJ File: 'Sphere_Cell_Fracture.blend'
# www.blender.org
mtllib Sphere_Cell_Fracture55.mtl
v -0.426291 0.351541 -0.513340
v -0.455355 -0.054431 -0.530146
v -0.406293 0.102363 -0.472047
v -0.843197 0.454675 -0.185388
v -0.536220 0.338909 -0.081684
v -0.464417 -0.070468 -0.518880
v -0.961112 -0.073731 -0.212692
v -0.817526 0.115719 -0.068746
v -0.743656 0.307424 -0.016720
v -0.445720 0.083445 -0.308553
v -0.530093 0.233720 -0.053593
v -0.548623 0.276564 -0.003232
v -0.465877 0.026597 -0.317578
v -0.490365 0.045142 -0.264038
v -0.569660 0.274230 0.002823
v -0.853553 0.382683 -0.353553
v -0.906127 0.195090 -0.375330
v -0.923879 -0.000000 -0.382683
v -0.768178 0.382683 -0.513280
v -0.815493 0.195090 -0.544895
v -0.831469 -0.000000 -0.555570
v -0.653281 0.382683 -0.653281
v -0.693519 0.195090 -0.693520
v -0.707106 -0.000000 -0.707106
v -0.743278 -0.207928 -0.626779
v -0.798759 -0.195090 -0.565285
v -0.963273 -0.080642 -0.225588
v -0.911286 -0.138396 -0.377467
v -0.815865 -0.190549 -0.545143
v -0.965865 -0.077748 -0.218021
v -0.966947 -0.025035 -0.232252
v -0.890750 0.382683 -0.230931
v -0.942862 0.195090 -0.254232
v -0.967446 -0.000000 -0.239061
v -0.730374 0.453077 -0.500319
v -0.633346 0.435428 -0.633346
v -0.563931 0.419670 -0.701157
v -0.855582 0.460969 -0.203409
v -0.823196 0.462279 -0.307771
v -0.814090 0.462596 -0.337207
v -0.736408 0.454167 -0.492052
v -0.738797 -0.201395 -0.635348
v -0.736811 -0.195090 -0.640769
v -0.576655 0.382683 -0.716167
v -0.615340 0.195090 -0.757680
v -0.633436 -0.000000 -0.767565
v -0.699196 -0.113574 -0.699197
v -0.730374 0.453077 -0.500319
v -0.736408 0.454167 -0.492052
v -0.743278 -0.207928 -0.626779
v -0.738797 -0.201395 -0.635348
v -0.963273 -0.080642 -0.225588
v -0.911286 -0.138396 -0.377467
v -0.798759 -0.195090 -0.565285
v -0.815865 -0.190549 -0.545143
v -0.965865 -0.077748 -0.218021
v -0.966947 -0.025035 -0.232252
v -0.615340 0.195090 -0.757680
v -0.633436 -0.000000 -0.767565
v -0.890750 0.382683 -0.230931
v -0.942862 0.195090 -0.254232
v -0.967446 -0.000000 -0.239061
v -0.633346 0.435428 -0.633346
v -0.855582 0.460969 -0.203409
v -0.823196 0.462279 -0.307771
v -0.814090 0.462596 -0.337207
v -0.736811 -0.195090 -0.640769
v -0.563931 0.419670 -0.701157
v -0.576655 0.382683 -0.716167
v -0.699196 -0.113574 -0.699197
vt 0.000000 0.000000
vt 0.478117 0.000000
vt 0.486637 0.415859
vt 0.522789 0.419816
vt 0.392094 0.392094
vt 0.000000 0.000000
vt 0.024198 0.024198
vt 0.000000 0.000000
vt 0.053292 0.000000
vt 0.053292 0.053292
vt 1.000000 0.000000
vt 1.000000 0.728207
vt 0.000000 0.000000
vt 1.000000 0.000000
vt 1.000000 1.000000
vt 1.000000 1.000000
vt 0.487372 0.487372
vt 0.392094 0.000000
vt 0.445950 0.185097
vt 0.059825 0.059825
vt 0.000000 0.000000
vt 1.000000 0.000000
vt 1.000000 0.558324
vt 0.626356 0.555717
vt 0.558324 0.558324
vt 0.000000 0.000000
vt 1.000000 0.000000
vt 1.000000 0.487372
vt 0.981243 0.493739
vt 1.000000 0.000000
vt 1.000000 0.059824
vt 0.479808 0.064696
vt 0.649720 0.389785
vt 0.729842 0.693479
vt 0.728207 0.728207
vt 0.000000 0.000000
vt 0.509449 0.000000
vt 0.511616 0.016998
vt 0.511447 0.216837
vt 0.478117 0.478117
vt 0.509449 0.509449
vt 1.000000 0.000000
vt 1.000000 0.505867
vt 1.000000 0.000000
vt 1.000000 1.000000
vt 0.000000 0.000000
vt 1.000000 1.000000
vt 0.000000 0.000000
vt 1.000000 0.000000
vt 1.000000 0.000000
vt 0.000000 0.000000
vt 0.000000 0.000000
vt 1.000000 0.024198
vt 0.848998 0.279472
vt 0.608137 0.546702
vt 0.980505 0.569537
vt 0.475882 0.475882
vt 0.000000 0.000000
vt 1.000000 1.000000
vt 1.000000 0.000000
vt 0.000000 0.000000
vt 1.000000 0.000000
vt 1.000000 1.000000
vt 0.000000 0.000000
vt 1.000000 0.000000
vt 1.000000 0.000000
vt 0.000000 0.000000
vt 1.000000 0.000000
vt 1.000000 1.000000
vt 1.000000 0.000000
vt 1.000000 1.000000
vt 1.000000 1.000000
vt 0.963366 0.474165
vt 0.964647 0.475092
vt 0.962457 0.491980
vt 0.961425 0.500000
vt 0.937500 0.500000
vt 0.937500 0.455663
vt 0.937500 0.625000
vt 0.959610 0.625000
vt 0.962828 0.653301
vt 0.943080 0.653775
vt 0.937500 0.653889
vt 0.937500 0.562500
vt 0.958068 0.562500
vt 0.906250 0.625000
vt 0.906250 0.650842
vt 0.906250 0.562500
vt 0.906250 0.500000
vt 0.906250 0.438955
vt 0.888511 0.433223
vt 0.901963 0.437500
vt 0.886091 0.437500
vt 0.886974 0.435399
vt 0.875000 0.625000
vt 0.904395 0.650448
vt 0.875000 0.644068
vt 0.875000 0.562500
vt 0.875000 0.500000
vt 0.875000 0.463615
vt 0.857896 0.625000
vt 0.858562 0.562500
vt 0.859808 0.500000
vt 0.857816 0.638371
vn 0.7990 -0.0351 -0.6003
vn 0.2614 -0.8683 0.4215
vn -0.7902 0.1446 0.5956
vn 0.9609 0.1223 0.2484
vn 0.3190 0.9416 0.1078
vn 0.3178 0.9417 0.1105
vn 0.3190 0.9415 0.1088
vn -0.7909 0.1460 0.5943
vn 0.5362 -0.6410 -0.5492
vn 0.5330 -0.7160 -0.4508
vn 0.9059 -0.3789 0.1893
vn 0.8015 -0.3600 0.4774
vn 0.7829 -0.3826 0.4906
vn 0.2650 -0.8672 0.4216
vn 0.2650 -0.8677 0.4205
vn 0.2496 -0.6986 0.6705
vn -0.7872 0.1404 0.6005
vn -0.1479 -0.2056 0.9674
vn 0.0768 0.7731 0.6296
vn 0.9614 0.1195 0.2477
vn 0.9622 0.1179 0.2457
vn 0.8060 -0.0332 -0.5909
vn 0.0811 0.7757 0.6258
vn 0.0953 0.7719 0.6285
vn 0.2507 -0.6970 0.6719
vn 0.2712 -0.6816 0.6796
vn 0.2498 -0.6950 0.6742
vn 0.9177 -0.3540 0.1804
vn -0.9524 -0.0975 -0.2889
vn -0.9569 -0.0107 -0.2903
vn -0.9239 0.0000 -0.3827
vn -0.9118 -0.0980 -0.3988
vn -0.8544 0.3805 -0.3539
vn -0.8823 0.3871 -0.2676
vn -0.8448 0.4696 -0.2563
vn -0.8152 0.4714 -0.3364
vn -0.9063 0.1939 -0.3754
vn -0.9391 0.1921 -0.2849
vn -0.7689 0.3805 -0.5137
vn -0.7359 0.4714 -0.4859
vn -0.8157 0.1939 -0.5450
vn -0.8314 0.0000 -0.5556
vn -0.8196 -0.0980 -0.5644
vn -0.7400 -0.2890 -0.6073
vn -0.7685 -0.1075 -0.6307
vn -0.7641 -0.1516 -0.6271
vn -0.6539 0.3805 -0.6539
vn -0.6825 0.4696 -0.5601
vn -0.6294 0.4714 -0.6177
vn -0.6937 0.1939 -0.6937
vn -0.7071 0.0000 -0.7071
vn -0.7411 -0.0978 -0.6642
vn -0.5863 0.3819 -0.7144
vn -0.6221 0.1960 -0.7580
vn -0.6341 0.0287 -0.7727
vn -0.5601 0.4696 -0.6825
usemtl None
s off
f 2/1/1 59/2/1 58/3/1 69/4/1 68/5/1 1/6/1
f 52/7/2 7/8/2 56/9/2
f 56/10/3 7/8/3 9/11/3 57/12/3
f 12/13/4 11/14/4 1/15/4 5/16/4
f 48/17/5 1/6/5 68/18/5 63/19/5
f 64/20/6 4/21/6 5/22/6 65/23/6
f 66/24/7 65/25/7 5/26/7 1/27/7 48/28/7 49/29/7
f 4/30/8 64/31/8 60/32/8 61/33/8 62/34/8 57/35/8 9/36/8
f 2/1/9 51/37/9 67/38/9 70/39/9 59/40/9
f 51/41/10 2/1/10 6/42/10 50/43/10
f 2/1/11 13/44/11 6/45/11
f 10/46/12 11/14/12 13/47/12
f 11/48/13 14/49/13 13/47/13
f 7/50/14 13/47/14 14/51/14
f 13/52/15 7/50/15 52/53/15 53/54/15 55/55/15 54/56/15 50/57/15 6/58/15
f 7/59/16 14/51/16 8/60/16
f 9/11/17 7/59/17 8/61/17
f 8/61/18 15/62/18 9/63/18
f 4/30/19 9/63/19 15/64/19
f 11/48/20 10/65/20 1/15/20
f 10/46/21 3/66/21 1/15/21
f 3/67/22 2/68/22 1/15/22
f 4/69/23 15/64/23 5/22/23
f 15/64/24 12/70/24 5/16/24
f 8/61/25 14/49/25 11/71/25
f 12/13/26 15/62/26 11/71/26
f 15/64/27 8/60/27 11/71/27
f 3/67/28 10/65/28 13/47/28 2/72/28
s 1
f 27/73/29 30/74/29 31/75/29 34/76/30 18/77/31 28/78/32
f 16/79/33 32/80/34 38/81/35 39/82/35 40/83/36
f 32/80/34 16/79/33 17/84/37 33/85/38
f 33/85/38 17/84/37 18/77/31 34/76/30
f 19/86/39 16/79/33 40/83/36 41/87/40
f 17/84/37 16/79/33 19/86/39 20/88/41
f 18/77/31 17/84/37 20/88/41 21/89/42
f 28/78/32 18/77/31 21/89/42 29/90/43
f 25/91/44 26/92/45 43/93/46 42/94/44
f 22/95/47 19/86/39 41/87/40 35/96/48 36/97/49
f 20/88/41 19/86/39 22/95/47 23/98/50
f 21/89/42 20/88/41 23/98/50 24/99/51
f 43/93/46 26/92/45 29/90/43 21/89/42 24/99/51 47/100/52
f 23/98/50 22/95/47 44/101/53 45/102/54
f 24/99/51 23/98/50 45/102/54 46/103/55
f 24/99/51 46/103/55 47/100/52
f 37/104/56 44/101/53 22/95/47 36/97/49
