# Blender v3.0.0 OBJ File: 'Sphere_Cell_Fracture.blend'
# www.blender.org
mtllib Sphere_Cell_Fracture29.mtl
v 0.225211 0.187027 0.734845
v 0.229216 0.336594 0.657973
v 0.066088 -0.025543 0.715114
v -0.148572 -0.086303 0.565058
v -0.308450 -0.098670 0.435832
v -0.376850 -0.076826 0.364906
v 0.203752 0.438442 0.580744
v -0.018767 0.668893 0.266642
v -0.180570 0.625825 0.151536
v -0.321640 0.530879 0.082420
v -0.472457 0.145371 0.162080
v -0.525899 0.283716 0.042110
v 0.309277 0.089311 -0.017846
v 0.314609 0.303126 -0.119550
v 0.316458 0.277638 -0.122474
v 0.238136 0.422824 0.553459
v 0.287978 0.521310 0.071588
v 0.292388 0.505040 0.038772
v 0.148585 -0.085640 0.114135
v 0.297410 0.067654 -0.033650
v 0.129595 -0.094850 0.169324
v -0.315625 -0.052743 0.214097
v 0.292153 0.200553 -0.125838
v -0.520720 0.283932 0.031004
v 0.293411 0.193984 -0.122536
v -0.521889 0.267593 0.042439
v -0.525774 0.279960 0.034980
v -0.203307 -0.113834 0.449420
v -0.367901 0.448044 0.019953
v 0.093727 0.628513 0.143375
v 0.275237 0.532208 0.061459
vt 0.000000 0.000000
vt 1.000000 0.000000
vt 1.000000 1.000000
vt 0.000000 0.000000
vt 1.000000 0.000000
vt 0.000000 0.000000
vt 1.000000 0.000000
vt 0.000000 0.000000
vt 1.000000 0.000000
vt 0.000000 0.000000
vt 1.000000 0.000000
vt 1.000000 1.000000
vt 0.000000 0.000000
vt 0.000000 0.000000
vt 0.000000 0.000000
vt 1.000000 0.000000
vt 0.000000 0.000000
vt 1.000000 0.000000
vt 1.000000 0.000000
vt 1.000000 1.000000
vt 0.000000 0.000000
vt 1.000000 0.000000
vt 1.000000 1.000000
vt 0.000000 0.000000
vt 0.000000 0.000000
vt 1.000000 0.000000
vt 0.000000 0.000000
vt 0.000000 0.000000
vt 1.000000 0.000000
vt 1.000000 1.000000
vt 0.000000 0.000000
vt 1.000000 0.000000
vt 0.000000 0.000000
vt 1.000000 0.000000
vt 1.000000 0.000000
vt 1.000000 1.000000
vt 1.000000 0.000000
vt 1.000000 1.000000
vt 0.000000 0.000000
vt 1.000000 0.000000
vt 1.000000 1.000000
vt 1.000000 0.000000
vt 0.000000 0.000000
vt 1.000000 0.000000
vt 0.000000 0.000000
vt 1.000000 0.000000
vt 0.000000 0.000000
vt 1.000000 0.000000
vt 1.000000 0.000000
vt 1.000000 1.000000
vt 0.000000 0.000000
vt 1.000000 0.000000
vt 1.000000 1.000000
vt 0.000000 0.000000
vt 1.000000 0.000000
vt 0.000000 0.000000
vt 1.000000 1.000000
vt 0.000000 0.000000
vt 1.000000 0.000000
vt 0.000000 0.000000
vt 1.000000 0.000000
vt 1.000000 1.000000
vt 0.000000 0.000000
vt 1.000000 0.000000
vt 0.000000 0.000000
vt 1.000000 0.000000
vt 1.000000 1.000000
vt 0.000000 0.000000
vt 1.000000 1.000000
vt 1.000000 1.000000
vt 1.000000 0.000000
vt 1.000000 1.000000
vt 0.000000 0.000000
vt 1.000000 1.000000
vt 1.000000 1.000000
vt 1.000000 1.000000
vt 1.000000 0.000000
vt 1.000000 1.000000
vt 0.000000 0.000000
vt 1.000000 1.000000
vt 1.000000 0.000000
vn -0.9652 -0.2378 0.1084
vn -0.9593 -0.2354 0.1559
vn -0.6851 0.3078 0.6602
vn -0.6061 0.3766 0.7005
vn -0.6008 0.3816 0.7024
vn -0.5994 0.3813 0.7038
vn -0.7052 0.6344 -0.3165
vn -0.7297 0.5996 -0.3286
vn -0.2132 -0.5422 -0.8127
vn -0.2129 -0.5528 -0.8057
vn -0.2124 -0.5643 -0.7978
vn -0.6746 -0.6356 -0.3754
vn -0.7511 -0.5913 -0.2937
vn -0.6011 0.3822 0.7018
vn -0.1112 -0.9738 -0.1981
vn -0.1163 -0.9752 -0.1882
vn -0.1745 -0.9361 0.3054
vn -0.6001 0.3752 0.7065
vn 0.9935 0.0297 0.1095
vn -0.0190 0.9449 -0.3269
vn -0.5956 0.3855 0.7048
vn 0.5334 0.8164 0.2211
vn 0.5308 0.8199 0.2144
vn 0.5323 0.8180 0.2178
vn -0.0294 0.6181 -0.7855
vn -0.0299 0.6170 -0.7864
vn -0.0302 0.6147 -0.7882
vn -0.0313 0.6129 -0.7896
vn -0.7041 0.6342 -0.3195
vn -0.1787 0.1005 -0.9788
vn -0.1122 -0.9731 -0.2010
vn -0.2135 -0.4710 -0.8559
vn 0.7186 -0.1975 -0.6668
vn 0.8888 -0.2446 -0.3876
vn -0.2071 -0.5673 -0.7970
vn -0.2117 -0.5652 -0.7973
vn 0.7829 -0.5994 0.1667
vn 0.7817 -0.6007 0.1674
vn 0.7793 -0.6039 0.1674
vn 0.1769 -0.9736 0.1442
vn 0.1697 -0.9738 0.1515
vn -0.5953 0.3799 0.7081
vn 0.6575 0.5527 0.5121
vn -0.0095 0.6374 -0.7705
vn 0.5436 0.8095 0.2217
vn 0.7298 0.6465 -0.2224
vn 0.9928 0.0439 0.1117
vn 0.9963 0.0659 0.0558
vn 0.9937 0.0281 0.1087
vn 0.9939 0.0222 0.1081
vn 0.9038 -0.2336 -0.3585
vn 0.8100 -0.5632 0.1636
vn -0.1787 0.0991 -0.9789
usemtl None
s off
f 27/1/1 26/2/1 12/3/1
f 26/4/2 11/5/2 12/3/2
f 11/6/3 6/7/3 12/3/3
f 6/8/4 5/9/4 12/3/4
f 12/3/5 5/10/5 8/11/5
f 8/11/6 5/12/6 3/13/6 2/14/6
f 10/15/7 24/16/7 12/3/7
f 24/17/8 27/18/8 12/3/8
f 24/17/9 25/19/9 27/20/9
f 25/21/10 26/2/10 27/20/10
f 25/21/11 22/22/11 26/23/11
f 22/24/12 6/7/12 26/23/12
f 6/8/13 11/5/13 26/23/13
f 9/25/14 10/26/14 12/3/14 8/27/14
f 21/28/15 28/29/15 6/30/15
f 28/31/16 5/9/16 6/30/16
f 28/31/17 4/32/17 5/12/17
f 4/33/18 3/34/18 5/12/18
f 1/35/19 18/36/19 16/37/19 2/38/19
f 30/39/20 9/40/20 8/41/20
f 7/42/21 8/41/21 2/14/21
f 7/43/22 17/44/22 8/41/22
f 17/45/23 31/46/23 8/41/23
f 31/47/24 30/48/24 8/41/24
f 30/39/25 18/49/25 9/50/25
f 18/51/26 10/26/26 9/50/26
f 18/51/27 14/52/27 10/53/27
f 14/54/28 29/55/28 10/53/28
f 29/56/29 24/16/29 10/53/29
f 29/56/30 14/52/30 24/57/30
f 19/58/31 21/59/31 6/30/31 22/24/31
f 23/60/32 25/19/32 24/57/32
f 23/60/33 15/61/33 25/62/33
f 15/63/34 20/64/34 25/62/34
f 20/65/35 19/66/35 25/62/35
f 19/58/36 22/22/36 25/62/36
f 20/65/37 1/35/37 19/67/37
f 1/68/38 3/34/38 19/67/38
f 3/13/39 21/59/39 19/67/39
f 3/13/40 28/29/40 21/69/40
f 3/13/41 4/32/41 28/70/41
f 1/68/42 2/71/42 3/72/42
f 16/73/43 7/42/43 2/38/43
f 31/47/44 18/49/44 30/74/44
f 16/73/45 17/44/45 7/75/45
f 18/51/46 31/46/46 17/76/46
f 16/73/47 18/49/47 17/76/47
f 15/63/48 14/52/48 18/36/48
f 1/68/49 15/61/49 18/36/49
f 1/68/50 13/77/50 15/78/50
f 13/79/51 20/64/51 15/78/51
f 13/79/52 1/35/52 20/80/52
f 15/63/53 23/81/53 24/57/53 14/54/53
