# Blender v3.0.0 OBJ File: 'Sphere_Cell_Fracture.blend'
# www.blender.org
mtllib Sphere_Cell_Fracture37.mtl
v 0.381219 -0.584132 0.631861
v 0.143460 -0.367919 0.767761
v -0.003442 -0.266986 0.907154
v 0.375348 -0.596804 0.624522
v 0.149257 -0.713680 0.609625
v 0.189063 -0.665998 0.606060
v 0.207174 -0.632818 0.609490
v 0.270598 -0.707107 0.653281
v 0.162212 -0.555570 0.815493
v 0.137950 -0.707107 0.693520
v -0.000000 -0.382683 0.923880
v -0.000000 -0.555570 0.831469
v 0.032729 -0.728329 0.678024
v 0.105413 -0.753085 0.640700
v 0.125430 -0.759771 0.630582
v 0.153383 -0.764791 0.615741
v 0.206273 -0.751726 0.616252
v -0.029059 -0.646795 0.753741
v -0.009559 -0.685138 0.724194
v 0.000000 -0.703746 0.709865
v 0.002352 -0.707107 0.706875
v -0.082639 -0.315969 0.935978
v -0.009197 -0.286976 0.952006
v -0.000000 -0.297197 0.949811
v 0.071592 -0.369532 0.920818
v -0.095692 -0.382683 0.914455
v -0.090243 -0.429280 0.890085
v -0.075225 -0.555570 0.824060
v 0.330215 -0.710765 0.616385
v 0.322420 -0.713781 0.616405
v 0.255473 -0.739543 0.616767
v 0.288683 -0.555570 0.777128
v 0.385249 -0.616048 0.676326
v 0.171991 -0.461786 0.864658
v 0.343229 -0.702938 0.618320
v 0.312820 -0.572668 0.755214
v 0.084590 -0.382683 0.915548
v 0.338111 -0.707107 0.617195
v 0.032729 -0.728329 0.678024
v 0.105413 -0.753085 0.640700
v 0.125430 -0.759771 0.630582
v -0.029059 -0.646795 0.753741
v -0.009559 -0.685138 0.724194
v 0.000000 -0.703746 0.709865
v 0.002352 -0.707107 0.706875
v -0.082639 -0.315969 0.935978
v -0.009197 -0.286976 0.952006
v -0.000000 -0.297197 0.949811
v 0.071592 -0.369532 0.920818
v -0.095692 -0.382683 0.914455
v -0.090243 -0.429280 0.890085
v -0.075225 -0.555570 0.824060
v 0.330215 -0.710765 0.616385
v 0.322420 -0.713781 0.616405
v 0.255473 -0.739543 0.616767
v 0.288683 -0.555570 0.777128
v 0.171991 -0.461786 0.864658
v 0.385249 -0.616048 0.676326
v 0.343229 -0.702938 0.618320
v 0.312820 -0.572668 0.755214
v 0.084590 -0.382683 0.915548
v 0.338111 -0.707107 0.617195
v 0.206273 -0.751726 0.616252
v 0.153383 -0.764791 0.615741
vt 0.639385 0.000000
vt 1.000000 0.000000
vt 1.000000 0.245122
vt 0.245122 0.245122
vt 0.000000 0.000000
vt 0.398560 0.000000
vt 0.323003 0.143591
vt 0.351015 0.000000
vt 0.398560 0.398560
vt 0.672592 0.000000
vt 1.000000 0.260168
vt 0.360615 0.000000
vt 0.335209 0.134307
vt 0.325051 0.153919
vt 0.260168 0.260168
vt 0.313890 0.313890
vt 0.000000 0.000000
vt 0.202069 0.000000
vt 0.979082 0.287429
vt 0.819839 0.000000
vt 1.000000 0.000000
vt 1.000000 0.313890
vt 1.000000 0.000000
vt 1.000000 0.433720
vt 0.655729 0.349974
vt 0.202069 0.202069
vt 0.433720 0.433720
vt 0.000000 0.000000
vt 1.000000 0.327408
vt 0.784890 0.409883
vt 1.000000 1.000000
vt 0.000000 0.000000
vt 1.000000 0.000000
vt 0.000000 0.000000
vt 0.936675 0.000000
vt 1.000000 0.091014
vt 0.091014 0.091014
vt 0.645580 0.407334
vt 1.000000 0.648984
vt 1.000000 0.000000
vt 0.083710 0.000000
vt 1.000000 0.000000
vt 1.000000 0.126633
vt 0.126633 0.126633
vt 0.000000 0.000000
vt 1.000000 0.180161
vt 0.977887 0.190946
vt 0.784439 0.222134
vt 0.469446 0.211391
vt 0.393259 0.198980
vt 1.000000 1.000000
vt 1.000000 1.000000
vt 1.000000 0.000000
vt 0.000000 0.000000
vt 1.000000 1.000000
vt 1.000000 0.063325
vt 1.000000 1.000000
vt 0.915003 0.000000
vt 0.951960 0.022277
vt 0.915004 0.915004
vt 0.329758 0.250000
vt 0.312500 0.250000
vt 0.312500 0.233699
vt 0.326715 0.246646
vt 0.328275 0.248161
vt 0.330651 0.251720
vt 0.332384 0.287556
vt 0.312500 0.305448
vt 0.281250 0.346404
vt 0.281250 0.312500
vt 0.306588 0.312500
vt 0.281250 0.250000
vt 0.281250 0.223533
vt 0.288878 0.221010
vt 0.301371 0.227576
vt 0.250000 0.403481
vt 0.250000 0.375000
vt 0.264666 0.375000
vt 0.262353 0.379382
vt 0.250000 0.312500
vt 0.250533 0.250000
vt 0.250000 0.251386
vt 0.257767 0.239335
vt 0.275904 0.226893
vt 0.248454 0.406887
vt 0.235983 0.397227
vt 0.233409 0.375000
vt 0.235508 0.312500
vt 0.233922 0.358155
vt 0.243876 0.274875
vt 0.247935 0.259061
vn -0.4888 -0.1358 -0.8618
vn -0.4840 -0.1424 -0.8634
vn 0.0382 -0.1157 -0.9926
vn -0.5058 0.3503 -0.7884
vn -0.5068 0.3473 -0.7890
vn -0.4079 0.8523 0.3275
vn 0.7318 0.5826 0.3536
vn -0.5050 0.3529 -0.7877
vn -0.5049 0.3520 -0.7881
vn -0.4915 0.3507 -0.7972
vn 0.0388 -0.1067 -0.9935
vn 0.0388 -0.1148 -0.9926
vn -0.4963 0.3542 -0.7926
vn 0.9247 -0.2645 -0.2737
vn 0.7324 0.5828 0.3520
vn 0.7318 0.5872 0.3460
vn -0.0272 0.5104 -0.8595
vn -0.0316 0.5070 -0.8613
vn 0.0758 0.0615 -0.9952
vn 0.0878 0.0365 -0.9955
vn 0.9220 -0.2624 -0.2845
vn 0.3503 -0.6690 0.6554
vn 0.2717 -0.7040 0.6561
vn 0.2242 -0.7729 0.5936
vn 0.2999 -0.7715 0.5611
vn 0.3651 -0.6326 0.6830
vn 0.2701 -0.6341 0.7245
vn 0.1334 -0.4710 0.8719
vn 0.1626 -0.5528 0.8173
vn 0.2321 -0.6004 0.7652
vn 0.1385 -0.7040 0.6965
vn 0.1380 -0.7729 0.6193
vn 0.1847 -0.7715 0.6088
vn -0.0497 -0.2899 0.9557
vn 0.0000 -0.3805 0.9247
vn 0.0887 -0.4257 0.9005
vn 0.0938 -0.2890 0.9527
vn 0.0000 -0.5528 0.8333
vn 0.0725 -0.6729 0.7362
vn 0.0566 -0.6334 0.7718
vn 0.0623 -0.7715 0.6331
vn -0.0938 -0.2890 0.9527
vn -0.0904 -0.3861 0.9180
vn -0.0823 -0.5429 0.8357
vn -0.0865 -0.4696 0.8786
vn -0.0759 -0.6326 0.7708
usemtl None
s off
f 39/1/1 5/2/1 40/3/1
f 40/4/2 5/5/2 64/6/2 41/7/2
f 5/5/3 63/8/3 64/9/3
f 42/10/4 5/2/4 43/11/4
f 39/12/5 45/13/5 44/14/5 43/15/5 5/5/5
f 47/16/6 3/17/6 46/18/6
f 48/19/7 49/20/7 3/21/7 47/22/7
f 3/17/8 2/23/8 51/24/8 50/25/8 46/26/8
f 51/27/9 2/28/9 5/2/9 42/29/9 52/30/9
f 5/31/10 7/32/10 6/33/10
f 6/34/11 53/35/11 54/36/11 5/31/11
f 5/31/12 54/37/12 55/38/12 63/39/12
f 2/28/13 7/40/13 5/31/13
f 59/41/14 1/42/14 58/43/14
f 58/44/15 1/45/15 3/21/15 49/46/15 61/47/15 57/48/15 32/49/15 60/50/15
f 2/23/16 3/51/16 1/45/16
f 2/52/17 1/45/17 4/53/17
f 2/52/18 4/54/18 7/40/18
f 7/55/19 4/54/19 6/33/19
f 53/56/20 6/57/20 4/54/20 59/58/20 62/59/20
f 59/60/21 4/54/21 1/42/21
s 1
f 38/61/22 8/62/23 31/63/24 30/64/25 29/65/25
f 38/61/22 35/66/26 33/67/26 36/68/27 8/62/23
f 34/69/28 9/70/29 56/71/30
f 9/70/29 10/72/31 8/62/23 36/68/27 56/71/30
f 8/62/23 10/72/31 15/73/32 16/74/33 17/75/33 31/63/24
f 24/76/34 11/77/35 37/78/36 25/79/37
f 11/77/35 12/80/38 9/70/29 34/69/28 37/78/36
f 21/81/39 10/72/31 9/70/29 12/80/38 20/82/40
f 10/72/31 21/81/39 13/83/41 14/84/41 15/73/32
f 23/85/42 22/86/42 26/87/43 11/77/35 24/76/34
f 28/88/44 12/80/38 11/77/35 26/87/43 27/89/45
f 12/80/38 28/88/44 18/90/46 19/91/46 20/82/40
