# Blender v3.0.0 OBJ File: 'Sphere_Cell_Fracture.blend'
# www.blender.org
mtllib Sphere_Cell_Fracture61.mtl
v -0.128164 -0.032309 -0.766617
v -0.019773 -0.124848 -0.815380
v -0.455089 -0.055722 -0.530808
v -0.389208 -0.193897 -0.536960
v -0.029215 -0.335590 -0.748072
v -0.463460 -0.071638 -0.520595
v -0.693519 -0.195090 -0.693520
v -0.555569 -0.000000 -0.831469
v -0.544895 -0.195090 -0.815493
v -0.375330 -0.195090 -0.906127
v -0.353553 -0.382683 -0.853553
v -0.191341 -0.195090 -0.961939
v -0.180240 -0.382683 -0.906127
v 0.000000 -0.382683 -0.923879
v -0.699040 -0.115820 -0.699040
v -0.735531 -0.195090 -0.642328
v -0.516913 -0.361122 -0.773616
v -0.632136 -0.000000 -0.768632
v -0.442307 -0.382683 -0.806113
v -0.555121 0.008194 -0.830798
v -0.348731 -0.406260 -0.841910
v -0.213439 -0.425424 -0.872298
v -0.672550 -0.292851 -0.672550
v -0.704747 -0.272627 -0.642942
v -0.708214 -0.270409 -0.639773
v -0.739861 -0.209407 -0.630239
v -0.736816 -0.199182 -0.638816
v -0.430090 0.012248 -0.897178
v -0.417874 -0.000000 -0.905068
v -0.355774 -0.048289 -0.927095
v -0.444993 0.012070 -0.889232
v -0.381523 -0.030761 -0.921080
v -0.191998 -0.160901 -0.965242
v -0.128143 -0.195090 -0.968164
v 0.000000 -0.254533 -0.962753
v 0.009714 -0.257791 -0.960808
v 0.000487 -0.437474 -0.894545
v -0.175221 -0.430811 -0.880897
v 0.003758 -0.398710 -0.914943
v 0.006246 -0.351554 -0.932707
v 0.005054 -0.382683 -0.923382
v 0.000000 -0.254533 -0.962753
v 0.009714 -0.257791 -0.960808
v -0.699040 -0.115820 -0.699040
v -0.735531 -0.195090 -0.642328
v -0.632136 -0.000000 -0.768632
v -0.516913 -0.361122 -0.773616
v -0.442307 -0.382683 -0.806113
v -0.348731 -0.406260 -0.841910
v -0.213439 -0.425424 -0.872298
v -0.672550 -0.292851 -0.672550
v -0.704747 -0.272627 -0.642942
v -0.708214 -0.270409 -0.639773
v -0.555121 0.008194 -0.830798
v -0.444993 0.012070 -0.889232
v -0.417874 -0.000000 -0.905068
v -0.381523 -0.030761 -0.921080
v -0.355774 -0.048289 -0.927095
v -0.191998 -0.160901 -0.965242
v -0.128143 -0.195090 -0.968164
v -0.175221 -0.430811 -0.880897
v 0.003758 -0.398710 -0.914943
v 0.005054 -0.382683 -0.923382
v -0.430090 0.012248 -0.897178
v 0.000487 -0.437474 -0.894545
v -0.736816 -0.199182 -0.638816
v 0.006246 -0.351554 -0.932707
v -0.739861 -0.209407 -0.630239
vt 0.000000 0.000000
vt 1.000000 0.000000
vt 1.000000 1.000000
vt 0.000000 0.000000
vt 0.477210 0.477210
vt 0.000000 0.000000
vt 0.517947 0.000000
vt 0.000000 0.000000
vt 1.000000 0.473224
vt 0.469571 0.469571
vt 0.475324 0.464146
vt 0.473224 0.473224
vt 0.000000 0.000000
vt 0.478095 0.003673
vt 0.489206 0.280657
vt 1.000000 0.485757
vt 0.516282 0.000000
vt 1.000000 0.000000
vt 0.485757 0.485757
vt 0.000000 0.000000
vt 1.000000 0.000000
vt 1.000000 0.475408
vt 0.828104 0.485478
vt 0.475408 0.475408
vt 0.620933 0.000000
vt 0.629193 0.013399
vt 0.651724 0.184712
vt 0.638969 0.268569
vt 0.477210 0.000000
vt 0.428588 0.138870
vt 0.809405 0.270758
vt 0.684088 0.208838
vt 0.533787 0.128377
vt 0.346099 0.000000
vt 1.000000 0.000000
vt 0.510292 0.000000
vt 1.000000 0.482053
vt 1.000000 1.000000
vt 0.763855 0.278901
vt 1.000000 0.523559
vt 0.457587 0.000000
vt 0.483718 0.000000
vt 0.457587 0.457587
vt 1.000000 1.000000
vt 0.760359 0.000000
vt 1.000000 0.205590
vt 0.205589 0.205589
vt 0.520825 0.258553
vt 1.000000 0.358217
vt 1.000000 0.000000
vt 1.000000 0.653901
vt 0.864800 0.615011
vt 0.239641 0.000000
vt 0.358217 0.358217
vt 1.000000 0.379067
vt 0.750000 0.355182
vt 0.750000 0.375000
vt 0.749124 0.375000
vt 0.749330 0.369206
vt 0.750000 0.417696
vt 0.748375 0.416610
vt 0.748938 0.385371
vt 0.887350 0.433693
vt 0.886335 0.436137
vt 0.885764 0.437500
vt 0.875000 0.437500
vt 0.875000 0.404929
vt 0.882320 0.411667
vt 0.883100 0.412406
vt 0.875000 0.462895
vt 0.858958 0.500526
vt 0.843750 0.502625
vt 0.843750 0.500000
vt 0.843750 0.437500
vt 0.859540 0.500000
vt 0.843750 0.382183
vt 0.829864 0.375000
vt 0.812500 0.375000
vt 0.812500 0.366477
vt 0.821167 0.503924
vt 0.818861 0.500000
vt 0.823861 0.503867
vt 0.812500 0.437500
vt 0.812500 0.490145
vt 0.781250 0.437500
vt 0.808294 0.484530
vt 0.781250 0.448453
vt 0.781250 0.375000
vt 0.781250 0.357601
vt 0.788244 0.359549
vt 0.770928 0.437500
vn 0.5579 0.2300 0.7974
vn 0.0086 -0.8148 0.5797
vn -0.5366 0.6343 0.5565
vn -0.5367 0.6402 0.5496
vn 0.3587 0.7314 -0.5799
vn 0.3598 0.7286 -0.5829
vn 0.3605 0.7237 -0.5885
vn 0.0124 -0.8197 0.5726
vn 0.5501 0.2265 0.8038
vn -0.2365 -0.2686 0.9338
vn 0.5577 0.2336 0.7965
vn 0.0626 0.9802 0.1880
vn 0.0749 0.9839 0.1625
vn 0.9820 0.0160 0.1880
vn 0.9827 0.0175 0.1841
vn 0.0134 -0.8196 0.5728
vn 0.9830 0.0183 0.1825
vn -0.0777 -0.4706 -0.8789
vn -0.0002 -0.3807 -0.9247
vn 0.0906 -0.3801 -0.9205
vn 0.0865 -0.4696 -0.8786
vn -0.0231 -0.2902 -0.9567
vn 0.0938 -0.2890 -0.9527
vn -0.7400 -0.2890 -0.6073
vn -0.7510 -0.2366 -0.6164
vn -0.6937 -0.1939 -0.6937
vn -0.6588 -0.2902 -0.6941
vn -0.6639 -0.0978 -0.7414
vn -0.6318 -0.0907 -0.7698
vn -0.5499 0.0980 -0.8294
vn -0.5556 0.0000 -0.8314
vn -0.5450 -0.1939 -0.8157
vn -0.5154 -0.2902 -0.8063
vn -0.4490 -0.3046 -0.8400
vn -0.3539 -0.3805 -0.8544
vn -0.3267 -0.4714 -0.8191
vn -0.4691 0.0975 -0.8777
vn -0.4707 -0.0546 -0.8806
vn -0.3754 -0.1939 -0.9063
vn -0.4160 -0.0979 -0.9041
vn -0.1914 -0.1939 -0.9622
vn -0.2889 -0.0975 -0.9524
vn -0.2264 -0.0979 -0.9691
vn -0.1803 -0.3807 -0.9069
vn -0.1665 -0.4717 -0.8659
vn -0.2563 -0.4696 -0.8448
vn -0.0946 -0.2599 -0.9610
usemtl None
s off
f 2/1/1 3/2/1 4/3/1 5/4/1
f 52/5/2 4/6/2 53/7/2
f 6/8/3 3/2/3 66/9/3 68/10/3
f 45/11/4 66/12/4 3/13/4 46/14/4 15/15/4
f 56/16/5 64/17/5 1/18/5
f 56/19/6 1/20/6 2/21/6 58/22/6 57/23/6
f 58/24/7 2/1/7 43/25/7 42/26/7 60/27/7 59/28/7
f 4/6/8 52/29/8 51/30/8 47/31/8 48/32/8 49/33/8 50/34/8
f 3/13/9 6/35/9 4/3/9
f 6/8/10 68/36/10 53/37/10 4/3/10
f 2/1/11 1/18/11 3/38/11
f 54/39/12 46/40/12 3/38/12 1/20/12 55/41/12
f 64/42/13 55/43/13 1/20/13
f 2/44/14 5/4/14 65/45/14 62/46/14
f 2/44/15 62/47/15 63/48/15 67/49/15
f 5/4/16 4/50/16 50/51/16 61/52/16 65/53/16
f 67/54/17 43/55/17 2/44/17
s 1
f 37/56/18 14/57/19 41/58/20 39/59/21
f 14/57/19 35/60/22 36/61/23 40/62/23 41/58/20
f 26/63/24 27/64/24 16/65/25 7/66/26 23/67/27 24/68/24 25/69/24
f 7/66/26 16/65/25 44/70/28
f 18/71/29 20/72/30 8/73/31
f 8/73/31 9/74/32 7/66/26 44/70/28 18/75/29
f 7/66/26 9/74/32 17/76/33 23/67/27
f 19/77/34 11/78/35 21/79/36
f 28/80/37 29/81/38 8/73/31 20/72/30 31/82/37
f 10/83/39 9/74/32 8/73/31 29/81/38 32/84/40
f 9/74/32 10/83/39 11/78/35 19/77/34 17/76/33
f 12/85/41 10/83/39 32/84/40 30/86/42 33/87/43
f 11/78/35 10/83/39 12/85/41 13/88/44
f 11/78/35 13/88/44 38/89/45 22/90/46 21/79/36
f 13/88/44 14/57/19 37/56/18 38/89/45
f 34/91/47 12/85/41 33/87/43
f 14/57/19 13/88/44 12/85/41 34/91/47 35/60/22
