# Blender v3.0.0 OBJ File: 'Sphere_Cell_Fracture.blend'
# www.blender.org
mtllib Sphere_Cell_Fracture53.mtl
v 0.077173 0.943992 -0.279865
v 0.062775 0.942356 -0.315593
v 0.058510 0.940781 -0.321205
v 0.059360 0.947666 -0.298424
v 0.061255 0.955646 -0.270491
v 0.086302 0.950298 -0.281226
v 0.062775 0.942356 -0.315593
v 0.058510 0.940781 -0.321205
v 0.059360 0.947666 -0.298424
v 0.061255 0.955646 -0.270491
v 0.086302 0.950298 -0.281226
vt 0.945408 0.000000
vt 1.000000 0.000000
vt 1.000000 0.122141
vt 0.989727 0.103504
vt 0.119105 0.067800
vt 0.122141 0.122141
vt 0.000000 0.000000
vt 0.109576 0.000000
vt 0.109576 0.109576
vt 0.073114 0.000000
vt 0.718750 0.901125
vt 0.718750 0.895293
vt 0.721375 0.893563
vt 0.703796 0.903422
vt 0.714555 0.909889
vn 0.5407 -0.8217 -0.1802
vn -0.4586 -0.8458 0.2727
vn 0.3274 -0.2790 0.9028
vn 0.0806 0.9566 -0.2798
vn 0.0427 0.9568 -0.2874
vn 0.0286 0.9565 -0.2901
vn 0.0846 0.9565 -0.2790
usemtl None
s off
f 11/1/1 1/2/1 8/3/1 7/4/1
f 9/5/2 8/6/2 1/7/2 10/8/2
f 10/9/3 1/7/3 11/10/3
s 1
f 4/11/4 2/12/5 3/13/6
f 6/14/7 2/12/5 4/11/4 5/15/7
