# Blender v3.0.0 OBJ File: 'Sphere_Cell_Fracture.blend'
# www.blender.org
mtllib Sphere_Cell_Fracture11.mtl
v -0.321146 0.801117 0.305827
v -0.664134 0.459496 0.300399
v -0.378943 0.658017 -0.182502
v -0.403173 0.504585 -0.123199
v -0.842472 0.456556 -0.183981
v -0.535606 0.340843 -0.081162
v -0.291679 0.738059 -0.001146
v -0.273837 0.640464 0.133025
v -0.369461 0.449121 0.018667
v -0.322499 0.532395 0.082094
v -0.743399 0.309275 -0.015947
v -0.548224 0.277288 -0.000901
v -0.568241 0.274885 0.004128
v -0.522619 0.283621 0.030334
v -0.532549 0.278447 0.022109
v -0.526592 0.285182 0.042352
v -0.527507 0.280546 0.033941
v -0.531201 0.279377 0.028583
v -0.353553 0.923880 0.146447
v -0.513280 0.831470 0.212607
v -0.375330 0.923880 0.074658
v -0.544895 0.831470 0.108386
v -0.693520 0.707107 0.137950
v -0.815493 0.555570 0.162212
v -0.382683 0.923880 0.000000
v -0.555570 0.831470 -0.000000
v -0.707107 0.707107 0.000000
v -0.831469 0.555570 0.000000
v -0.544895 0.831470 -0.108386
v -0.693520 0.707107 -0.137950
v -0.815493 0.555570 -0.162212
v -0.513280 0.831470 -0.212607
v -0.885076 0.429368 0.140619
v -0.873865 0.444225 0.173823
v -0.871121 0.446323 0.179020
v -0.883067 0.459038 0.000000
v -0.863806 0.469431 -0.139154
v -0.834683 0.474327 0.247827
v -0.780666 0.569624 0.237477
v -0.792535 0.555570 0.237892
v -0.664590 0.707107 0.233320
v -0.342280 0.892624 0.274985
v -0.494254 0.831470 0.248202
v -0.396187 0.873739 0.264724
v -0.579045 0.773051 0.239848
v -0.859336 0.471939 -0.170932
v -0.853702 0.470653 -0.191858
v -0.808570 0.540357 -0.212908
v -0.798767 0.555570 -0.217350
v -0.658390 0.707107 -0.253755
v -0.481409 0.831470 -0.272234
v -0.623380 0.733668 -0.258212
v -0.343021 0.933873 0.068231
v -0.340860 0.936350 0.007263
v -0.344666 0.926798 0.142765
v -0.343851 0.907383 0.229754
v -0.344855 0.923880 0.162720
v -0.344952 0.935325 0.000000
v -0.376937 0.923880 -0.058338
v -0.386440 0.917825 -0.076868
v -0.437665 0.875216 -0.181287
v -0.481409 0.831470 -0.272234
v -0.437665 0.875216 -0.181287
v -0.883067 0.459038 0.000000
v -0.863806 0.469431 -0.139154
v -0.834683 0.474327 0.247827
v -0.792535 0.555570 0.237892
v -0.342280 0.892624 0.274985
v -0.396187 0.873739 0.264724
v -0.343851 0.907383 0.229754
v -0.344855 0.923880 0.162720
v -0.808570 0.540357 -0.212908
v -0.798767 0.555570 -0.217350
v -0.873865 0.444225 0.173823
v -0.885076 0.429368 0.140619
v -0.859336 0.471939 -0.170932
v -0.853702 0.470653 -0.191858
v -0.386440 0.917825 -0.076868
v -0.871121 0.446323 0.179020
v -0.340860 0.936350 0.007263
v -0.344952 0.935325 0.000000
v -0.780666 0.569624 0.237477
v -0.664590 0.707107 0.233320
v -0.494254 0.831470 0.248202
v -0.579045 0.773051 0.239848
v -0.658390 0.707107 -0.253755
v -0.623380 0.733668 -0.258212
v -0.343021 0.933873 0.068231
v -0.376937 0.923880 -0.058338
v -0.344666 0.926798 0.142765
vt 0.197042 0.197042
vt 0.314046 0.000000
vt 1.000000 0.000000
vt 1.000000 1.000000
vt 0.000000 0.000000
vt 1.000000 0.000000
vt 0.000000 0.000000
vt 1.000000 0.000000
vt 0.000000 0.000000
vt 1.000000 0.000000
vt 0.000000 0.000000
vt 1.000000 0.000000
vt 0.000000 0.000000
vt 1.000000 0.000000
vt 1.000000 0.197042
vt 0.000000 0.000000
vt 0.813418 0.000000
vt 0.606708 0.000000
vt 1.000000 0.685954
vt 0.787601 0.361390
vt 1.000000 0.000000
vt 1.000000 0.596730
vt 0.813418 0.813418
vt 0.596730 0.596730
vt 0.000000 0.000000
vt 1.000000 0.000000
vt 1.000000 0.730797
vt 0.952172 0.723584
vt 0.805003 0.520200
vt 0.730797 0.730797
vt 0.000000 0.000000
vt 0.368243 0.000000
vt 0.481070 0.083009
vt 0.660401 0.236622
vt 0.743806 0.376637
vt 1.000000 0.000000
vt 1.000000 1.000000
vt 0.606708 0.606708
vt 0.797793 0.252429
vt 0.945765 0.000000
vt 0.000000 0.000000
vt 1.000000 1.000000
vt 1.000000 0.468884
vt 0.054235 0.000000
vt 1.000000 0.631757
vt 1.000000 1.000000
vt 0.000000 0.000000
vt 0.000000 0.000000
vt 0.635829 0.000000
vt 0.788005 0.200700
vt 0.961516 0.446624
vt 0.515313 0.506579
vt 0.808202 0.572601
vt 0.000000 0.000000
vt 1.000000 0.000000
vt 0.000000 0.000000
vt 1.000000 0.000000
vt 0.000000 0.000000
vt 1.000000 0.000000
vt 1.000000 1.000000
vt 0.000000 0.000000
vt 0.000000 0.000000
vt 1.000000 1.000000
vt 1.000000 0.000000
vt 1.000000 1.000000
vt 0.000000 0.000000
vt 0.933586 0.393998
vt 0.854028 0.314586
vt 0.556782 0.000000
vt 1.000000 0.000000
vt 0.468884 0.468884
vt 0.472158 0.420318
vt 1.000000 1.000000
vt 1.000000 0.000000
vt 1.000000 1.000000
vt 1.000000 1.000000
vt 1.000000 0.000000
vt 1.000000 1.000000
vt 1.000000 0.000000
vt 1.000000 1.000000
vt 0.980267 0.321629
vt 0.357043 0.040570
vt 0.364171 0.000000
vt 0.556782 0.556782
vt 0.731570 0.446009
vt 0.941188 0.337111
vt 0.093750 0.863843
vt 0.093750 0.841088
vt 0.107706 0.853861
vt 0.062500 0.875000
vt 0.070186 0.875000
vt 0.062500 0.878205
vt 0.062500 0.812500
vt 0.074081 0.812500
vt 0.062500 0.783141
vt 0.053718 0.750000
vt 0.031250 0.750000
vt 0.031250 0.687500
vt 0.046412 0.687500
vt 0.046998 0.693297
vt 0.031250 0.647248
vt 0.032270 0.648006
vt 0.045937 0.658130
vt 0.031250 0.885975
vt 0.031250 0.875000
vt 0.031250 0.812500
vt 0.000000 0.887571
vt 0.000000 0.875000
vt 0.003478 0.888696
vt 0.000000 0.812500
vt 0.000000 0.750000
vt 0.000000 0.687500
vt 0.025026 0.641877
vt 0.000000 0.652603
vt 1.000000 0.687500
vt 1.000000 0.750000
vt 0.968750 0.750000
vt 0.968750 0.687500
vt 0.968750 0.657267
vt 0.974596 0.656360
vt 1.000000 0.652603
vt 0.975581 0.875000
vt 1.000000 0.875000
vt 1.000000 0.887571
vt 0.968750 0.812500
vt 1.000000 0.812500
vt 0.968750 0.870905
vt 0.937500 0.812500
vt 0.937500 0.842088
vt 0.941468 0.750000
vt 0.937500 0.763349
vt 0.957703 0.687500
vt 0.964804 0.656802
vt 0.959032 0.682001
vt 0.918101 0.812500
vn -0.2215 -0.8602 0.4594
vn -0.0798 -0.7735 -0.6287
vn -0.0639 -0.7775 -0.6257
vn 0.1125 -0.9933 -0.0266
vn 0.0303 -0.9902 0.1360
vn -0.0403 -0.9701 0.2393
vn -0.2192 -0.8591 0.4626
vn -0.7309 -0.6656 -0.1509
vn -0.2179 -0.8583 0.4647
vn -0.2651 0.2514 0.9309
vn -0.2655 0.2523 0.9305
vn -0.7286 -0.6671 -0.1551
vn -0.0803 -0.7726 -0.6298
vn 0.6470 -0.6440 -0.4083
vn 0.1619 -0.3799 -0.9108
vn 0.9701 0.2386 0.0441
vn 0.1809 -0.3793 -0.9074
vn 0.6574 -0.6356 -0.4047
vn 0.6573 -0.6363 -0.4039
vn 0.6601 -0.6388 -0.3953
vn 0.4996 -0.8642 -0.0597
vn 0.1517 -0.9823 0.1096
vn -0.1657 -0.8559 0.4898
vn 0.6587 -0.6869 0.3070
vn 0.9085 -0.2677 -0.3208
vn 0.1670 -0.3738 -0.9123
vn 0.5308 -0.5435 0.6503
vn 0.9093 -0.2659 -0.3202
vn 0.7090 -0.6344 0.3080
vn 0.7061 -0.6337 0.3158
vn 0.5345 -0.5451 0.6459
vn 0.9125 -0.2634 -0.3130
vn 0.8334 0.2280 -0.5035
vn -0.4021 0.8817 0.2465
vn -0.4058 0.8816 0.2408
vn -0.3658 0.8809 0.3001
vn -0.3583 0.9217 0.1484
vn -0.3918 0.8959 0.2094
vn -0.2711 0.9569 0.1039
vn -0.5171 0.8286 0.2142
vn -0.4675 0.8479 0.2499
vn -0.6033 0.7721 0.1994
vn -0.6689 0.7151 0.2029
vn -0.6965 0.7040 0.1385
vn -0.8173 0.5528 0.1626
vn -0.7937 0.5586 0.2408
vn -0.7411 0.6326 0.2248
vn -0.8693 0.4712 0.1488
vn -0.8448 0.4696 0.2563
vn -0.2855 0.9569 0.0524
vn -0.3804 0.9217 0.0757
vn -0.5490 0.8286 0.1092
vn -0.2903 0.9569 0.0096
vn -0.3879 0.9217 0.0000
vn -0.2901 0.9565 0.0286
vn -0.5598 0.8286 0.0000
vn -0.7101 0.7040 0.0000
vn -0.8333 0.5528 0.0000
vn -0.8786 0.4696 0.0865
vn -0.8819 0.4714 0.0087
vn -0.6965 0.7040 -0.1385
vn -0.8173 0.5528 -0.1626
vn -0.8651 0.4714 -0.1715
vn -0.8786 0.4696 -0.0865
vn -0.4364 0.8987 -0.0430
vn -0.5490 0.8286 -0.1092
vn -0.4664 0.8817 -0.0709
vn -0.5171 0.8286 -0.2142
vn -0.4456 0.8816 -0.1555
vn -0.6631 0.7210 -0.2011
vn -0.6032 0.7721 -0.1996
vn -0.7839 0.5735 -0.2378
vn -0.8448 0.4696 -0.2563
vn -0.4949 0.8277 -0.2645
usemtl None
s off
f 74/1/1 75/2/1 11/3/1 13/4/1
f 11/5/2 6/6/2 13/4/2
f 6/7/3 12/8/3 13/4/3
f 12/9/4 15/10/4 13/4/4
f 15/11/5 18/12/5 13/4/5
f 18/13/6 17/14/6 13/4/6
f 74/15/7 13/4/7 17/16/7 79/17/7
f 65/18/8 11/3/8 75/19/8 64/20/8
f 2/21/9 66/22/9 79/23/9 17/16/9
f 66/24/10 2/25/10 1/26/10 82/27/10 67/28/10
f 41/29/11 82/30/11 1/31/11 68/32/11 69/33/11 43/34/11 45/35/11
f 5/36/12 11/37/12 65/38/12 46/39/12 77/40/12
f 5/41/13 6/6/13 11/37/13
f 15/11/14 12/8/14 6/42/14
f 72/43/15 6/42/15 5/41/15 77/44/15
f 68/45/16 1/46/16 8/47/16 7/48/16 80/49/16 53/50/16 55/51/16 71/52/16 70/53/16
f 3/54/17 4/55/17 6/42/17
f 4/56/18 9/57/18 6/42/18
f 9/58/19 15/10/19 6/42/19
f 9/58/20 14/59/20 15/60/20
f 14/61/21 17/14/21 15/60/21
f 17/16/22 18/12/22 15/60/22
f 16/62/23 2/21/23 17/63/23
f 14/61/24 16/64/24 17/63/24
f 9/58/25 4/55/25 3/65/25 10/66/25
f 86/67/26 87/68/26 51/69/26 3/70/26 6/42/26 72/71/26 73/72/26
f 1/26/27 2/73/27 16/62/27 8/47/27
f 7/48/28 10/74/28 3/65/28
f 10/66/29 14/59/29 9/75/29
f 10/66/30 16/64/30 14/76/30
f 10/66/31 8/77/31 16/78/31
f 10/66/32 7/79/32 8/80/32
f 59/81/33 58/82/33 80/83/33 7/79/33 3/65/33 51/84/33 61/85/33 60/86/33
s 1
f 56/87/34 44/88/35 42/89/36
f 19/90/37 57/91/38 90/92/39
f 57/91/38 19/90/37 20/93/40 84/94/41 44/88/35 56/87/34
f 84/94/41 20/93/40 85/95/42
f 83/96/43 23/97/44 24/98/45 40/99/46 39/100/47
f 40/99/46 24/98/45 34/101/48 35/102/49 38/103/49
f 88/104/50 21/105/51 19/90/37 90/92/39
f 20/93/40 19/90/37 21/105/51 22/106/52
f 22/106/52 23/97/44 83/96/43 85/95/42 20/93/40
f 81/107/53 25/108/54 21/105/51 88/104/50 54/109/55
f 22/106/52 21/105/51 25/108/54 26/110/56
f 23/97/44 22/106/52 26/110/56 27/111/57
f 24/98/45 23/97/44 27/111/57 28/112/58
f 33/113/59 34/101/48 24/98/45 28/112/58 36/114/60
f 28/115/58 27/116/57 30/117/61 31/118/62
f 28/115/58 31/118/62 76/119/63 37/120/64 36/121/60
f 89/122/65 25/123/54 81/124/53
f 29/125/66 26/126/56 25/123/54 89/122/65 78/127/67
f 27/116/57 26/126/56 29/125/66 30/117/61
f 32/128/68 29/125/66 78/127/67 63/129/69
f 50/130/70 30/117/61 29/125/66 32/128/68 52/131/71
f 31/118/62 30/117/61 50/130/70 49/132/72
f 47/133/73 76/119/63 31/118/62 49/132/72 48/134/73
f 62/135/74 32/128/68 63/129/69
f 32/128/68 62/135/74 52/131/71
