# Blender v3.0.0 OBJ File: 'Sphere_Cell_Fracture.blend'
# www.blender.org
mtllib Sphere_Cell_Fracture35.mtl
v 0.242103 0.130788 -0.241552
v -0.443752 0.082455 -0.309020
v 0.205781 -0.395691 -0.310740
v -0.181649 -0.421804 -0.349375
v -0.464241 0.025414 -0.318235
v -0.087747 -0.485094 -0.349081
v 0.074784 0.170316 -0.796762
v -0.404680 0.101122 -0.472052
v 0.236501 0.162607 -0.573687
v 0.040977 0.096425 -0.815788
v -0.126517 -0.030808 -0.765432
v -0.453698 -0.055110 -0.529365
v 0.203113 -0.405182 -0.404598
v -0.028819 -0.334725 -0.746050
v -0.019289 -0.123729 -0.813548
v 0.028917 -0.427004 -0.633884
v 0.202687 -0.411834 -0.386190
v -0.387150 -0.193905 -0.536439
v -0.461829 -0.071059 -0.519216
v 0.015404 -0.486549 -0.492027
vt 0.000000 0.000000
vt 1.000000 0.000000
vt 1.000000 1.000000
vt 0.000000 0.000000
vt 1.000000 0.000000
vt 0.000000 0.000000
vt 1.000000 0.000000
vt 0.000000 0.000000
vt 1.000000 0.000000
vt 0.000000 0.000000
vt 1.000000 0.000000
vt 0.000000 0.000000
vt 1.000000 0.000000
vt 1.000000 0.000000
vt 0.000000 0.000000
vt 0.000000 0.000000
vt 1.000000 0.000000
vt 1.000000 0.000000
vt 1.000000 1.000000
vt 0.000000 0.000000
vt 1.000000 0.000000
vt 0.000000 0.000000
vt 1.000000 0.000000
vt 1.000000 1.000000
vt 0.000000 0.000000
vt 1.000000 0.000000
vt 0.000000 0.000000
vt 1.000000 0.000000
vt 1.000000 1.000000
vt 0.000000 0.000000
vt 1.000000 0.000000
vt 1.000000 1.000000
vt 0.000000 0.000000
vt 1.000000 0.000000
vt 1.000000 1.000000
vt 0.000000 0.000000
vt 1.000000 0.000000
vt 0.000000 0.000000
vt 1.000000 1.000000
vt 0.000000 0.000000
vt 1.000000 1.000000
vt 1.000000 0.000000
vt 1.000000 0.000000
vt 1.000000 1.000000
vt 0.000000 0.000000
vt 1.000000 1.000000
vt 1.000000 0.000000
vt 1.000000 1.000000
vt 0.000000 0.000000
vt 1.000000 1.000000
vt 1.000000 1.000000
vn 0.4927 -0.8181 -0.2965
vn 0.4902 -0.8233 -0.2862
vn 0.2687 -0.9441 0.1910
vn 0.2618 -0.9445 0.1985
vn -0.5192 -0.7720 -0.3668
vn -0.5198 -0.7709 -0.3681
vn -0.5192 -0.7704 -0.3700
vn -0.5113 -0.7740 -0.3736
vn 0.7804 -0.2222 -0.5845
vn 0.7829 -0.2202 -0.5818
vn 0.7869 -0.2187 -0.5770
vn 0.7875 -0.2180 -0.5764
vn 0.9976 -0.0655 -0.0231
vn 0.9976 -0.0660 -0.0217
vn 0.9937 -0.1108 -0.0170
vn -0.0885 -0.1238 0.9884
vn -0.0900 -0.1259 0.9880
vn -0.0898 -0.1287 0.9876
vn -0.0916 -0.1267 0.9877
vn -0.8116 -0.5300 0.2459
vn -0.8131 -0.5285 0.2439
vn -0.5584 -0.2276 -0.7977
vn -0.3456 0.0851 -0.9345
vn 0.7878 -0.2115 -0.5784
vn -0.5453 0.4341 -0.7170
vn -0.0805 0.9924 0.0926
vn -0.0802 0.9923 0.0944
vn -0.0794 0.9922 0.0964
vn -0.9165 0.3580 -0.1786
vn -0.9175 0.3542 -0.1809
vn -0.9180 0.3532 -0.1805
vn -0.5595 -0.2228 -0.7983
vn -0.5481 0.4342 -0.7149
vn -0.5469 0.4361 -0.7146
vn -0.5572 -0.2300 -0.7979
usemtl None
s off
f 16/1/1 13/2/1 20/3/1
f 13/4/2 17/5/2 20/3/2
f 17/6/3 3/7/3 20/3/3
f 3/8/4 6/9/4 20/3/4
f 6/10/5 4/11/5 20/3/5
f 4/12/6 18/13/6 20/3/6
f 14/14/7 20/3/7 18/15/7
f 14/16/8 16/17/8 20/3/8
f 14/16/9 15/18/9 16/19/9
f 16/19/10 15/20/10 10/21/10
f 13/2/11 16/19/11 10/22/11
f 9/23/12 13/24/12 10/22/12
f 9/25/13 1/26/13 13/24/13
f 1/27/14 3/7/14 13/24/14
f 3/8/15 17/5/15 13/24/15
f 1/27/16 2/28/16 3/29/16
f 2/30/17 4/11/17 3/29/17
f 4/12/18 6/9/18 3/29/18
f 2/30/19 5/31/19 4/32/19
f 5/33/20 18/13/20 4/32/20
f 5/33/21 19/34/21 18/35/21
f 19/36/22 11/37/22 18/35/22
f 11/38/23 10/21/23 15/39/23
f 7/40/24 9/23/24 10/41/24
f 11/38/25 7/42/25 10/41/25
f 7/40/26 8/43/26 9/44/26
f 8/45/27 2/28/27 9/44/27
f 2/30/28 1/26/28 9/44/28
f 8/45/29 5/31/29 2/46/29
f 8/45/30 12/47/30 5/48/30
f 12/49/31 19/34/31 5/48/31
f 12/49/32 11/37/32 19/50/32
f 12/49/33 8/43/33 11/51/33
f 8/45/34 7/42/34 11/51/34
f 15/20/35 14/14/35 18/35/35 11/38/35
