# Blender v3.0.0 OBJ File: 'Sphere_Cell_Fracture.blend'
# www.blender.org
mtllib Sphere_Cell_Fracture32.mtl
v 0.383617 -0.583802 0.630835
v 0.512352 -0.464926 0.615666
v 0.377805 -0.596005 0.623877
v 0.495736 -0.544843 0.546734
v 0.540372 -0.494341 0.550725
v 0.587938 -0.555570 0.587938
v 0.392847 -0.707107 0.587938
v 0.464461 -0.712626 0.520508
v 0.475437 -0.707107 0.520158
v 0.521100 -0.670747 0.521100
v 0.679462 -0.485907 0.534828
v 0.692633 -0.463706 0.537394
v 0.650058 -0.428769 0.618567
v 0.637550 -0.555570 0.527485
v 0.639215 -0.419901 0.639215
v 0.576742 -0.452961 0.667735
v 0.618744 -0.412905 0.660829
v 0.501814 -0.524511 0.679991
v 0.469390 -0.555570 0.685227
v 0.457612 -0.565063 0.684864
v 0.387592 -0.615770 0.675332
v 0.387599 -0.714860 0.580082
v 0.354250 -0.707107 0.608569
v 0.349714 -0.705293 0.612672
v 0.344829 -0.703314 0.617116
v 0.382446 -0.626003 0.668606
v 0.464461 -0.712626 0.520508
v 0.475437 -0.707107 0.520158
v 0.457612 -0.565063 0.684864
v 0.387592 -0.615770 0.675332
v 0.679462 -0.485907 0.534828
v 0.637550 -0.555570 0.527485
v 0.521100 -0.670747 0.521100
v 0.576742 -0.452961 0.667735
v 0.501814 -0.524511 0.679991
v 0.469390 -0.555570 0.685227
v 0.692633 -0.463706 0.537394
v 0.387599 -0.714860 0.580082
v 0.354250 -0.707107 0.608569
v 0.349714 -0.705293 0.612672
v 0.344829 -0.703314 0.617116
v 0.382446 -0.626003 0.668606
v 0.650058 -0.428769 0.618567
v 0.639215 -0.419901 0.639215
v 0.618744 -0.412905 0.660829
vt 0.667506 0.394406
vt 0.276954 0.000000
vt 0.503187 0.503187
vt 1.000000 1.000000
vt 0.000000 0.000000
vt 0.250887 0.000000
vt 1.000000 0.000000
vt 1.000000 0.503187
vt 0.529119 0.529119
vt 0.000000 0.000000
vt 1.000000 0.000000
vt 1.000000 0.119781
vt 0.749113 0.000000
vt 0.119781 0.119781
vt 0.148023 0.000000
vt 0.148023 0.148023
vt 1.000000 0.000000
vt 1.000000 0.106933
vt 0.491029 0.147236
vt 0.401372 0.151345
vt 0.093462 0.036065
vt 0.053748 0.000000
vt 1.000000 0.000000
vt 1.000000 0.707941
vt 0.377016 0.271649
vt 1.000000 1.000000
vt 0.000000 0.000000
vt 0.053748 0.053748
vt 0.093689 0.000000
vt 1.000000 0.000000
vt 1.000000 1.000000
vt 1.000000 0.124222
vt 0.126012 0.126012
vt 0.000000 0.000000
vt 0.124222 0.124222
vt 0.906311 0.000000
vt 0.529119 0.000000
vt 0.449530 0.098690
vt 0.819294 0.164617
vt 0.386755 0.033535
vt 0.292059 0.000000
vt 0.375000 0.312500
vt 0.389994 0.312500
vt 0.393867 0.337684
vt 0.394967 0.345710
vt 0.378995 0.358340
vt 0.375000 0.361546
vt 0.375000 0.264996
vt 0.351161 0.323728
vt 0.345598 0.312500
vt 0.369711 0.364075
vt 0.363365 0.349594
vt 0.343750 0.308585
vt 0.343750 0.250000
vt 0.367837 0.250000
vt 0.343750 0.246103
vt 0.365902 0.247226
vt 0.333883 0.250000
vt 0.332542 0.250748
vt 0.332898 0.287671
vt 0.332679 0.283451
vt 0.331097 0.251564
vn -0.2135 0.8519 -0.4783
vn -0.1227 0.1855 -0.9750
vn -0.5431 0.6592 0.5201
vn -0.5435 0.6583 0.5208
vn -0.5459 0.6572 0.5197
vn -0.6002 0.2315 -0.7656
vn -0.6071 0.5795 -0.5437
vn -0.6011 0.2329 -0.7645
vn -0.6081 0.5910 -0.5301
vn -0.6085 0.5915 -0.5291
vn -0.9187 0.2772 0.2812
vn -0.9238 0.2666 0.2746
vn -0.1194 0.1749 -0.9773
vn 0.5893 -0.5528 0.5893
vn 0.6533 -0.5345 0.5361
vn 0.6825 -0.4696 0.5601
vn 0.6091 -0.4713 0.6378
vn 0.5095 -0.6335 0.5822
vn 0.5601 -0.4696 0.6825
vn 0.5132 -0.5878 0.6253
vn 0.4656 -0.6338 0.6177
vn 0.3945 -0.7040 0.5904
vn 0.4701 -0.6714 0.5728
vn 0.3566 -0.7730 0.5246
vn 0.4036 -0.7715 0.4918
vn 0.3597 -0.6462 0.6730
vn 0.3651 -0.6326 0.6830
usemtl None
s off
f 44/1/1 43/2/1 37/3/1 5/4/1 2/5/1 45/6/1
f 5/7/2 37/8/2 31/9/2 4/10/2
f 2/11/3 34/12/3 45/13/3
f 34/14/4 2/5/4 35/15/4
f 35/16/5 2/5/5 1/17/5 30/18/5 29/19/5 36/20/5
f 39/21/6 40/22/6 4/23/6 27/24/6 38/25/6
f 5/7/7 4/26/7 3/27/7
f 40/28/8 41/29/8 3/30/8 4/26/8
f 2/11/9 5/4/9 3/27/9
f 1/17/10 2/31/10 3/27/10
f 3/30/11 42/32/11 30/33/11 1/34/11
f 42/35/12 3/27/12 41/36/12
f 4/10/13 31/37/13 14/38/13 10/39/13 9/40/13 27/41/13
s 1
f 6/42/14 32/43/15 11/44/16 12/45/16 13/46/16 15/47/17
f 32/43/15 6/42/14 33/48/18
f 18/49/19 19/50/20 6/42/14 15/47/17 17/51/19 16/52/19
f 6/42/14 19/50/20 20/53/21 7/54/22 28/55/23 33/48/18
f 28/55/23 7/54/22 22/56/24 8/57/25
f 22/56/24 7/54/22 23/58/26
f 24/59/27 23/58/26 7/54/22 20/53/21 21/60/27 26/61/27 25/62/27
