# Blender v3.0.0 OBJ File: 'Sphere_Cell_Fracture.blend'
# www.blender.org
mtllib Sphere_Cell_Fracture2.mtl
v 0.275949 0.749172 -0.024366
v 0.425920 0.402064 -0.180065
v 0.495022 0.412931 -0.202456
v 0.222261 0.864719 -0.182535
v 0.426504 0.399693 -0.190104
v 0.471435 0.385577 -0.276308
v 0.567326 0.424782 -0.523222
v 0.544612 0.396378 -0.302318
v 0.714091 0.444730 -0.460253
v 0.535498 0.391666 -0.312013
v 0.649392 0.416437 -0.469769
v 0.270598 0.923880 -0.270598
v 0.392848 0.831470 -0.392847
v 0.500000 0.707107 -0.500000
v 0.587938 0.555570 -0.587938
v 0.318190 0.923880 -0.212607
v 0.461940 0.831470 -0.308658
v 0.587938 0.707107 -0.392847
v 0.691342 0.555570 -0.461940
v 0.353553 0.923880 -0.146447
v 0.513280 0.831470 -0.212607
v 0.653281 0.707107 -0.270598
v 0.375330 0.923880 -0.074658
v 0.544895 0.831470 -0.108386
v 0.661813 0.502309 -0.542581
v 0.725670 0.478328 -0.484877
v 0.743887 0.466665 -0.463957
v 0.753691 0.515697 -0.390287
v 0.360487 0.817122 -0.441913
v 0.547279 0.564441 -0.611933
v 0.452376 0.707107 -0.539084
v 0.599163 0.525870 -0.599163
v 0.566428 0.531260 -0.622319
v 0.553194 0.555570 -0.616451
v 0.348536 0.831470 -0.429213
v 0.246885 0.922998 -0.292181
v 0.213552 0.942738 -0.237378
v 0.753600 0.599515 -0.242605
v 0.761440 0.564457 -0.315399
v 0.761362 0.555570 -0.330940
v 0.233031 0.946150 -0.201206
v 0.217235 0.943719 -0.230192
v 0.221866 0.944786 -0.221866
v 0.545812 0.831470 -0.099081
v 0.748303 0.607241 -0.238328
v 0.679510 0.707107 -0.184135
v 0.568402 0.811800 -0.113062
v 0.340853 0.936379 0.006357
v 0.354994 0.932279 0.000000
v 0.381490 0.923880 -0.012120
v 0.337765 0.937505 0.000000
v 0.307207 0.944949 -0.061107
v 0.251290 0.948287 -0.167907
v 0.279105 0.948324 -0.115609
v 0.753600 0.599515 -0.242605
v 0.761440 0.564457 -0.315399
v 0.213552 0.942738 -0.237378
v 0.246885 0.922998 -0.292181
v 0.661813 0.502309 -0.542581
v 0.725670 0.478328 -0.484877
v 0.743887 0.466665 -0.463957
v 0.547279 0.564441 -0.611933
v 0.452376 0.707107 -0.539084
v 0.599163 0.525870 -0.599163
v 0.553194 0.555570 -0.616451
v 0.360487 0.817122 -0.441913
v 0.348536 0.831470 -0.429213
v 0.761362 0.555570 -0.330940
v 0.753691 0.515697 -0.390287
v 0.217235 0.943719 -0.230192
v 0.221866 0.944786 -0.221866
v 0.748303 0.607241 -0.238328
v 0.679510 0.707107 -0.184135
v 0.568402 0.811800 -0.113062
v 0.340853 0.936379 0.006357
v 0.337765 0.937505 0.000000
v 0.307207 0.944949 -0.061107
v 0.233031 0.946150 -0.201206
v 0.251290 0.948287 -0.167907
v 0.279105 0.948324 -0.115609
v 0.545812 0.831470 -0.099081
v 0.381490 0.923880 -0.012120
v 0.354994 0.932279 0.000000
v 0.566428 0.531260 -0.622319
vt 0.178315 0.086311
vt 0.101953 0.101953
vt 0.000000 0.000000
vt 0.352495 0.000000
vt 1.000000 0.314367
vt 0.689284 0.623710
vt 0.649400 0.649400
vt 0.000000 0.000000
vt 0.000000 0.000000
vt 0.474015 0.000000
vt 1.000000 0.000000
vt 1.000000 0.101953
vt 0.452821 0.452821
vt 0.000000 0.000000
vt 0.803890 0.803890
vt 0.649400 0.000000
vt 0.763021 0.419698
vt 1.000000 0.000000
vt 1.000000 0.580916
vt 0.777523 0.527297
vt 0.352495 0.352495
vt 1.000000 0.803890
vt 0.877915 0.742509
vt 0.580916 0.580916
vt 0.000000 0.000000
vt 1.000000 0.000000
vt 1.000000 0.452821
vt 0.667654 0.477707
vt 0.994105 0.491102
vt 0.335162 0.000000
vt 0.000000 0.000000
vt 1.000000 0.000000
vt 1.000000 1.000000
vt 0.000000 0.000000
vt 1.000000 0.000000
vt 1.000000 0.000000
vt 1.000000 1.000000
vt 0.000000 0.000000
vt 1.000000 0.000000
vt 0.000000 0.000000
vt 1.000000 0.000000
vt 1.000000 1.000000
vt 0.000000 0.000000
vt 1.000000 0.000000
vt 1.000000 0.572588
vt 1.000000 1.000000
vt 0.000000 0.000000
vt 0.655760 0.000000
vt 0.898602 0.402032
vt 0.572588 0.572588
vt 1.000000 0.525985
vt 1.000000 0.000000
vt 1.000000 0.000000
vt 1.000000 0.664838
vt 0.703838 0.703838
vt 1.000000 1.000000
vt 1.000000 0.344240
vt 1.000000 1.000000
vt 0.377446 0.377446
vt 0.394188 0.373677
vt 0.564628 0.348710
vt 0.725824 0.337300
vt 0.889709 0.337246
vt 0.377446 0.000000
vt 1.000000 0.703838
vt 0.787788 0.574826
vt 0.528662 0.358117
vt 0.478364 0.313816
vt 0.226976 0.166366
vt 0.324622 0.057574
vt 0.638305 0.875000
vt 0.625000 0.875000
vt 0.625000 0.812500
vt 0.641448 0.812500
vt 0.641100 0.805289
vt 0.625000 0.750000
vt 0.638889 0.750000
vt 0.625000 0.687500
vt 0.633617 0.687500
vt 0.633914 0.691159
vt 0.632456 0.678712
vt 0.625000 0.676763
vt 0.629663 0.896790
vt 0.625000 0.897961
vt 0.633464 0.895713
vt 0.593750 0.901806
vt 0.593750 0.875000
vt 0.613327 0.899459
vt 0.593750 0.812500
vt 0.593750 0.750000
vt 0.593750 0.687500
vt 0.593750 0.659576
vt 0.609295 0.668246
vt 0.562500 0.875000
vt 0.562500 0.812500
vt 0.562500 0.750000
vt 0.565272 0.687500
vt 0.562500 0.691165
vt 0.576041 0.673085
vt 0.588736 0.655360
vt 0.562500 0.901847
vt 0.531250 0.898141
vt 0.531250 0.875000
vt 0.531250 0.812500
vt 0.542131 0.750000
vt 0.531250 0.802615
vt 0.549056 0.708811
vt 0.549544 0.705625
vt 0.528567 0.812500
vt 0.500000 0.889965
vt 0.500000 0.884225
vt 0.505073 0.875000
vt 0.496952 0.888728
vn 0.3782 -0.6285 -0.6797
vn -0.8476 -0.3655 -0.3846
vn 0.5753 -0.7141 0.3987
vn -0.8467 -0.3659 -0.3863
vn 0.3771 -0.6293 -0.6796
vn -0.8459 -0.3671 -0.3868
vn 0.5756 -0.7110 0.4038
vn 0.3763 -0.6330 -0.6766
vn 0.3813 -0.9154 0.1290
vn 0.2347 -0.9334 0.2713
vn 0.2340 -0.9338 0.2706
vn 0.2264 -0.9426 0.2454
vn 0.3585 -0.9266 0.1133
vn -0.8484 -0.3664 -0.3822
vn 0.0014 -0.9877 -0.1563
vn 0.0125 -0.9892 -0.1463
vn 0.1500 -0.9602 0.2354
vn -0.8645 0.2182 0.4528
vn -0.8827 0.2003 0.4252
vn -0.9154 -0.4023 0.0168
vn 0.3350 -0.2700 0.9027
vn -0.9096 -0.4130 0.0446
vn -0.8607 0.2233 0.4576
vn 0.3313 -0.2634 0.9060
vn 0.2474 0.9191 -0.3066
vn 0.2722 0.9222 -0.2745
vn 0.3958 0.8286 -0.3958
vn 0.3534 0.8304 -0.4306
vn 0.4036 0.7715 -0.4918
vn 0.5021 0.7040 -0.5021
vn 0.4467 0.7100 -0.5443
vn 0.5893 0.5528 -0.5893
vn 0.5239 0.5639 -0.6384
vn 0.4913 0.6326 -0.5987
vn 0.5601 0.4696 -0.6825
vn 0.6324 0.4714 -0.6147
vn 0.1810 0.9558 -0.2317
vn 0.2075 0.9567 -0.2040
vn 0.2423 0.9569 -0.1598
vn 0.3225 0.9217 -0.2155
vn 0.2254 0.9565 -0.1849
vn 0.4654 0.8286 -0.3110
vn 0.5904 0.7040 -0.3945
vn 0.6929 0.5528 -0.4630
vn 0.7447 0.4713 -0.4726
vn 0.6825 0.4696 -0.5601
vn 0.3583 0.9217 -0.1484
vn 0.5171 0.8286 -0.2142
vn 0.6561 0.7040 -0.2717
vn 0.7061 0.5991 -0.3774
vn 0.7018 0.6341 -0.3247
vn 0.7786 0.4696 -0.4162
vn 0.2675 0.9569 -0.1126
vn 0.2837 0.9569 -0.0617
vn 0.3804 0.9217 -0.0757
vn 0.5490 0.8286 -0.1092
vn 0.6684 0.7156 -0.2028
vn 0.6114 0.7720 -0.1737
vn 0.7411 0.6326 -0.2248
vn 0.5361 0.8425 -0.0528
vn 0.2903 0.9569 -0.0086
vn 0.2902 0.9567 -0.0211
vn 0.3629 0.9311 -0.0357
vn 0.2901 0.9565 0.0285
usemtl None
s off
f 60/1/1 61/2/1 9/3/1 59/4/1
f 58/5/2 35/6/2 66/7/2 6/8/2 4/9/2 57/10/2
f 9/11/3 61/12/3 69/13/3 8/14/3
f 62/15/4 6/8/4 66/16/4 63/17/4
f 9/3/5 7/18/5 84/19/5 32/20/5 59/21/5
f 62/22/6 65/23/6 84/24/6 7/25/6 6/26/6
f 69/27/7 68/28/7 56/29/7 55/30/7 3/31/7 8/32/7
f 7/18/8 9/33/8 11/34/8
f 11/35/9 9/33/9 8/14/9
f 3/31/10 2/36/10 8/37/10
f 2/38/11 6/26/11 8/37/11
f 6/8/12 10/39/12 8/37/12
f 10/40/13 11/35/13 8/37/13
f 4/41/14 6/42/14 5/43/14
f 7/25/15 11/35/15 6/42/15
f 6/42/16 11/34/16 10/39/16
f 2/38/17 5/44/17 6/42/17
f 70/45/18 4/46/18 1/47/18 78/48/18 71/49/18
f 70/50/19 57/51/19 4/46/19
f 4/46/20 5/43/20 1/52/20
f 2/38/21 3/53/21 55/54/21 72/55/21
f 1/47/22 5/44/22 2/56/22
f 78/57/23 1/58/23 75/59/23 76/60/23 77/61/23 80/62/23 79/63/23
f 75/64/24 1/52/24 2/36/24 72/65/24 46/66/24 47/67/24 44/68/24 50/69/24 49/70/24
s 1
f 36/71/25 12/72/26 13/73/27 67/74/28
f 29/75/29 67/74/28 13/73/27 14/76/30 31/77/31
f 14/76/30 15/78/32 34/79/33 30/80/34 31/77/31
f 33/81/35 34/79/33 15/78/32 64/82/36
f 42/83/37 43/84/38 12/72/26 36/71/25 37/85/37
f 53/86/39 16/87/40 12/72/26 43/84/38 41/88/41
f 13/73/27 12/72/26 16/87/40 17/89/42
f 14/76/30 13/73/27 17/89/42 18/90/43
f 15/78/32 14/76/30 18/90/43 19/91/44
f 64/82/36 15/78/32 19/91/44 26/92/45 25/93/46
f 17/89/42 16/87/40 20/94/47 21/95/48
f 18/90/43 17/89/42 21/95/48 22/96/49
f 40/97/50 19/91/44 18/90/43 22/96/49 39/98/51
f 19/91/44 40/97/50 28/99/52 27/100/52 26/92/45
f 54/101/53 20/94/47 16/87/40 53/86/39
f 52/102/54 23/103/55 20/94/47 54/101/53
f 21/95/48 20/94/47 23/103/55 24/104/56
f 73/105/57 22/96/49 21/95/48 24/104/56 74/106/58
f 45/107/59 38/108/59 39/98/51 22/96/49 73/105/57
f 24/104/56 81/109/60 74/106/58
f 51/110/61 83/111/62 82/112/63 23/103/55 52/102/54
f 81/109/60 24/104/56 23/103/55 82/112/63
f 48/113/64 83/111/62 51/110/61
