# Blender v3.0.0 OBJ File: 'Sphere_Cell_Fracture.blend'
# www.blender.org
mtllib Sphere_Cell_Fracture49.mtl
v -0.387658 -0.195941 -0.536826
v -0.028416 -0.337312 -0.747116
v -0.338845 -0.726413 -0.285485
v -0.181086 -0.424942 -0.349388
v -0.141093 -0.509843 -0.295230
v -0.239711 -0.657819 -0.272458
v -0.274672 -0.852431 -0.388375
v -0.089343 -0.487362 -0.348662
v 0.014472 -0.487647 -0.492790
v 0.027145 -0.428535 -0.636233
v -0.263250 -0.850120 -0.390148
v -0.653281 -0.382683 -0.653281
v -0.587937 -0.555570 -0.587937
v -0.500000 -0.707107 -0.500000
v -0.513280 -0.382683 -0.768178
v -0.461939 -0.555570 -0.691341
v -0.392847 -0.707107 -0.587937
v -0.308658 -0.831470 -0.461939
v -0.318189 -0.555570 -0.768177
v -0.270598 -0.707107 -0.653281
v -0.212607 -0.831470 -0.513279
v -0.162212 -0.555570 -0.815493
v -0.137950 -0.707107 -0.693520
v -0.272441 -0.867318 -0.405319
v -0.261625 -0.867955 -0.410054
v -0.302033 -0.853524 -0.414256
v -0.616486 -0.644135 -0.439131
v -0.541266 -0.707107 -0.449717
v -0.442916 -0.773359 -0.442916
v -0.348445 -0.831470 -0.429287
v -0.662659 -0.555570 -0.496889
v -0.253256 -0.866815 -0.416934
v -0.646681 -0.586394 -0.476676
v -0.198679 -0.850923 -0.479654
v -0.192879 -0.848640 -0.485856
v -0.681405 -0.479151 -0.538125
v -0.516634 -0.362779 -0.773198
v -0.447683 -0.382683 -0.803240
v -0.049800 -0.707107 -0.702202
v -0.068424 -0.783202 -0.607646
v 0.010291 -0.472230 -0.875002
v 0.000000 -0.511688 -0.854925
v -0.011396 -0.555570 -0.830347
v -0.348444 -0.407662 -0.841218
v -0.175077 -0.432191 -0.880173
v -0.113016 -0.811995 -0.568168
v -0.149748 -0.831470 -0.532348
v -0.672159 -0.294674 -0.672159
v -0.707674 -0.272417 -0.639475
v -0.705016 -0.382683 -0.590243
v -0.094735 -0.435320 -0.886414
v -0.013505 -0.438533 -0.892697
v 0.000887 -0.439346 -0.893505
v 0.012925 -0.461942 -0.880242
v -0.049800 -0.707107 -0.702202
v -0.068424 -0.783202 -0.607646
v -0.192879 -0.848640 -0.485856
v -0.149748 -0.831470 -0.532348
v -0.616486 -0.644135 -0.439131
v -0.541266 -0.707107 -0.449717
v -0.442916 -0.773359 -0.442916
v -0.348445 -0.831470 -0.429287
v -0.646681 -0.586394 -0.476676
v -0.253256 -0.866815 -0.416934
v -0.198679 -0.850923 -0.479654
v -0.516634 -0.362779 -0.773198
v -0.447683 -0.382683 -0.803240
v 0.010291 -0.472230 -0.875002
v 0.000000 -0.511688 -0.854925
v -0.011396 -0.555570 -0.830347
v -0.348444 -0.407662 -0.841218
v -0.175077 -0.432191 -0.880173
v -0.113016 -0.811995 -0.568168
v -0.672159 -0.294674 -0.672159
v -0.707674 -0.272417 -0.639475
v -0.705016 -0.382683 -0.590243
v -0.094735 -0.435320 -0.886414
v -0.013505 -0.438533 -0.892697
v -0.272441 -0.867318 -0.405319
v -0.302033 -0.853524 -0.414256
v 0.012925 -0.461942 -0.880242
v 0.000887 -0.439346 -0.893505
v -0.662659 -0.555570 -0.496889
v -0.681405 -0.479151 -0.538125
v -0.261625 -0.867955 -0.410054
vt 0.000000 0.000000
vt 1.000000 0.000000
vt 0.899701 0.077115
vt 0.089010 0.089010
vt 0.000000 0.000000
vt 1.000000 0.000000
vt 1.000000 0.392230
vt 0.075168 0.075168
vt 0.000000 0.000000
vt 0.390154 0.000000
vt 0.439874 0.137312
vt 0.443437 0.262563
vt 0.425737 0.364212
vt 0.392230 0.392230
vt 1.000000 1.000000
vt 0.910124 0.910124
vt 1.000000 0.916641
vt 1.000000 0.000000
vt 0.916641 0.916641
vt 0.552155 0.089918
vt 0.513925 0.000000
vt 0.000000 0.000000
vt 1.000000 0.609846
vt 1.000000 1.000000
vt 0.501966 0.000000
vt 0.501966 0.501966
vt 0.571607 0.000000
vt 0.529101 0.370759
vt 0.218217 0.067618
vt 0.139746 0.000000
vt 1.000000 0.000000
vt 1.000000 0.525198
vt 0.724935 0.398738
vt 0.310470 0.142658
vt 0.000000 0.000000
vt 1.000000 0.000000
vt 1.000000 1.000000
vt 0.000000 0.000000
vt 1.000000 0.000000
vt 1.000000 0.486075
vt 0.840019 0.511684
vt 0.699752 0.522880
vt 0.525198 0.525198
vt 0.577613 0.501955
vt 0.512209 0.512209
vt 0.000000 0.000000
vt 0.761368 0.000000
vt 0.801175 0.094756
vt 0.816379 0.272285
vt 0.781593 0.357332
vt 0.747288 0.412559
vt 0.761368 0.761368
vt 1.000000 0.000000
vt 1.000000 0.584974
vt 0.759453 0.037046
vt 0.584973 0.584973
vt 0.000000 0.000000
vt 1.000000 0.811041
vt 0.770569 0.770569
vt 1.000000 0.000000
vt 1.000000 0.860254
vt 0.811041 0.811041
vt 0.000000 0.000000
vt 1.000000 1.000000
vt 1.000000 0.000000
vt 1.000000 0.000000
vt 0.000000 0.000000
vt 1.000000 1.000000
vt 1.000000 1.000000
vt 0.512209 0.000000
vt 0.783807 0.223038
vt 1.000000 0.428393
vt 0.000000 0.000000
vt 0.748121 0.342628
vt 0.750000 0.328364
vt 0.749839 0.354516
vt 0.747649 0.346347
vt 0.875000 0.375000
vt 0.889071 0.375000
vt 0.883076 0.411737
vt 0.875000 0.404322
vt 0.875000 0.312500
vt 0.897582 0.312500
vt 0.893610 0.340126
vt 0.875000 0.250000
vt 0.889665 0.250000
vt 0.901496 0.275972
vt 0.898835 0.299787
vt 0.875000 0.216704
vt 0.843750 0.187500
vt 0.844195 0.163254
vt 0.850364 0.172584
vt 0.858518 0.187500
vt 0.843750 0.375000
vt 0.843750 0.381631
vt 0.843750 0.312500
vt 0.843750 0.250000
vt 0.812500 0.312500
vt 0.830916 0.375000
vt 0.812500 0.365970
vt 0.812500 0.250000
vt 0.812500 0.187500
vt 0.840349 0.162824
vt 0.843750 0.163150
vt 0.812500 0.174343
vt 0.836826 0.163595
vt 0.781250 0.312500
vt 0.781250 0.357102
vt 0.781250 0.250000
vt 0.781250 0.197287
vt 0.793652 0.187500
vt 0.810073 0.175887
vt 0.752195 0.312500
vt 0.766936 0.355971
vt 0.752436 0.354810
vt 0.750000 0.354504
vt 0.761281 0.250000
vt 0.767854 0.211758
vn 0.2461 -0.7118 0.6578
vn -0.4840 -0.6880 0.5408
vn -0.4977 -0.6842 0.5331
vn 0.2348 -0.5402 0.8081
vn 0.5570 -0.5954 0.5789
vn 0.7354 -0.4170 0.5342
vn 0.2583 -0.5271 0.8096
vn -0.3654 0.3655 0.8561
vn -0.3634 0.3718 0.8542
vn 0.9647 -0.2624 -0.0211
vn 0.7357 -0.4070 0.5413
vn 0.7385 -0.4138 0.5323
vn -0.0125 0.8201 -0.5720
vn -0.0118 0.8204 -0.5716
vn 0.0144 0.8216 -0.5698
vn 0.9025 0.4165 -0.1096
vn 0.9659 -0.2580 -0.0210
vn 0.5328 0.7648 0.3622
vn 0.5191 0.7712 0.3684
vn 0.5186 0.7708 0.3702
vn 0.5199 0.7685 0.3730
vn 0.4167 0.6202 0.6646
vn -0.3581 0.3764 0.8545
vn -0.3628 0.3726 0.8541
vn 0.0865 -0.4696 -0.8786
vn -0.0743 -0.4700 -0.8795
vn -0.0486 -0.4708 -0.8809
vn -0.6539 -0.3805 -0.6539
vn -0.7095 -0.3969 -0.5823
vn -0.7400 -0.2890 -0.6073
vn -0.6937 -0.2902 -0.6592
vn -0.5893 -0.5528 -0.5893
vn -0.6386 -0.5635 -0.5241
vn -0.6825 -0.4696 -0.5601
vn -0.5021 -0.7040 -0.5021
vn -0.5658 -0.6813 -0.4644
vn -0.5987 -0.6326 -0.4913
vn -0.4201 -0.7724 -0.4763
vn -0.3109 -0.8286 -0.4654
vn -0.2444 -0.8817 -0.4034
vn -0.3001 -0.8809 -0.3658
vn -0.3715 -0.8106 -0.4526
vn -0.5137 -0.3805 -0.7689
vn -0.5473 -0.2902 -0.7850
vn -0.4630 -0.5528 -0.6929
vn -0.3945 -0.7040 -0.5904
vn -0.3189 -0.5528 -0.7699
vn -0.4198 -0.4548 -0.7854
vn -0.3481 -0.4714 -0.8103
vn -0.2717 -0.7040 -0.6561
vn -0.2143 -0.8287 -0.5170
vn -0.2236 -0.8810 -0.4168
vn -0.1943 -0.8819 -0.4295
vn -0.1625 -0.5528 -0.8173
vn -0.1773 -0.4714 -0.8639
vn -0.1385 -0.7040 -0.6965
vn -0.1500 -0.7727 -0.6167
vn -0.1764 -0.7942 -0.5814
vn -0.1373 -0.8809 -0.4528
vn -0.0823 -0.5401 -0.8375
vn -0.0862 -0.4696 -0.8786
vn -0.0705 -0.6947 -0.7158
vn -0.0623 -0.7715 -0.6331
usemtl None
s off
f 11/1/1 7/2/1 24/3/1 85/4/1
f 7/5/2 3/6/2 80/7/2 24/8/2
f 3/9/3 59/10/3 60/11/3 61/12/3 62/13/3 80/14/3
f 3/9/4 7/2/4 11/15/4
f 11/15/5 85/16/5 64/17/5
f 6/18/6 11/15/6 64/19/6 65/20/6 57/21/6
f 3/6/7 11/15/7 6/22/7
f 59/23/8 3/24/8 6/22/8 63/25/8
f 63/26/9 6/22/9 84/27/9 31/28/9
f 69/29/10 68/30/10 9/31/10 56/32/10 55/33/10 70/34/10
f 8/35/11 5/36/11 6/37/11
f 9/38/12 8/39/12 6/18/12 57/40/12 58/41/12 73/42/12 56/43/12
f 74/44/13 75/45/13 1/46/13 77/47/13 72/48/13 71/49/13 67/50/13 37/51/13
f 77/52/14 1/46/14 2/53/14 78/54/14
f 82/55/15 78/56/15 2/57/15
f 81/58/16 82/59/16 2/57/16 10/60/16
f 68/61/17 81/62/17 10/63/17 9/31/17
f 10/63/18 2/53/18 9/64/18
f 2/57/19 1/65/19 9/64/19
f 1/46/20 4/66/20 9/64/20
f 4/67/21 8/39/21 9/64/21
f 4/67/22 5/36/22 8/68/22
f 4/67/23 1/65/23 5/69/23
f 1/46/24 75/70/24 50/71/24 84/72/24 6/37/24 5/73/24
s 1
f 41/74/25 42/75/26 53/76/27 54/77/25
f 12/78/28 76/79/29 49/80/30 48/81/31
f 76/79/29 12/78/28 13/82/32 83/83/33 36/84/34
f 83/83/33 13/82/32 14/85/35 28/86/36 27/87/37 33/88/37
f 28/86/36 14/85/35 29/89/38
f 18/90/39 79/91/40 26/92/41 30/93/42
f 15/94/43 12/78/28 48/81/31 66/95/44
f 13/82/32 12/78/28 15/94/43 16/96/45
f 14/85/35 13/82/32 16/96/45 17/97/46
f 14/85/35 17/97/46 18/90/39 30/93/42 29/89/38
f 19/98/47 16/96/45 15/94/43 38/99/48 44/100/49
f 17/97/46 16/96/45 19/98/47 20/101/50
f 18/90/39 17/97/46 20/101/50 21/102/51
f 25/103/52 79/104/40 18/90/39 21/102/51 34/105/53 32/106/52
f 38/99/48 15/94/43 66/95/44
f 22/107/54 19/98/47 44/100/49 45/108/55
f 20/101/50 19/98/47 22/107/54 23/109/56
f 21/102/51 20/101/50 23/109/56 46/110/57 47/111/58
f 21/102/51 47/111/58 35/112/59 34/105/53
f 42/75/26 43/113/60 22/107/54 45/108/55 51/114/61 52/115/61 53/116/27
f 23/109/56 22/107/54 43/113/60 39/117/62
f 23/109/56 39/117/62 40/118/63 46/110/57
