# Blender v3.0.0 OBJ File: 'Sphere_Cell_Fracture.blend'
# www.blender.org
mtllib Sphere_Cell_Fracture33.mtl
v -0.071485 -0.698326 0.188626
v 0.246249 -0.852255 0.024751
v 0.056878 -0.671617 0.433089
v 0.322191 -0.861794 0.079069
v 0.188237 -0.666848 0.604308
v 0.149526 -0.713489 0.608505
v 0.318190 -0.923880 0.212608
v 0.392847 -0.831470 0.392847
v 0.270598 -0.923880 0.270598
v 0.308658 -0.831470 0.461940
v 0.212608 -0.923880 0.318190
v 0.212607 -0.831470 0.513280
v 0.146447 -0.923880 0.353554
v 0.077554 -0.905824 0.408825
v 0.135556 -0.923880 0.356857
v 0.144023 -0.925801 0.347702
v 0.193184 -0.934485 0.289120
v 0.056272 -0.897904 0.425737
v 0.116592 -0.831470 0.542406
v 0.146422 -0.778327 0.600699
v 0.102444 -0.847751 0.515021
v 0.324958 -0.928079 0.170723
v 0.358769 -0.915079 0.171450
v 0.339421 -0.923880 0.172886
v 0.339477 -0.718738 0.600471
v 0.331148 -0.712041 0.614132
v 0.368863 -0.742536 0.552042
v 0.423002 -0.799291 0.417613
v 0.361215 -0.911802 0.179813
v 0.381657 -0.883080 0.255015
v 0.411815 -0.831470 0.369735
v 0.280927 -0.940808 0.164510
v 0.234529 -0.939353 0.234530
v 0.270911 -0.941128 0.181017
v 0.153467 -0.765893 0.614319
v 0.324111 -0.714713 0.614219
v 0.254757 -0.741079 0.615038
v 0.207736 -0.752484 0.614848
v 0.116592 -0.831470 0.542406
v 0.146422 -0.778327 0.600699
v 0.135556 -0.923880 0.356857
v 0.144023 -0.925801 0.347702
v 0.193184 -0.934485 0.289120
v 0.368863 -0.742536 0.552042
v 0.423002 -0.799291 0.417613
v 0.254757 -0.741079 0.615038
v 0.207736 -0.752484 0.614848
v 0.056272 -0.897904 0.425737
v 0.102444 -0.847751 0.515021
v 0.358769 -0.915079 0.171450
v 0.339421 -0.923880 0.172886
v 0.339477 -0.718738 0.600471
v 0.411815 -0.831470 0.369735
v 0.077554 -0.905824 0.408825
v 0.280927 -0.940808 0.164510
v 0.270911 -0.941128 0.181017
v 0.153467 -0.765893 0.614319
v 0.324111 -0.714713 0.614219
v 0.324958 -0.928079 0.170723
v 0.331148 -0.712041 0.614132
v 0.361215 -0.911802 0.179813
v 0.381657 -0.883080 0.255015
v 0.234529 -0.939353 0.234530
vt 1.000000 1.000000
vt 0.000000 0.000000
vt 0.941984 0.000000
vt 1.000000 0.026632
vt 1.000000 0.000000
vt 1.000000 1.000000
vt 1.000000 0.000000
vt 0.000000 0.000000
vt 0.410080 0.410080
vt 1.000000 0.380753
vt 1.000000 0.000000
vt 0.380753 0.380753
vt 0.553797 0.183351
vt 0.609784 0.123060
vt 0.788889 0.000000
vt 1.000000 0.000000
vt 0.000000 0.000000
vt 1.000000 0.000000
vt 1.000000 1.000000
vt 0.716331 0.716331
vt 0.650896 0.285019
vt 0.615847 0.000000
vt 1.000000 1.000000
vt 0.552835 0.552835
vt 0.622274 0.551138
vt 0.881298 0.559822
vt 0.541234 0.070597
vt 0.748423 0.211804
vt 0.782631 0.236504
vt 1.000000 0.410081
vt 1.000000 0.212112
vt 0.026632 0.026632
vt 0.335675 0.063114
vt 1.000000 0.734138
vt 0.212112 0.212112
vt 0.403296 0.312855
vt 0.774274 0.565914
vt 0.734138 0.734138
vt 1.000000 0.716331
vt 0.615847 0.615847
vt 1.000000 0.552835
vt 1.000000 0.211111
vt 0.592835 0.000000
vt 0.083174 0.083174
vt 0.058016 0.000000
vt 1.000000 1.000000
vt 1.000000 0.643234
vt 0.592835 0.592835
vt 1.000000 0.083174
vt 0.643234 0.643234
vt 0.751734 0.411841
vt 0.406250 0.152594
vt 0.406250 0.125000
vt 0.425012 0.125000
vt 0.429148 0.130952
vt 0.426561 0.133168
vt 0.422988 0.120388
vt 0.406250 0.106056
vt 0.415754 0.106408
vt 0.375000 0.187500
vt 0.383579 0.187500
vt 0.375000 0.204474
vt 0.375000 0.125000
vt 0.375000 0.108006
vt 0.343750 0.187500
vt 0.343750 0.232195
vt 0.343750 0.125000
vt 0.343750 0.113352
vt 0.312500 0.187500
vt 0.331849 0.244154
vt 0.328701 0.247520
vt 0.327285 0.246177
vt 0.312500 0.232927
vt 0.312500 0.125000
vt 0.312500 0.122890
vt 0.288044 0.214207
vt 0.283710 0.187500
vt 0.301819 0.227195
vt 0.288982 0.220456
vt 0.281250 0.136409
vt 0.307759 0.125000
vt 0.281250 0.176489
vt 0.270963 0.142568
vn 0.3073 0.9150 -0.2613
vn 0.3054 0.9142 -0.2665
vn -0.5537 -0.7597 -0.3411
vn -0.8850 -0.0137 0.4654
vn -0.8850 -0.0078 0.4655
vn -0.6516 0.5844 0.4836
vn 0.3069 -0.7668 -0.5638
vn -0.5477 -0.7614 -0.3468
vn 0.3100 0.9142 -0.2611
vn 0.9445 0.1242 -0.3042
vn 0.9436 0.1008 -0.3154
vn 0.3019 -0.7697 -0.5626
vn -0.8828 -0.0143 0.4696
vn -0.0317 0.1156 0.9928
vn -0.0363 0.1075 0.9935
vn -0.0317 0.1142 0.9930
vn 0.3769 -0.8816 0.2841
vn 0.3225 -0.9217 0.2155
vn 0.3590 -0.9134 0.1919
vn 0.4173 -0.8809 0.2230
vn 0.2571 -0.9565 0.1374
vn 0.2415 -0.9569 0.1610
vn 0.3957 -0.8282 0.3968
vn 0.4086 -0.8488 0.3354
vn 0.4253 -0.7711 0.4737
vn 0.2743 -0.9217 0.2743
vn 0.2074 -0.9569 0.2031
vn 0.3120 -0.8283 0.4654
vn 0.3316 -0.7723 0.5418
vn 0.2155 -0.9217 0.3225
vn 0.1661 -0.9569 0.2381
vn 0.2138 -0.8288 0.5171
vn 0.2999 -0.7715 0.5611
vn 0.2602 -0.7729 0.5787
vn 0.1480 -0.9218 0.3583
vn 0.1189 -0.9569 0.2649
vn 0.1847 -0.7715 0.6088
vn 0.1586 -0.8356 0.5259
vn 0.1060 -0.8820 0.4591
vn 0.1272 -0.8967 0.4240
vn 0.1293 -0.8815 0.4540
vn 0.0464 -0.8809 0.4709
usemtl None
s off
f 3/1/1 5/2/1 60/3/1 52/4/1 4/5/1 1/6/1
f 2/7/2 1/6/2 4/8/2
f 1/6/3 54/9/3 48/10/3
f 6/11/4 1/6/4 48/12/4 49/13/4 39/14/4 40/15/4
f 3/16/5 1/6/5 6/17/5
f 5/18/6 3/1/6 6/17/6
f 4/19/7 50/20/7 51/21/7 59/22/7 2/7/7
f 2/23/8 55/24/8 56/25/8 63/26/8 43/27/8 42/28/8 41/29/8 54/30/8 1/6/8
f 45/31/9 4/19/9 52/32/9 44/33/9
f 61/34/10 4/19/10 45/35/10 53/36/10 62/37/10
f 61/38/11 50/39/11 4/19/11
f 2/23/12 59/40/12 55/41/12
f 40/42/13 57/43/13 6/11/13
f 58/44/14 60/45/14 5/18/14 6/46/14
f 47/47/15 6/46/15 57/48/15
f 58/49/16 6/46/16 47/50/16 46/51/16
s 1
f 30/52/17 7/53/18 24/54/19 23/55/20 29/56/20
f 22/57/21 24/54/19 7/53/18 34/58/22 32/59/21
f 8/60/23 31/61/24 28/62/25
f 8/60/23 9/63/26 7/53/18 30/52/17 31/61/24
f 7/53/18 9/63/26 33/64/27 34/58/22
f 10/65/28 8/60/23 28/62/25 27/66/29
f 9/63/26 8/60/23 10/65/28 11/67/30
f 33/64/27 9/63/26 11/67/30 17/68/31
f 12/69/32 10/65/28 27/66/29 25/70/33 26/71/33 36/72/33 37/73/34
f 11/67/30 10/65/28 12/69/32 13/74/35
f 11/67/30 13/74/35 16/75/36 17/68/31
f 20/76/37 19/77/38 12/69/32 37/73/34 38/78/37 35/79/37
f 14/80/39 15/81/40 13/74/35 12/69/32 19/77/38 21/82/41
f 16/75/36 13/74/35 15/81/40
f 21/82/41 18/83/42 14/80/39
