# Blender v3.0.0 OBJ File: 'Sphere_Cell_Fracture.blend'
# www.blender.org
mtllib Sphere_Cell_Fracture27.mtl
v 0.803526 -0.465939 -0.180409
v 0.797415 -0.467942 -0.190992
v 0.923879 -0.000000 -0.382683
v 0.906127 -0.195090 -0.375330
v 0.853553 -0.382683 -0.353553
v 0.961940 -0.195090 -0.191342
v 0.906128 -0.382683 -0.180240
v 0.976316 -0.195090 -0.045375
v 0.926985 0.043011 -0.357923
v 0.971864 -0.000000 -0.224500
v 0.979236 -0.016039 -0.194782
v 0.945757 -0.305722 -0.014908
v 0.921022 -0.382683 -0.029013
v 0.838051 -0.414077 -0.347132
v 0.877731 -0.455587 -0.072909
v 0.815861 -0.512151 -0.240563
v 0.848528 -0.492555 -0.168783
v 0.847714 0.031643 -0.518599
v 0.919305 0.050275 -0.380788
v 0.850807 -0.000000 -0.519392
v 0.854574 -0.195090 -0.471779
v 0.842895 -0.382683 -0.373494
v 0.926985 0.043011 -0.357923
v 0.971864 -0.000000 -0.224500
v 0.976316 -0.195090 -0.045375
v 0.979236 -0.016039 -0.194782
v 0.945757 -0.305722 -0.014908
v 0.921022 -0.382683 -0.029013
v 0.815861 -0.512151 -0.240563
v 0.848528 -0.492555 -0.168783
v 0.919305 0.050275 -0.380788
v 0.847714 0.031643 -0.518599
v 0.850807 -0.000000 -0.519392
v 0.854574 -0.195090 -0.471779
v 0.842895 -0.382683 -0.373494
v 0.838051 -0.414077 -0.347132
v 0.877731 -0.455587 -0.072909
vt 0.405424 0.000000
vt 1.000000 0.000000
vt 1.000000 0.590882
vt 0.879005 0.604090
vt 0.594551 0.370157
vt 0.555397 0.307170
vt 0.590882 0.590882
vt 0.000000 0.000000
vt 1.000000 0.000000
vt 0.688869 0.273831
vt 0.577258 0.577258
vt 0.000000 0.000000
vt 0.618600 0.000000
vt 0.618600 0.618600
vt 0.523400 0.303050
vt 0.634177 0.634177
vt 0.319213 0.000000
vt 1.000000 0.594576
vt 0.891225 0.530560
vt 0.127400 0.000000
vt 1.000000 1.000000
vt 0.127399 0.127399
vt 0.161494 0.073960
vt 0.423302 0.009413
vt 0.726654 0.212279
vt 0.787164 0.296258
vt 1.000000 0.680787
vt 0.562500 0.375000
vt 0.562500 0.363651
vt 0.566401 0.375000
vt 0.562500 0.516106
vt 0.562500 0.500000
vt 0.587211 0.500000
vt 0.587353 0.510137
vt 0.562500 0.437500
vt 0.580275 0.437500
vt 0.536149 0.500000
vt 0.558622 0.513779
vt 0.531250 0.494862
vt 0.531250 0.437500
vt 0.531250 0.375000
vt 0.545632 0.328196
vt 0.531250 0.335280
vt 0.505030 0.375000
vt 0.513201 0.348645
vt 0.507411 0.437500
vt 0.502515 0.400641
vn -0.8502 0.3453 0.3975
vn -0.8482 0.3071 0.4317
vn -0.8205 0.1601 0.5488
vn -0.5656 -0.6867 0.4566
vn -0.5377 -0.7187 0.4409
vn -0.8512 0.3451 0.3955
vn -0.9565 -0.0865 -0.2788
vn 0.8544 -0.3805 -0.3539
vn 0.8342 -0.4707 -0.2872
vn 0.8251 -0.3530 -0.4410
vn 0.9170 0.0980 -0.3865
vn 0.9239 0.0000 -0.3827
vn 0.8819 0.0081 -0.4714
vn 0.8777 0.0975 -0.4691
vn 0.9063 -0.1939 -0.3754
vn 0.8684 -0.1743 -0.4642
vn 0.9540 -0.0780 -0.2894
vn 0.9524 0.0975 -0.2889
vn 0.9653 -0.0979 -0.2420
vn 0.9622 -0.1939 -0.1914
vn 0.9070 -0.3805 -0.1804
vn 0.8448 -0.4696 -0.2563
vn 0.8611 -0.4713 -0.1906
vn 0.9294 -0.3576 -0.0915
vn 0.8786 -0.4696 -0.0865
vn 0.9692 -0.2271 -0.0954
vn 0.9527 -0.2890 -0.0938
usemtl None
s off
f 23/1/1 2/2/1 27/3/1 25/4/1 26/5/1 24/6/1
f 27/7/2 2/8/2 1/9/2
f 28/10/3 27/11/3 1/12/3 37/13/3
f 37/14/4 1/12/4 2/2/4
f 30/15/5 37/16/5 2/8/5 29/17/5
f 23/18/6 31/19/6 32/20/6 2/2/6
f 2/21/7 32/22/7 33/23/7 34/24/7 35/25/7 14/26/7 29/27/7
s 1
f 5/28/8 36/29/9 22/30/10
f 19/31/11 3/32/12 20/33/13 18/34/14
f 3/32/12 4/35/15 21/36/16 20/33/13
f 4/35/15 5/28/8 22/30/10 21/36/16
f 10/37/17 3/32/12 19/31/11 9/38/18
f 11/39/19 6/40/20 4/35/15 3/32/12 10/37/17
f 5/28/8 4/35/15 6/40/20 7/41/21
f 16/42/22 36/29/9 5/28/8 7/41/21 17/43/23
f 17/43/23 7/41/21 13/44/24 15/45/25
f 8/46/26 6/40/20 11/39/19
f 13/44/24 7/41/21 6/40/20 8/46/26 12/47/27
