# Blender v3.0.0 OBJ File: 'Sphere_Cell_Fracture.blend'
# www.blender.org
mtllib Sphere_Cell_Fracture38.mtl
v 0.239915 0.281350 0.726646
v 0.234416 0.187999 0.764087
v 0.198980 0.106800 0.845844
v 0.279902 0.009262 0.920479
v 0.513280 0.382683 0.768178
v 0.544895 0.195090 0.815493
v 0.353553 0.382683 0.853553
v 0.375330 0.195090 0.906127
v 0.382683 -0.000000 0.923879
v 0.180240 0.382683 0.906127
v 0.191342 0.195090 0.961939
v 0.527731 0.382683 0.756318
v 0.633318 0.287284 0.706921
v 0.509702 0.394731 0.762823
v 0.178124 0.511644 0.835083
v 0.334977 0.473501 0.808706
v 0.166505 0.514397 0.837077
v 0.122331 0.515934 0.840607
v 0.378485 -0.007635 0.924371
v 0.335825 -0.000000 0.938093
v 0.289278 0.008295 0.951364
v 0.393648 -0.010362 0.916866
v 0.593342 0.087051 0.789433
v 0.631921 0.195090 0.744073
v 0.632981 0.254369 0.720052
v 0.552610 0.054084 0.827040
v 0.545599 0.051027 0.831128
v 0.424877 -0.000000 0.901326
v 0.117157 0.482043 0.859231
v 0.102200 0.382683 0.913814
v 0.102303 0.360077 0.920661
v 0.102644 0.302572 0.938071
v 0.117136 0.280816 0.943244
v 0.191824 0.169970 0.964366
v 0.195238 0.164285 0.963913
v 0.175950 0.195090 0.963455
v 0.527731 0.382683 0.756318
v 0.633318 0.287284 0.706921
v 0.393648 -0.010362 0.916866
v 0.378485 -0.007635 0.924371
v 0.178124 0.511644 0.835083
v 0.166505 0.514397 0.837077
v 0.335825 -0.000000 0.938093
v 0.289278 0.008295 0.951364
v 0.593342 0.087051 0.789433
v 0.631921 0.195090 0.744073
v 0.552610 0.054084 0.827040
v 0.424877 -0.000000 0.901326
v 0.117157 0.482043 0.859231
v 0.102200 0.382683 0.913814
v 0.102644 0.302572 0.938071
v 0.117136 0.280816 0.943244
v 0.175950 0.195090 0.963455
v 0.122331 0.515934 0.840607
v 0.632981 0.254369 0.720052
v 0.102303 0.360077 0.920661
v 0.195238 0.164285 0.963913
v 0.545599 0.051027 0.831128
v 0.509702 0.394731 0.762823
v 0.334977 0.473501 0.808706
v 0.191824 0.169970 0.964366
vt 0.335320 0.335320
vt 0.000000 0.000000
vt 0.562576 0.000000
vt 0.383336 0.271317
vt 1.000000 0.000000
vt 1.000000 0.155374
vt 0.879230 0.080678
vt 0.760805 0.000000
vt 0.155374 0.155374
vt 0.000000 0.000000
vt 0.191810 0.000000
vt 1.000000 0.000000
vt 1.000000 0.647148
vt 0.778589 0.431112
vt 0.397913 0.000000
vt 1.000000 0.000000
vt 1.000000 0.644521
vt 0.647148 0.647148
vt 0.000000 0.000000
vt 1.000000 1.000000
vt 0.576182 0.000000
vt 1.000000 0.437424
vt 0.629184 0.000000
vt 0.632495 0.091627
vt 0.576182 0.576182
vt 0.448054 0.000000
vt 1.000000 0.000000
vt 1.000000 0.477080
vt 0.477080 0.477080
vt 0.000000 0.000000
vt 1.000000 0.335337
vt 0.988823 0.345277
vt 0.910867 0.383168
vt 0.335337 0.335337
vt 0.239195 0.000000
vt 0.336485 0.158252
vt 0.895789 0.255095
vt 0.828183 0.226346
vt 0.355479 0.000000
vt 0.335320 0.000000
vt 0.602087 0.000000
vt 0.502647 0.437806
vt 0.487363 0.487363
vt 1.000000 1.000000
vt 0.551946 0.000000
vt 1.000000 0.370816
vt 1.000000 0.487363
vt 0.811556 0.541370
vt 1.000000 0.808190
vt 1.000000 1.000000
vt 0.343750 0.625000
vt 0.346976 0.625000
vt 0.343750 0.629355
vt 0.343750 0.562500
vt 0.362048 0.562500
vt 0.364746 0.582250
vt 0.366251 0.593216
vt 0.343750 0.517327
vt 0.352599 0.527888
vt 0.312500 0.657831
vt 0.312500 0.625000
vt 0.312500 0.562500
vt 0.342443 0.516347
vt 0.312500 0.500000
vt 0.320127 0.500000
vt 0.312500 0.497334
vt 0.314559 0.496680
vt 0.283434 0.671620
vt 0.281250 0.672616
vt 0.281250 0.625000
vt 0.281250 0.562500
vt 0.281808 0.552631
vt 0.296979 0.502658
vt 0.304694 0.500000
vt 0.281250 0.554452
vt 0.267719 0.625000
vt 0.273019 0.673171
vt 0.271564 0.660919
vt 0.278736 0.562500
vt 0.267612 0.617468
vt 0.267342 0.598309
vt 0.269650 0.591061
vn -0.0583 0.4124 -0.9091
vn -0.1697 -0.9853 0.0207
vn -0.1695 -0.9854 0.0155
vn -0.0400 -0.3746 -0.9263
vn -0.0410 -0.3699 -0.9282
vn -0.8343 -0.1622 -0.5269
vn -0.8350 -0.1630 -0.5255
vn -0.8363 -0.5083 0.2054
vn -0.8274 -0.5148 0.2244
vn -0.8242 -0.5157 0.2341
vn -0.0520 0.4137 -0.9089
vn -0.1360 -0.6673 -0.7322
vn -0.8353 -0.1638 -0.5248
vn -0.1390 -0.6719 -0.7275
vn 0.5137 0.3805 0.7689
vn 0.5992 0.3282 0.7302
vn 0.4633 0.4711 0.7505
vn 0.5450 0.1939 0.8157
vn 0.6190 0.2189 0.7542
vn 0.6073 0.2890 0.7400
vn 0.5277 0.0980 0.8437
vn 0.6314 0.0975 0.7693
vn 0.3179 0.4713 0.8227
vn 0.3539 0.3805 0.8544
vn 0.3754 0.1939 0.9063
vn 0.4691 0.0975 0.8777
vn 0.3927 -0.0051 0.9196
vn 0.4689 0.0778 0.8798
vn 0.3572 -0.1043 0.9282
vn 0.4569 -0.1135 0.8822
vn 0.2563 0.4696 0.8448
vn 0.1635 0.4714 0.8666
vn 0.1804 0.3805 0.9070
vn 0.1914 0.1939 0.9622
vn 0.2889 0.0975 0.9524
vn 0.2892 0.0871 0.9533
vn 0.2563 0.0978 0.9616
vn 0.0909 0.3750 0.9225
vn 0.0865 0.4696 0.8786
vn 0.0954 0.2283 0.9689
vn 0.0938 0.2890 0.9527
usemtl None
s off
f 41/1/1 1/2/1 54/3/1 42/4/1
f 4/5/2 40/6/2 43/7/2 44/8/2
f 40/9/3 4/10/3 39/11/3
f 2/12/4 55/13/4 46/14/4 45/15/4
f 1/16/5 38/17/5 55/18/5 2/19/5
f 1/20/6 2/19/6 49/21/6 54/22/6
f 2/19/7 56/23/7 50/24/7 49/25/7
f 51/26/8 3/27/8 52/28/8
f 52/29/9 3/30/9 4/5/9 57/31/9 34/32/9 53/33/9
f 57/34/10 4/10/10 44/35/10
f 16/36/11 14/37/11 12/38/11 38/39/11 1/2/11 41/40/11
f 2/19/12 45/41/12 47/42/12 58/43/12
f 2/44/13 3/30/13 51/45/13 56/46/13
f 2/12/14 58/47/14 28/48/14 39/49/14 4/50/14 3/30/14
s 1
f 5/51/15 37/52/16 59/53/17
f 37/52/16 5/51/15 6/54/18 24/55/19 25/56/20 13/57/20
f 6/54/18 26/58/21 23/59/22 24/55/19
f 60/60/23 7/61/24 5/51/15 59/53/17
f 6/54/18 5/51/15 7/61/24 8/62/25
f 27/63/26 26/58/21 6/54/18 8/62/25 9/64/27 48/65/28
f 9/64/27 19/66/29 22/67/30 48/65/28
f 15/68/31 17/69/32 10/70/33 7/61/24 60/60/23
f 8/62/25 7/61/24 10/70/33 11/71/34
f 35/72/35 21/73/35 20/74/36 9/64/27 8/62/25 11/71/34 61/75/37
f 19/66/29 9/64/27 20/74/36
f 30/76/38 10/70/33 17/69/32 18/77/39 29/78/39
f 36/79/40 11/71/34 10/70/33 30/76/38 31/80/41 32/81/41 33/82/41
f 61/75/37 11/71/34 36/79/40
