# Blender v3.0.0 OBJ File: 'Sphere_Cell_Fracture.blend'
# www.blender.org
mtllib Sphere_Cell_Fracture28.mtl
v 0.896456 0.147934 0.242716
v 0.739797 0.244086 0.145177
v 0.557312 0.425071 -0.001648
v 0.546039 0.396145 -0.300382
v 0.716246 0.443693 -0.459146
v 0.501006 0.398441 -0.083531
v 0.497373 0.412695 -0.201210
v 0.768178 0.555570 -0.318190
v 0.853553 0.382683 -0.353553
v 0.815493 0.555570 -0.162212
v 0.906127 0.382683 -0.180240
v 0.831469 0.555570 0.000000
v 0.923879 0.382683 0.000000
v 0.980785 0.195090 0.000000
v 0.961940 0.195090 0.191342
v 0.755232 0.598001 -0.241486
v 0.759606 0.539225 -0.352670
v 0.762847 0.555570 -0.328163
v 0.762955 0.562459 -0.316026
v 0.778233 0.601861 -0.154800
v 0.793062 0.596883 -0.045715
v 0.858690 0.364355 -0.355681
v 0.764229 0.435509 -0.461057
v 0.745373 0.465204 -0.462825
v 0.941548 0.263629 -0.187286
v 0.754869 0.515016 -0.388851
v 0.795949 0.595893 -0.024653
v 0.797981 0.595109 -0.010554
v 0.810137 0.581564 0.000000
v 0.829594 0.555570 0.019038
v 0.869611 0.470603 0.073857
v 0.974497 0.195090 -0.063845
v 0.984137 0.161054 0.000000
v 0.979842 0.118764 0.085897
v 0.981822 0.138043 0.046518
v 0.934957 0.285782 0.185975
v 0.937570 0.268416 0.195422
v 0.970670 0.123629 0.174164
v 0.972168 0.114353 0.168230
v 0.965941 0.153662 0.192138
v 0.911038 0.382683 0.130378
v 0.947327 0.203856 0.230396
v 0.952587 0.195090 0.222174
v 0.837311 0.382683 -0.383941
v 0.759606 0.539225 -0.352670
v 0.762847 0.555570 -0.328163
v 0.755232 0.598001 -0.241486
v 0.762955 0.562459 -0.316026
v 0.778233 0.601861 -0.154800
v 0.858690 0.364355 -0.355681
v 0.941548 0.263629 -0.187286
v 0.797981 0.595109 -0.010554
v 0.810137 0.581564 0.000000
v 0.829594 0.555570 0.019038
v 0.974497 0.195090 -0.063845
v 0.984137 0.161054 0.000000
v 0.793062 0.596883 -0.045715
v 0.795949 0.595893 -0.024653
v 0.764229 0.435509 -0.461057
v 0.745373 0.465204 -0.462825
v 0.970670 0.123629 0.174164
v 0.965941 0.153662 0.192138
v 0.934957 0.285782 0.185975
v 0.911038 0.382683 0.130378
v 0.947327 0.203856 0.230396
v 0.952587 0.195090 0.222174
v 0.837311 0.382683 -0.383941
v 0.754869 0.515016 -0.388851
v 0.869611 0.470603 0.073857
v 0.981822 0.138043 0.046518
v 0.979842 0.118764 0.085897
v 0.972168 0.114353 0.168230
v 0.937570 0.268416 0.195422
vt 0.658975 0.236125
vt 0.602455 0.161455
vt 0.486137 0.000000
vt 1.000000 0.000000
vt 1.000000 0.665058
vt 0.665058 0.665058
vt 0.000000 0.000000
vt 0.824845 0.000000
vt 0.752233 0.383005
vt 1.000000 0.099943
vt 0.839348 0.000000
vt 1.000000 0.000000
vt 1.000000 0.452354
vt 0.099943 0.099943
vt 0.000000 0.000000
vt 1.000000 0.000000
vt 1.000000 0.513863
vt 0.452354 0.452354
vt 0.000000 0.000000
vt 1.000000 1.000000
vt 0.000000 0.000000
vt 1.000000 0.000000
vt 0.000000 0.000000
vt 0.831188 0.000000
vt 1.000000 0.175155
vt 1.000000 0.000000
vt 1.000000 0.000000
vt 1.000000 0.806157
vt 0.831188 0.831188
vt 0.806157 0.806157
vt 0.000000 0.000000
vt 1.000000 0.661123
vt 0.895764 0.776026
vt 0.841048 0.798216
vt 0.495452 0.316310
vt 0.661123 0.661123
vt 0.268548 0.000000
vt 0.303634 0.041218
vt 0.268548 0.268548
vt 0.331703 0.000000
vt 1.000000 1.000000
vt 0.135379 0.135379
vt 1.000000 0.084230
vt 0.084230 0.084230
vt 0.385887 0.000000
vt 1.000000 0.000000
vt 1.000000 1.000000
vt 0.000000 0.000000
vt 1.000000 0.516837
vt 0.385887 0.385887
vt 1.000000 0.668297
vt 0.516837 0.516837
vt 0.677595 0.547419
vt 0.933618 0.634103
vt 1.000000 1.000000
vt 1.000000 0.160652
vt 0.860405 0.249318
vt 0.809624 0.264144
vt 0.510124 0.206833
vt 0.292510 0.073939
vt 0.186287 0.164350
vt 0.135379 0.000000
vt 0.562500 0.687500
vt 0.564668 0.687500
vt 0.562500 0.690341
vt 0.562500 0.625000
vt 0.568445 0.625000
vt 0.586351 0.644097
vt 0.588418 0.654832
vt 0.575699 0.672839
vt 0.569161 0.681591
vt 0.562500 0.618894
vt 0.531250 0.625000
vt 0.531250 0.585335
vt 0.531250 0.706592
vt 0.531250 0.687500
vt 0.549233 0.705000
vt 0.500000 0.698221
vt 0.500000 0.687500
vt 0.509218 0.704539
vt 0.504990 0.704131
vt 0.502144 0.703808
vt 0.500000 0.625000
vt 0.500000 0.562500
vt 0.510427 0.562500
vt 0.500000 0.551596
vt 0.471755 0.539606
vt 0.472743 0.536635
vt 0.486079 0.538048
vt 0.492452 0.544224
vt 0.468750 0.562500
vt 0.468750 0.549228
vt 0.496332 0.687500
vt 0.477395 0.625000
vt 0.486510 0.656784
vt 0.468750 0.592716
vt 0.461999 0.565421
vt 0.463513 0.562500
vt 0.467283 0.586930
vn -0.5753 0.7136 -0.3999
vn -0.5679 0.8151 0.1144
vn -0.0557 -0.0946 -0.9940
vn -0.5758 0.7105 -0.4045
vn -0.5756 0.7125 -0.4014
vn -0.4782 -0.8735 -0.0910
vn -0.5685 0.8145 0.1162
vn -0.4795 -0.8730 -0.0896
vn -0.5692 0.8123 0.1272
vn -0.2709 0.4285 0.8620
vn -0.2659 0.4295 0.8630
vn -0.2620 0.4288 0.8646
vn -0.1717 -0.8814 -0.4401
vn -0.4775 -0.8739 -0.0913
vn -0.2828 0.4160 0.8643
vn -0.4823 -0.8719 -0.0849
vn 0.5564 -0.3821 0.7378
vn 0.5692 -0.3544 0.7419
vn -0.7511 -0.2677 0.6035
vn -0.1680 -0.8802 -0.4438
vn 0.7699 0.5528 -0.3189
vn 0.7602 0.5069 -0.4063
vn 0.7256 0.6341 -0.2673
vn 0.8544 0.3805 -0.3539
vn 0.7912 0.4417 -0.4229
vn 0.7786 0.4696 -0.4162
vn 0.8955 0.2901 -0.3375
vn 0.9070 0.3805 -0.1804
vn 0.9442 0.2901 -0.1556
vn 0.7581 0.6344 -0.1509
vn 0.8173 0.5528 -0.1626
vn 0.7411 0.6326 -0.2248
vn 0.7720 0.6336 -0.0503
vn 0.8333 0.5528 0.0000
vn 0.7708 0.6326 -0.0759
vn 0.9247 0.3805 0.0000
vn 0.9810 0.1939 0.0000
vn 0.9610 0.2597 -0.0946
vn 0.9947 0.0980 0.0300
vn 0.9904 0.0975 0.0975
vn 0.9622 0.1939 0.1914
vn 0.9857 0.0978 0.1366
vn 0.8447 0.5288 0.0832
vn 0.9311 0.3531 0.0917
vn 0.8786 0.4696 0.0865
vn 0.9495 0.2896 0.1208
vn 0.9161 0.2890 0.2779
vn 0.9297 0.2369 0.2820
usemtl None
s off
f 48/1/1 46/2/1 45/3/1 7/4/1 47/5/1
f 47/6/2 7/7/2 57/8/2 49/9/2
f 60/10/3 59/11/3 5/12/3
f 68/13/4 60/14/4 5/15/4 4/16/4
f 45/17/5 68/18/5 4/19/5 7/4/5
f 7/20/6 1/21/6 6/22/6
f 7/20/7 6/23/7 58/24/7 57/25/7
f 4/19/8 1/26/8 7/20/8
f 6/23/9 3/27/9 52/28/9 58/29/9
f 52/30/10 3/31/10 1/26/10 69/32/10 54/33/10 53/34/10
f 64/35/11 69/36/11 1/21/11 73/37/11 63/38/11
f 73/39/12 1/21/12 65/40/12
f 4/41/13 35/42/13 71/43/13
f 1/26/14 4/41/14 71/44/14 72/45/14
f 3/31/15 2/46/15 1/47/15
f 6/22/16 1/47/16 2/48/16
f 61/49/17 1/47/17 72/50/17
f 65/51/18 1/47/18 61/52/18 62/53/18 66/54/18
f 2/48/19 3/27/19 6/55/19
f 4/16/20 5/12/20 59/56/20 44/57/20 22/58/20 25/59/20 32/60/20 33/61/20 35/62/20
s 1
f 8/63/21 18/64/22 19/65/23
f 18/64/22 8/63/21 9/66/24 67/67/25 23/68/26 24/69/26 26/70/26 17/71/26
f 9/66/24 50/72/27 67/67/25
f 50/72/27 9/66/24 11/73/28 51/74/29
f 20/75/30 10/76/31 8/63/21 19/65/23 16/77/32
f 9/66/24 8/63/21 10/76/31 11/73/28
f 29/78/33 12/79/34 10/76/31 20/75/30 21/80/35 27/81/35 28/82/35
f 11/73/28 10/76/31 12/79/34 13/83/36
f 51/74/29 11/73/28 13/83/36 14/84/37 55/85/38
f 14/84/37 56/86/39 55/85/38
f 38/87/40 39/88/40 34/89/40 70/90/40 56/86/39 14/84/37 15/91/41 40/92/42
f 30/93/43 12/79/34 29/78/33
f 41/94/44 13/83/36 12/79/34 30/93/43 31/95/45
f 36/96/46 15/91/41 14/84/37 13/83/36 41/94/44
f 42/97/47 43/98/48 15/91/41 36/96/46 37/99/47
f 40/92/42 15/91/41 43/98/48
