# Blender v3.0.0 OBJ File: 'Sphere_Cell_Fracture.blend'
# www.blender.org
mtllib Sphere_Cell_Fracture21.mtl
v -0.008908 -0.589955 0.295063
v -0.203338 -0.115383 0.447484
v 0.362235 -0.404943 -0.021179
v 0.129705 -0.096480 0.167619
v 0.392365 -0.356997 -0.047622
v -0.047523 -0.631612 0.271376
v -0.277225 -0.620155 0.232661
v -0.408142 -0.574252 0.226461
v -0.400398 -0.130236 0.405598
v -0.311848 -0.100118 0.433741
v -0.384542 -0.107021 0.417562
v -0.077268 -0.691810 0.182877
v -0.072827 -0.694208 0.167340
v -0.031705 -0.701743 0.060032
v 0.001148 -0.696794 0.003139
v 0.333023 -0.459277 -0.097290
v -0.314949 -0.054763 0.213783
v -0.234316 -0.406114 -0.157832
v 0.148447 -0.087231 0.113817
v 0.316267 -0.230696 -0.058083
v -0.142450 -0.512025 -0.279745
v 0.246703 -0.394347 -0.215091
v -0.317261 -0.617467 -0.032588
v -0.289583 -0.607688 -0.103144
v -0.376501 -0.078676 0.366920
v -0.387072 -0.092095 0.388391
v -0.056838 -0.702702 0.090934
v -0.206282 -0.605305 -0.206689
v 0.354319 -0.426009 -0.124771
vt 0.000000 0.000000
vt 1.000000 0.000000
vt 1.000000 1.000000
vt 0.000000 0.000000
vt 1.000000 0.000000
vt 0.000000 0.000000
vt 1.000000 0.000000
vt 0.000000 0.000000
vt 1.000000 0.000000
vt 0.000000 0.000000
vt 1.000000 0.000000
vt 0.000000 0.000000
vt 1.000000 0.000000
vt 0.000000 0.000000
vt 1.000000 0.000000
vt 0.000000 0.000000
vt 1.000000 1.000000
vt 1.000000 0.000000
vt 0.000000 0.000000
vt 1.000000 0.000000
vt 1.000000 0.000000
vt 1.000000 1.000000
vt 0.000000 0.000000
vt 1.000000 0.000000
vt 0.000000 0.000000
vt 1.000000 0.000000
vt 1.000000 0.000000
vt 1.000000 1.000000
vt 0.000000 0.000000
vt 1.000000 0.000000
vt 1.000000 1.000000
vt 0.000000 0.000000
vt 1.000000 0.000000
vt 0.000000 0.000000
vt 1.000000 0.000000
vt 0.000000 0.000000
vt 1.000000 0.000000
vt 1.000000 1.000000
vt 0.000000 0.000000
vt 0.000000 0.000000
vt 1.000000 0.000000
vt 0.000000 0.000000
vt 0.000000 0.000000
vt 1.000000 1.000000
vt 0.000000 0.000000
vt 1.000000 1.000000
vt 1.000000 0.000000
vt 0.000000 0.000000
vt 1.000000 0.000000
vt 1.000000 1.000000
vt 1.000000 0.000000
vt 1.000000 1.000000
vt 1.000000 0.000000
vt 1.000000 1.000000
vt 0.000000 0.000000
vt 0.000000 0.000000
vt 1.000000 0.000000
vt 0.000000 0.000000
vt 1.000000 0.000000
vt 0.000000 0.000000
vt 1.000000 0.000000
vt 1.000000 1.000000
vt 1.000000 1.000000
vt 1.000000 1.000000
vt 0.000000 0.000000
vt 0.000000 0.000000
vt 1.000000 1.000000
vt 1.000000 0.000000
vt 1.000000 1.000000
vt 1.000000 0.000000
vt 1.000000 0.000000
vt 1.000000 1.000000
vt 0.000000 0.000000
vt 1.000000 1.000000
vt 1.000000 1.000000
vn -0.7789 0.0430 -0.6256
vn -0.7791 0.0440 -0.6253
vn -0.1018 0.7117 -0.6950
vn -0.1009 0.7120 -0.6949
vn -0.0991 0.7105 -0.6967
vn 0.3189 -0.7093 -0.6286
vn 0.3188 -0.7100 -0.6279
vn -0.2625 -0.9364 -0.2328
vn 0.3191 -0.7118 -0.6258
vn -0.2129 -0.9551 -0.2060
vn -0.9293 0.1261 -0.3471
vn -0.9242 0.1566 -0.3483
vn -0.1675 -0.3631 0.9166
vn -0.9234 0.1666 -0.3458
vn -0.9224 0.1778 -0.3430
vn 0.1107 0.9742 0.1966
vn -0.0995 0.7140 -0.6930
vn 0.7894 0.5046 0.3496
vn 0.6747 0.3528 -0.6483
vn 0.6601 0.3547 -0.6622
vn -0.2156 -0.9549 -0.2042
vn 0.3274 -0.7175 -0.6148
vn -0.3323 -0.9423 0.0406
vn -0.3265 -0.9445 0.0367
vn -0.3290 -0.9435 0.0401
vn 0.6134 -0.7354 0.2879
vn 0.6033 -0.7454 0.2835
vn 0.2264 -0.9617 0.1543
vn -0.1724 -0.3681 0.9137
vn -0.1721 -0.3660 0.9146
vn -0.1705 -0.3569 0.9185
vn -0.8530 0.4309 0.2944
vn -0.1690 -0.3641 0.9159
vn 0.8558 -0.5157 0.0395
vn -0.1849 0.8683 0.4603
vn -0.1816 0.8716 0.4554
vn 0.1109 0.9725 0.2048
vn 0.1128 0.9731 0.2010
vn 0.7889 0.4977 0.3604
vn 0.1203 0.9705 0.2088
vn -0.9235 0.1580 -0.3496
vn 0.6436 0.0169 0.7651
vn -0.3252 -0.9442 0.0528
vn -0.1389 -0.7965 0.5885
vn 0.6119 -0.7343 0.2938
vn 0.6427 0.0173 0.7660
vn 0.6141 -0.7334 0.2916
vn 0.6137 -0.7347 0.2889
usemtl None
s off
f 28/1/1 24/2/1 21/3/1
f 24/4/2 18/5/2 21/3/2
f 18/6/3 17/7/3 21/3/3
f 17/8/4 20/9/4 21/3/4
f 20/10/5 22/11/5 21/3/5
f 22/12/6 29/13/6 21/3/6
f 29/14/7 28/15/7 21/3/7
f 23/16/8 24/2/8 28/17/8
f 29/14/9 15/18/9 28/17/9
f 15/19/10 14/20/10 28/17/10
f 23/16/11 8/21/11 24/22/11
f 8/23/12 9/24/12 24/22/12
f 1/25/13 2/26/13 10/27/13 9/28/13
f 9/29/14 26/30/14 17/31/14
f 26/32/15 25/33/15 17/31/15
f 25/34/16 19/35/16 17/31/16
f 19/36/17 20/9/17 17/31/17
f 19/36/18 5/37/18 20/38/18
f 5/39/19 29/13/19 20/38/19
f 29/14/20 22/11/20 20/38/20
f 27/40/21 23/41/21 28/17/21 14/42/21
f 16/43/22 15/18/22 29/44/22
f 7/45/23 8/21/23 23/46/23
f 27/40/24 13/47/24 23/46/24
f 13/48/25 7/49/25 23/46/25
f 16/43/26 13/47/26 15/50/26
f 13/48/27 14/20/27 15/50/27
f 13/48/28 27/51/28 14/52/28
f 7/45/29 6/53/29 8/54/29
f 6/55/30 9/24/30 8/54/30
f 10/56/31 11/57/31 9/28/31
f 11/58/32 26/30/32 9/28/32
f 6/55/33 1/59/33 9/28/33
f 3/60/34 16/61/34 29/44/34 5/62/34
f 11/58/35 10/27/35 26/63/35
f 10/56/36 25/33/36 26/63/36
f 10/56/37 2/26/37 25/64/37
f 2/65/38 19/35/38 25/64/38
f 4/66/39 5/37/39 19/67/39
f 2/65/40 4/68/40 19/67/40
f 17/8/41 18/5/41 24/22/41 9/29/41
f 4/68/42 1/69/42 3/70/42 5/62/42
f 13/48/43 12/71/43 7/72/43
f 12/73/44 6/53/44 7/72/44
f 12/73/45 1/59/45 6/74/45
f 4/66/46 2/26/46 1/69/46
f 12/73/47 3/70/47 1/69/47
f 3/60/48 12/71/48 13/47/48 16/75/48
