# Blender v3.0.0 OBJ File: 'Sphere_Cell_Fracture.blend'
# www.blender.org
mtllib Sphere_Cell_Fracture59.mtl
v 0.071416 0.932436 -0.274265
v -0.220008 0.703831 -0.586001
v -0.209816 0.607356 -0.613685
v 0.364281 0.335584 -0.260419
v 0.219970 0.864124 -0.181896
v 0.425043 0.398466 -0.189987
v 0.398910 0.353608 -0.227590
v -0.289502 0.737053 -0.001886
v -0.377319 0.656853 -0.183331
v -0.401947 0.504546 -0.125086
v -0.368030 0.449384 0.017994
v 0.315675 0.305317 -0.120929
v 0.327215 0.305027 -0.131744
v 0.357776 0.316209 -0.194088
v 0.274094 0.747567 -0.023363
v 0.095376 0.628763 0.141864
v -0.183027 0.625848 0.150197
v 0.249827 0.699072 0.042958
v -0.272150 0.639997 0.132209
v 0.424065 0.401369 -0.179242
v 0.274127 0.534786 0.060755
v 0.293580 0.503616 0.035826
v -0.320239 0.533844 0.082692
v 0.404320 0.393658 -0.137799
vt 1.000000 0.000000
vt 1.000000 1.000000
vt 0.000000 0.000000
vt 0.000000 0.000000
vt 1.000000 0.000000
vt 0.000000 0.000000
vt 1.000000 0.000000
vt 0.000000 0.000000
vt 1.000000 0.000000
vt 0.000000 0.000000
vt 1.000000 0.000000
vt 1.000000 1.000000
vt 1.000000 1.000000
vt 0.000000 0.000000
vt 1.000000 0.000000
vt 1.000000 1.000000
vt 0.000000 0.000000
vt 1.000000 0.000000
vt 0.000000 0.000000
vt 1.000000 0.000000
vt 0.000000 0.000000
vt 1.000000 0.000000
vt 0.000000 0.000000
vt 1.000000 0.000000
vt 0.000000 0.000000
vt 1.000000 0.000000
vt 1.000000 0.000000
vt 1.000000 1.000000
vt 0.000000 0.000000
vt 1.000000 1.000000
vt 0.000000 0.000000
vt 1.000000 1.000000
vt 1.000000 0.000000
vt 0.000000 0.000000
vt 1.000000 0.000000
vt 1.000000 0.000000
vt 1.000000 1.000000
vt 0.000000 0.000000
vt 1.000000 0.000000
vt 0.000000 0.000000
vt 1.000000 0.000000
vt 0.000000 0.000000
vt 0.000000 0.000000
vt 1.000000 1.000000
vt 1.000000 0.000000
vt 1.000000 1.000000
vt 0.000000 0.000000
vt 1.000000 1.000000
vt 1.000000 0.000000
vt 0.000000 0.000000
vt 1.000000 0.000000
vt 1.000000 1.000000
vt 0.000000 0.000000
vt 1.000000 1.000000
vt 0.000000 0.000000
vt 1.000000 0.000000
vt 1.000000 1.000000
vt 0.000000 0.000000
vt 1.000000 0.000000
vt 1.000000 1.000000
vt 1.000000 1.000000
vn -0.9311 0.0063 -0.3648
vn 0.5905 0.2796 -0.7571
vn 0.5941 0.2752 -0.7558
vn 0.5916 0.2559 -0.7645
vn 0.0301 -0.6179 0.7857
vn 0.0274 -0.6176 0.7860
vn -0.9058 0.2512 0.3412
vn -0.9096 0.2667 0.3185
vn -0.2540 -0.9227 -0.2900
vn -0.2463 -0.9396 -0.2376
vn 0.0291 -0.6187 0.7851
vn -0.9095 0.2685 0.3175
vn -0.9318 0.0120 -0.3626
vn -0.5364 0.8365 -0.1120
vn 0.5959 0.2764 -0.7540
vn -0.5363 0.8368 -0.1103
vn 0.0036 0.8103 0.5860
vn 0.0066 0.8091 0.5877
vn 0.6012 0.2778 -0.7492
vn 0.7491 -0.6237 0.2235
vn 0.5802 -0.7953 -0.1754
vn 0.0092 0.8072 0.5903
vn -0.2361 -0.3209 0.9172
vn -0.2551 -0.9211 -0.2942
vn -0.9073 0.2760 0.3172
vn 0.7458 -0.6218 0.2389
vn 0.7389 -0.6257 0.2500
vn 0.5958 -0.4740 0.6484
vn 0.5863 -0.4612 0.6660
vn 0.9149 0.4034 -0.0157
vn 0.9147 0.4033 -0.0258
vn 0.7421 -0.6271 0.2369
vn 0.4779 0.1642 0.8629
vn 0.0137 0.8048 0.5934
vn 0.0392 -0.6091 0.7921
vn 0.8764 0.1726 0.4497
vn 0.8766 0.1785 0.4470
vn 0.8743 0.1793 0.4510
vn 0.8714 0.1784 0.4569
usemtl None
s off
f 2/1/1 3/2/1 10/3/1
f 2/4/2 1/5/2 3/2/2
f 1/6/3 7/7/3 3/2/3
f 3/2/4 7/8/4 4/9/4
f 22/10/5 16/11/5 17/12/5 12/13/5
f 17/14/6 23/15/6 11/16/6
f 23/17/7 19/18/7 11/16/7
f 19/19/8 10/20/8 11/16/8
f 14/21/9 13/22/9 11/16/9
f 13/23/10 12/24/10 11/16/10
f 12/25/11 17/26/11 11/16/11
f 19/19/12 9/27/12 10/28/12
f 9/29/13 2/1/13 10/28/13
f 2/30/14 9/29/14 1/5/14
f 5/31/15 7/7/15 1/32/15
f 9/29/16 8/33/16 1/32/16
f 8/34/17 19/18/17 1/32/17
f 1/32/18 19/19/18 5/35/18
f 5/31/19 6/36/19 7/37/19
f 6/38/20 14/39/20 7/37/20
f 14/21/21 4/9/21 7/37/21
f 5/31/22 19/18/22 17/12/22 16/40/22 15/41/22
f 19/19/23 23/15/23 17/12/23
f 4/42/24 14/39/24 11/43/24 10/20/24 3/2/24
f 8/34/25 9/27/25 19/44/25
f 6/38/26 24/45/26 14/46/26
f 24/47/27 13/22/27 14/46/27
f 24/47/28 12/24/28 13/48/28
f 24/47/29 22/49/29 12/13/29
f 15/50/30 20/51/30 5/52/30
f 5/52/31 20/53/31 6/36/31
f 20/53/32 24/45/32 6/54/32
f 21/55/33 18/56/33 16/57/33
f 18/58/34 15/41/34 16/57/34
f 22/10/35 21/59/35 16/57/35
f 20/53/36 22/49/36 24/60/36
f 20/53/37 15/41/37 22/61/37
f 15/50/38 18/56/38 22/61/38
f 18/58/39 21/59/39 22/61/39
