# Blender v3.0.0 OBJ File: 'Sphere_Cell_Fracture.blend'
# www.blender.org
mtllib Sphere_Cell_Fracture5.mtl
v 0.000000 0.831470 -0.555570
v 0.220395 0.865626 -0.184029
v 0.426327 0.398785 -0.192364
v 0.072752 0.933826 -0.275995
v -0.219186 0.704196 -0.587816
v -0.209276 0.607739 -0.615222
v 0.364242 0.335762 -0.263417
v 0.400521 0.353980 -0.228242
v 0.074658 0.923880 -0.375330
v 0.108386 0.831470 -0.544895
v 0.137950 0.707107 -0.693520
v 0.566469 0.424067 -0.524964
v 0.469289 0.385147 -0.274780
v 0.077786 0.942644 -0.279904
v -0.202956 0.590237 -0.699254
v 0.099972 0.400242 -0.814719
v 0.239202 0.325439 -0.778808
v 0.315747 0.302641 -0.648325
v 0.384922 0.455247 -0.775479
v 0.263993 0.331331 -0.776037
v 0.146447 0.923880 -0.353553
v 0.420897 0.426367 -0.756038
v 0.212608 0.831470 -0.513280
v 0.386566 0.353287 -0.744637
v 0.270598 0.707107 -0.653281
v 0.318190 0.555570 -0.768178
v 0.407952 0.344821 -0.702374
v 0.212608 0.923880 -0.318190
v 0.308658 0.831470 -0.461940
v 0.392848 0.707107 -0.587938
v 0.461940 0.555570 -0.691342
v 0.552035 0.555268 -0.617610
v 0.565053 0.530731 -0.623812
v 0.510155 0.618466 -0.585319
v 0.483996 0.492247 -0.716815
v 0.461819 0.477838 -0.738291
v 0.443983 0.478572 -0.747382
v 0.244610 0.923880 -0.291926
v 0.238297 0.927548 -0.281538
v 0.451224 0.707107 -0.540029
v 0.347441 0.831470 -0.430112
v 0.420171 0.479810 -0.759362
v 0.211877 0.942833 -0.238351
v 0.056332 0.938937 -0.327499
v 0.000000 0.907915 -0.412550
v 0.024469 0.923880 -0.380273
v -0.108370 0.831514 -0.544812
v -0.171076 0.774736 -0.597771
v -0.217844 0.732262 -0.637407
v -0.215610 0.718800 -0.655144
v -0.149145 0.726845 -0.665111
v -0.094265 0.725011 -0.676006
v -0.132780 0.728851 -0.667533
v 0.029497 0.707107 -0.704202
v 0.000000 0.716294 -0.695912
v 0.148599 0.640594 -0.747057
v 0.242341 0.555570 -0.791186
v 0.261107 0.517299 -0.806767
v 0.320864 0.506001 -0.794920
v 0.328615 0.504601 -0.793348
v 0.375909 0.482339 -0.781496
v 0.393052 0.481290 -0.772965
v 0.088511 0.950021 -0.281508
v 0.063316 0.941515 -0.318311
v 0.113411 0.950066 -0.273798
v 0.169922 0.947186 -0.254306
v 0.244610 0.923880 -0.291926
v 0.347441 0.831470 -0.430112
v 0.552035 0.555268 -0.617610
v 0.565053 0.530731 -0.623812
v 0.461819 0.477838 -0.738291
v 0.443983 0.478572 -0.747382
v 0.238297 0.927548 -0.281538
v 0.510155 0.618466 -0.585319
v 0.451224 0.707107 -0.540029
v 0.056332 0.938937 -0.327499
v 0.024469 0.923880 -0.380273
v -0.149145 0.726845 -0.665111
v -0.132780 0.728851 -0.667533
v 0.483996 0.492247 -0.716815
v 0.261107 0.517299 -0.806767
v 0.320864 0.506001 -0.794920
v 0.420171 0.479810 -0.759362
v 0.393052 0.481290 -0.772965
v 0.113411 0.950066 -0.273798
v 0.169922 0.947186 -0.254306
v -0.217844 0.732262 -0.637407
v -0.215610 0.718800 -0.655144
v 0.063316 0.941515 -0.318311
v 0.211877 0.942833 -0.238351
v 0.000000 0.907915 -0.412550
v -0.108370 0.831514 -0.544812
v -0.171076 0.774736 -0.597771
v -0.094265 0.725011 -0.676006
v 0.000000 0.716294 -0.695912
v 0.029497 0.707107 -0.704202
v 0.148599 0.640594 -0.747057
v 0.242341 0.555570 -0.791186
v 0.328615 0.504601 -0.793348
v 0.375909 0.482339 -0.781496
v 0.088511 0.950021 -0.281508
vt 0.000000 0.000000
vt 1.000000 0.000000
vt 1.000000 1.000000
vt 0.000000 0.000000
vt 1.000000 0.000000
vt 0.000000 0.000000
vt 1.000000 0.000000
vt 0.000000 0.000000
vt 1.000000 0.000000
vt 1.000000 0.000000
vt 1.000000 1.000000
vt 0.000000 0.000000
vt 1.000000 0.505734
vt 1.000000 1.000000
vt 0.415072 0.415072
vt 1.000000 0.000000
vt 0.504509 0.503597
vt 0.244377 0.000000
vt 0.000000 0.000000
vt 1.000000 0.000000
vt 0.000000 0.000000
vt 1.000000 0.415072
vt 0.548961 0.000000
vt 1.000000 0.000000
vt 1.000000 1.000000
vt 0.260052 0.126576
vt 0.340214 0.000000
vt 1.000000 0.000000
vt 1.000000 1.000000
vt 0.706795 0.706795
vt 0.720785 0.539023
vt 0.738960 0.490974
vt 0.875179 0.317228
vt 1.000000 0.000000
vt 0.000000 0.000000
vt 0.000000 0.000000
vt 1.000000 1.000000
vt 0.000000 0.000000
vt 1.000000 0.000000
vt 0.000000 0.000000
vt 1.000000 0.451039
vt 1.000000 1.000000
vt 0.000000 0.000000
vt 0.285866 0.000000
vt 1.000000 0.000000
vt 0.198385 0.000000
vt 0.285866 0.285866
vt 0.160159 0.000000
vt 1.000000 0.755623
vt 0.800155 0.627730
vt 0.474305 0.349836
vt 0.176777 0.023368
vt 0.188695 0.000000
vt 0.198385 0.198385
vt 0.000000 0.000000
vt 1.000000 1.000000
vt 0.160159 0.160159
vt 0.525636 0.000000
vt 1.000000 0.000000
vt 0.000000 0.000000
vt 1.000000 0.000000
vt 1.000000 1.000000
vt 1.000000 0.000000
vt 1.000000 1.000000
vt 1.000000 0.000000
vt 0.000000 0.000000
vt 1.000000 0.667471
vt 0.000000 0.000000
vt 0.140876 0.000000
vt 0.301607 0.051040
vt 0.402700 0.113755
vt 0.821713 0.422143
vt 0.667471 0.667471
vt 1.000000 0.181349
vt 0.181349 0.181349
vt 0.132754 0.000000
vt 1.000000 0.000000
vt 0.132754 0.132754
vt 1.000000 0.581073
vt 1.000000 0.706795
vt 0.581073 0.581073
vt 0.690688 0.608560
vt 0.290904 0.000000
vt 1.000000 1.000000
vt 0.340214 0.340214
vt 1.000000 0.000000
vt 1.000000 1.000000
vt 0.290904 0.290904
vt 0.347827 0.245976
vt 0.778683 0.000000
vt 0.000000 0.000000
vt 1.000000 0.636976
vt 1.000000 1.000000
vt 0.221317 0.000000
vt 0.636976 0.636976
vt 1.000000 0.811305
vt 0.887497 0.021363
vt 0.859124 0.000000
vt 1.000000 0.086038
vt 0.086038 0.086038
vt 1.000000 0.474364
vt 0.690741 0.354771
vt 0.271740 0.174192
vt 1.000000 1.000000
vt 0.000000 0.000000
vt 0.739758 0.875000
vt 0.718750 0.875000
vt 0.718750 0.812500
vt 0.750000 0.812500
vt 0.750000 0.864203
vt 0.750000 0.754617
vt 0.718750 0.750000
vt 0.743318 0.750000
vt 0.718750 0.722567
vt 0.722969 0.891537
vt 0.718750 0.894369
vt 0.687500 0.903761
vt 0.687500 0.875000
vt 0.701523 0.903711
vt 0.687500 0.812500
vt 0.687500 0.750000
vt 0.687500 0.687500
vt 0.702696 0.687500
vt 0.700175 0.673665
vt 0.687500 0.669074
vt 0.688934 0.669580
vt 0.656250 0.687500
vt 0.656250 0.664134
vt 0.661044 0.659399
vt 0.664695 0.659664
vt 0.669567 0.660112
vt 0.675127 0.660647
vt 0.678640 0.661026
vt 0.656250 0.900598
vt 0.656250 0.875000
vt 0.656250 0.812500
vt 0.656250 0.750000
vt 0.641854 0.812500
vt 0.639005 0.875000
vt 0.639225 0.750000
vt 0.635927 0.713441
vt 0.633945 0.687500
vt 0.633930 0.687391
vt 0.632839 0.678520
vt 0.634405 0.895816
vt 0.638255 0.879029
vt 0.781250 0.812500
vt 0.781250 0.760928
vt 0.785196 0.759920
vt 0.800557 0.755876
vt 0.802344 0.762642
vt 0.794362 0.783988
vt 0.771972 0.758998
vn 0.4268 -0.9041 0.0225
vn 0.4261 -0.9044 0.0241
vn -0.4881 -0.8622 0.1357
vn 0.2434 -0.9212 -0.3037
vn 0.2452 -0.9192 -0.3082
vn 0.7558 -0.4526 -0.4731
vn 0.8548 0.3588 0.3749
vn 0.8477 0.3651 0.3849
vn 0.8524 0.3527 0.3860
vn 0.4276 -0.9036 0.0255
vn 0.7599 -0.4364 -0.4818
vn 0.4277 -0.9035 0.0269
vn -0.1706 0.2990 -0.9389
vn -0.4937 -0.8580 0.1416
vn -0.4908 -0.8605 0.1363
vn -0.4939 -0.8611 0.1212
vn 0.1521 -0.1832 -0.9712
vn 0.2537 -0.8964 -0.3634
vn 0.7564 -0.4320 -0.4913
vn 0.2847 -0.2769 -0.9177
vn 0.4518 -0.0521 -0.8906
vn 0.8470 0.3662 0.3854
vn 0.4468 -0.0495 -0.8932
vn 0.5959 -0.6823 0.4235
vn 0.8459 0.3662 0.3878
vn -0.5869 -0.2725 0.7624
vn -0.5939 -0.2744 0.7563
vn -0.5958 -0.2698 0.7565
vn -0.7661 0.5694 0.2979
vn -0.7673 0.5659 0.3018
vn -0.7680 0.5661 0.2996
vn -0.9949 -0.0743 -0.0689
vn -0.9947 -0.0860 -0.0569
vn -0.1771 0.3038 -0.9361
vn -0.1758 0.3033 -0.9365
vn 0.1631 -0.1584 -0.9738
vn 0.1684 -0.1600 -0.9726
vn 0.2809 -0.2700 -0.9210
vn 0.4424 -0.0517 -0.8953
vn 0.4457 -0.0495 -0.8938
vn -0.5393 0.8229 0.1790
vn -0.2501 0.5385 0.8046
vn -0.2694 0.5146 0.8140
vn -0.5942 -0.2757 0.7556
vn 0.0413 0.9070 -0.4190
vn 0.0757 0.9217 -0.3804
vn 0.1092 0.8286 -0.5490
vn 0.0000 0.8286 -0.5598
vn 0.0283 0.8816 -0.4712
vn 0.0114 0.7730 -0.6343
vn 0.1385 0.7040 -0.6965
vn 0.0652 0.7468 -0.6619
vn 0.1866 0.6340 -0.7505
vn 0.0286 0.9565 -0.2901
vn 0.0702 0.9568 -0.2820
vn 0.1097 0.9569 -0.2687
vn 0.1484 0.9217 -0.3583
vn 0.0846 0.9565 -0.2790
vn 0.2142 0.8286 -0.5171
vn 0.2717 0.7040 -0.6561
vn 0.3195 0.5527 -0.7697
vn 0.2374 0.5752 -0.7828
vn 0.2563 0.4696 -0.8448
vn 0.3553 0.4710 -0.8073
vn 0.4622 0.5526 -0.6935
vn 0.4746 0.4709 -0.7436
vn 0.4184 0.4691 -0.7777
vn 0.1575 0.9569 -0.2439
vn 0.2155 0.9217 -0.3225
vn 0.3110 0.8286 -0.4654
vn 0.3946 0.7040 -0.5904
vn 0.3538 0.8300 -0.4311
vn 0.2406 0.9253 -0.2931
vn 0.4524 0.7010 -0.5512
vn 0.4915 0.6324 -0.5987
vn 0.5322 0.5443 -0.6484
vn 0.5601 0.4696 -0.6825
vn 0.1849 0.9565 -0.2254
vn -0.0781 0.8110 -0.5797
vn -0.1244 0.7730 -0.6220
vn -0.1846 0.7715 -0.6088
vn -0.0624 0.7715 -0.6331
usemtl None
s off
f 27/1/1 12/2/1 18/3/1
f 18/3/2 12/4/2 7/5/2
f 18/3/3 7/6/3 17/7/3
f 17/8/4 27/9/4 18/3/4
f 24/10/5 27/11/5 17/8/5
f 12/2/6 27/11/6 24/12/6
f 69/13/7 12/14/7 70/15/7
f 3/16/8 12/14/8 69/17/8 74/18/8
f 3/19/9 13/20/9 12/14/9
f 13/21/10 7/5/10 12/14/10
f 70/22/11 12/14/11 24/12/11 80/23/11
f 13/21/12 8/24/12 7/25/12
f 98/26/13 81/27/13 16/28/13 15/29/13 94/30/13 55/31/13 54/32/13 97/33/13
f 15/34/14 7/25/14 6/35/14
f 17/7/15 7/25/15 15/36/15
f 16/28/16 17/37/16 15/36/16
f 16/38/17 20/39/17 17/37/17
f 20/40/18 24/10/18 17/37/18
f 80/41/19 24/42/19 22/43/19 71/44/19
f 20/40/20 22/45/20 24/42/20
f 72/46/21 71/47/21 22/43/21
f 73/48/22 3/16/22 74/49/22 75/50/22 68/51/22 67/52/22
f 22/43/23 83/53/23 72/54/23
f 8/55/24 13/20/24 3/56/24
f 73/57/25 90/58/25 2/59/25 3/56/25
f 2/60/26 8/24/26 3/56/26
f 2/60/27 5/61/27 8/62/27
f 4/63/28 5/64/28 2/60/28
f 14/65/29 5/64/29 4/66/29
f 93/67/30 5/64/30 14/68/30 76/69/30 77/70/30 45/71/30 47/72/30
f 93/73/31 87/74/31 5/64/31
f 15/34/32 5/64/32 87/75/32 88/76/32
f 5/64/33 15/36/33 6/77/33
f 15/29/34 88/78/34 78/79/34
f 94/80/35 15/29/35 78/81/35 53/82/35
f 82/83/36 20/39/36 16/84/36 81/85/36
f 19/86/37 20/87/37 82/88/37 60/89/37 100/90/37
f 19/91/38 22/45/38 20/87/38
f 84/92/39 22/93/39 19/91/39 100/94/39
f 22/93/40 84/95/40 83/96/40
f 89/97/41 76/98/41 14/65/41 101/99/41
f 101/100/42 14/68/42 2/59/42 90/101/42 86/102/42 65/103/42
f 14/68/43 4/63/43 2/104/43
f 5/105/44 6/77/44 7/25/44 8/55/44
s 1
f 46/106/45 9/107/46 10/108/47 1/109/48 91/110/49
f 95/111/50 1/109/48 10/108/47 11/112/51 96/113/52
f 96/113/52 11/112/51 56/114/53
f 44/115/54 64/116/55 9/107/46 46/106/45
f 85/117/56 21/118/57 9/107/46 64/116/55 63/119/58
f 10/108/47 9/107/46 21/118/57 23/120/59
f 11/112/51 10/108/47 23/120/59 25/121/60
f 11/112/51 25/121/60 26/122/61 57/123/62 56/114/53
f 58/124/63 57/123/62 26/122/61 99/125/64 59/126/63
f 26/122/61 31/127/65 35/128/66 36/129/67 37/130/67 42/131/67 62/132/67 61/133/67 99/125/64
f 66/134/68 28/135/69 21/118/57 85/117/56
f 23/120/59 21/118/57 28/135/69 29/136/70
f 25/121/60 23/120/59 29/136/70 30/137/71
f 26/122/61 25/121/60 30/137/71 31/127/65
f 41/138/72 29/136/70 28/135/69 38/139/73
f 40/140/74 30/137/71 29/136/70 41/138/72
f 34/141/75 32/142/76 31/127/65 30/137/71 40/140/74
f 31/127/65 32/143/76 33/144/77 35/128/66
f 28/135/69 66/134/68 43/145/78 39/146/78 38/139/73
f 92/147/79 79/148/80 51/149/81 50/150/81 49/151/81 48/152/81
f 92/147/79 1/109/48 95/111/50 52/153/82 79/148/80
f 91/110/49 1/109/48 92/147/79
