# Blender v3.0.0 OBJ File: 'Sphere_Cell_Fracture.blend'
# www.blender.org
mtllib Sphere_Cell_Fracture22.mtl
v -0.038650 -0.081454 0.753762
v -0.432873 -0.118250 0.730470
v 0.196829 0.105575 0.846465
v 0.075677 -0.035644 0.776706
v -0.004151 -0.264927 0.907007
v 0.070100 -0.171332 0.841517
v 0.278362 0.008230 0.919936
v 0.141229 -0.099203 0.834381
v 0.195090 -0.000000 0.980785
v -0.000000 0.195090 0.980785
v -0.000000 -0.000000 0.999999
v -0.000000 -0.195090 0.980785
v -0.191342 0.195090 0.961939
v -0.195090 -0.000000 0.980785
v -0.191342 -0.195090 0.961939
v -0.375330 0.195090 0.906127
v -0.382683 -0.000000 0.923879
v -0.375330 -0.195090 0.906127
v -0.555570 -0.000000 0.831469
v -0.291620 -0.301886 0.897829
v -0.364199 -0.290977 0.879254
v -0.473594 -0.252932 0.833805
v -0.000000 0.316263 0.944028
v -0.107731 -0.315306 0.933707
v -0.185369 0.296007 0.931915
v -0.184075 -0.317880 0.925407
v -0.084290 -0.314496 0.936262
v -0.526403 -0.234519 0.811880
v -0.371520 0.227912 0.896929
v -0.553823 0.078294 0.822975
v -0.537401 -0.195090 0.819498
v -0.552469 -0.056670 0.826828
v -0.423172 0.195090 0.880555
v 0.038632 0.310742 0.941898
v 0.018046 -0.260167 0.959267
v -0.000000 -0.276721 0.956023
v -0.009820 -0.285160 0.952496
v 0.157974 -0.126722 0.971959
v 0.088439 -0.195090 0.972074
v 0.287783 0.007341 0.951915
v 0.281207 -0.000000 0.954661
v 0.193324 -0.091930 0.971905
v 0.191809 0.167364 0.964624
v 0.100556 0.301543 0.938589
v 0.115594 0.280046 0.943629
v 0.174237 0.195090 0.963624
v -0.364199 -0.290977 0.879254
v -0.473594 -0.252932 0.833805
v 0.038632 0.310742 0.941898
v 0.100556 0.301543 0.938589
v 0.157974 -0.126722 0.971959
v 0.088439 -0.195090 0.972074
v -0.291620 -0.301886 0.897829
v -0.553823 0.078294 0.822975
v -0.423172 0.195090 0.880555
v 0.287783 0.007341 0.951915
v 0.191809 0.167364 0.964624
v -0.555570 -0.000000 0.831469
v -0.000000 0.316263 0.944028
v -0.185369 0.296007 0.931915
v -0.184075 -0.317880 0.925407
v -0.107731 -0.315306 0.933707
v -0.084290 -0.314496 0.936262
v -0.526403 -0.234519 0.811880
v -0.371520 0.227912 0.896929
v -0.537401 -0.195090 0.819498
v -0.552469 -0.056670 0.826828
v 0.018046 -0.260167 0.959267
v -0.000000 -0.276721 0.956023
v 0.281207 -0.000000 0.954661
v 0.193324 -0.091930 0.971905
v 0.115594 0.280046 0.943629
v 0.174237 0.195090 0.963624
v -0.009820 -0.285160 0.952496
vt 0.486359 0.486359
vt 0.000000 0.000000
vt 1.000000 0.000000
vt 1.000000 0.186756
vt 0.827432 0.313670
vt 0.186756 0.186756
vt 0.000000 0.000000
vt 0.204936 0.000000
vt 1.000000 0.164531
vt 1.000000 1.000000
vt 0.677380 0.677380
vt 0.703306 0.575418
vt 0.840330 0.333959
vt 0.897472 0.237745
vt 0.677380 0.000000
vt 0.000000 0.000000
vt 1.000000 0.000000
vt 1.000000 0.486359
vt 0.758240 0.442662
vt 1.000000 0.323418
vt 0.000000 0.000000
vt 1.000000 0.000000
vt 1.000000 1.000000
vt 0.000000 0.000000
vt 1.000000 1.000000
vt 0.565597 0.000000
vt 0.844768 0.430029
vt 1.000000 0.681220
vt 1.000000 0.795064
vt 0.681220 0.681220
vt 0.565597 0.565597
vt 1.000000 0.000000
vt 1.000000 0.400898
vt 0.822266 0.509188
vt 0.400898 0.400898
vt 0.000000 0.000000
vt 0.245575 0.000000
vt 0.266744 0.021816
vt 0.400113 0.296428
vt 0.245574 0.245574
vt 0.344120 0.000259
vt 1.000000 0.552745
vt 0.522171 0.000000
vt 1.000000 0.000000
vt 0.552745 0.552745
vt 0.000000 0.000000
vt 1.000000 0.000000
vt 1.000000 0.698705
vt 1.000000 1.000000
vt 1.000000 0.000000
vt 0.000000 0.000000
vt 1.000000 1.000000
vt 1.000000 1.000000
vt 0.477829 0.000000
vt 0.912841 0.527144
vt 1.000000 0.655909
vt 0.164108 0.157966
vt 0.281660 0.032073
vt 0.359829 0.021697
vt 0.761328 0.142147
vt 0.277907 0.073527
vt 0.301296 0.000000
vt 0.281250 0.553583
vt 0.281250 0.500000
vt 0.295596 0.500000
vt 0.296726 0.502352
vt 0.281250 0.470549
vt 0.269386 0.590804
vt 0.266984 0.597967
vt 0.256532 0.601031
vt 0.250000 0.602871
vt 0.250000 0.562500
vt 0.278456 0.562500
vt 0.250000 0.500000
vt 0.250000 0.437500
vt 0.264444 0.437500
vt 0.275629 0.459403
vt 0.250000 0.410303
vt 0.253018 0.415819
vt 0.218750 0.437500
vt 0.218750 0.396590
vt 0.231720 0.397448
vt 0.235709 0.397718
vt 0.248350 0.407492
vt 0.218750 0.596122
vt 0.218750 0.562500
vt 0.218750 0.500000
vt 0.187500 0.573435
vt 0.187500 0.562500
vt 0.187500 0.500000
vt 0.187500 0.437500
vt 0.187500 0.405554
vt 0.200022 0.401919
vt 0.178683 0.562500
vt 0.156250 0.526252
vt 0.156250 0.500000
vt 0.157631 0.437500
vt 0.156250 0.481845
vt 0.158475 0.424363
vt 0.167810 0.418229
vn 0.1051 -0.6258 -0.7729
vn 0.1058 -0.6267 -0.7721
vn -0.6429 -0.0283 -0.7654
vn 0.1040 -0.6250 -0.7736
vn 0.0146 0.4184 -0.9081
vn 0.3366 -0.4171 -0.8443
vn 0.1067 -0.6255 -0.7729
vn 0.6803 -0.6974 -0.2254
vn 0.4073 -0.8522 -0.3283
vn 0.6833 -0.6954 -0.2225
vn 0.6840 -0.6953 -0.2208
vn 0.8266 0.5140 -0.2292
vn 0.8207 0.5172 -0.2426
vn 0.0160 0.4318 -0.9018
vn 0.5894 -0.1103 -0.8003
vn 0.5899 -0.1167 -0.7990
vn 0.3381 -0.4169 -0.8437
vn 0.6833 -0.6957 -0.2216
vn 0.8250 0.5144 -0.2340
vn 0.0118 0.4315 -0.9020
vn 0.1311 0.0978 0.9865
vn 0.1951 0.0000 0.9808
vn 0.2899 0.0479 0.9558
vn 0.2889 0.0976 0.9524
vn 0.1454 -0.0979 0.9845
vn 0.0938 0.2890 0.9527
vn -0.0011 0.2903 0.9569
vn 0.0000 0.1939 0.9810
vn 0.0967 0.1596 0.9824
vn 0.0000 0.0000 1.0000
vn 0.0000 -0.1939 0.9810
vn 0.0970 -0.1456 0.9846
vn 0.0975 -0.0975 0.9904
vn -0.0447 -0.2900 0.9560
vn 0.0938 -0.2890 0.9527
vn -0.1914 -0.1939 0.9622
vn -0.1832 -0.2903 0.9392
vn -0.0938 -0.2890 0.9527
vn -0.1718 0.2902 0.9414
vn -0.1914 0.1939 0.9622
vn -0.1951 0.0000 0.9808
vn -0.3388 0.2901 0.8950
vn -0.3759 0.1943 0.9061
vn -0.3831 0.0004 0.9237
vn -0.3754 -0.1939 0.9063
vn -0.3524 -0.2902 0.8897
vn -0.2779 -0.2890 0.9161
vn -0.4685 0.1353 0.8730
vn -0.4709 0.0990 0.8766
vn -0.4723 0.0020 0.8814
vn -0.4630 -0.1874 0.8663
vn -0.4691 -0.0975 0.8777
vn -0.4513 -0.2890 0.8443
usemtl None
s off
f 53/1/1 1/2/1 5/3/1 62/4/1 61/5/1
f 62/6/2 5/7/2 63/8/2
f 30/9/3 2/10/3 64/11/3 66/12/3 67/13/3 19/14/3
f 64/15/4 2/16/4 1/17/4 53/18/4 47/19/4 48/20/4
f 4/21/5 1/17/5 2/10/5
f 4/21/6 6/22/6 1/23/6
f 1/23/7 6/24/7 5/3/7
f 5/25/8 6/24/8 68/26/8 69/27/8 74/28/8
f 63/29/9 5/25/9 74/30/9
f 68/31/10 6/24/10 7/32/10 51/33/10 52/34/10
f 51/35/11 7/36/11 56/37/11 70/38/11 42/39/11
f 56/40/12 7/36/12 57/41/12
f 50/42/13 72/43/13 3/44/13
f 50/45/14 3/46/14 4/47/14 49/48/14
f 3/46/15 7/32/15 4/49/15
f 4/49/16 7/36/16 8/50/16
f 8/51/17 6/22/17 4/49/17
f 8/51/18 7/32/18 6/52/18
f 7/53/19 3/46/19 72/54/19 73/55/19 57/56/19
f 4/47/20 2/10/20 30/57/20 33/58/20 29/59/20 25/60/20 23/61/20 49/62/20
s 1
f 43/63/21 9/64/22 41/65/23 40/66/24
f 9/64/22 71/67/25 41/65/23
f 45/68/26 44/69/26 34/70/26 59/71/27 10/72/28 46/73/29
f 46/73/29 10/72/28 11/74/30 9/64/22 43/63/21
f 71/67/25 9/64/22 11/74/30 12/75/31 39/76/32 38/77/33
f 12/75/31 36/78/34 35/79/35 39/76/32
f 36/78/34 12/75/31 15/80/36 26/81/37 24/82/38 27/83/38 37/84/38
f 60/85/39 13/86/40 10/72/28 59/71/27
f 11/74/30 10/72/28 13/86/40 14/87/41
f 12/75/31 11/74/30 14/87/41 15/80/36
f 65/88/42 16/89/43 13/86/40 60/85/39
f 14/87/41 13/86/40 16/89/43 17/90/44
f 15/80/36 14/87/41 17/90/44 18/91/45
f 26/81/37 15/80/36 18/91/45 21/92/46 20/93/47
f 55/94/48 16/89/43 65/88/42
f 54/95/49 58/96/50 17/90/44 16/89/43 55/94/48
f 31/97/51 18/91/45 17/90/44 58/96/50 32/98/52
f 28/99/53 22/100/53 21/92/46 18/91/45 31/97/51
