# Blender v3.0.0 OBJ File: 'Sphere_Cell_Fracture.blend'
# www.blender.org
mtllib Sphere_Cell_Fracture47.mtl
v -0.320988 0.802525 0.307607
v -0.664680 0.459640 0.301992
v -0.392847 0.831470 0.392847
v -0.500000 0.707107 0.500000
v -0.461940 0.831470 0.308658
v -0.587938 0.707107 0.392847
v -0.691341 0.555570 0.461940
v -0.653281 0.707107 0.270598
v -0.768177 0.555570 0.318190
v -0.341574 0.892040 0.277559
v -0.398928 0.871977 0.266555
v -0.663995 0.707107 0.235281
v -0.492984 0.831470 0.250578
v -0.583184 0.769373 0.241563
v -0.792003 0.555570 0.239648
v -0.812395 0.516263 0.244452
v -0.284469 0.866333 0.397818
v -0.321116 0.885692 0.321116
v -0.289942 0.862403 0.402794
v -0.434670 0.746104 0.492439
v -0.333120 0.831470 0.441865
v -0.806990 0.476974 0.334266
v -0.820790 0.475741 0.291033
v -0.725934 0.477733 0.485054
v -0.709639 0.477254 0.505311
v -0.833756 0.474749 0.250107
v -0.637540 0.555570 0.527497
v -0.481096 0.707107 0.515514
v -0.522659 0.668060 0.522659
v -0.341574 0.892040 0.277559
v -0.398928 0.871977 0.266555
v -0.492984 0.831470 0.250578
v -0.663995 0.707107 0.235281
v -0.583184 0.769373 0.241563
v -0.284469 0.866333 0.397818
v -0.321116 0.885692 0.321116
v -0.289942 0.862403 0.402794
v -0.333120 0.831470 0.441865
v -0.434670 0.746104 0.492439
v -0.806990 0.476974 0.334266
v -0.820790 0.475741 0.291033
v -0.725934 0.477733 0.485054
v -0.833756 0.474749 0.250107
v -0.709639 0.477254 0.505311
v -0.637540 0.555570 0.527497
v -0.481096 0.707107 0.515514
v -0.522659 0.668060 0.522659
v -0.792003 0.555570 0.239648
v -0.812395 0.516263 0.244452
vt 1.000000 0.373100
vt 1.000000 0.000000
vt 1.000000 1.000000
vt 0.750927 0.750927
vt 0.646290 0.482711
vt 0.508882 0.508882
vt 0.583462 0.423143
vt 0.655621 0.386993
vt 0.861024 0.331888
vt 0.000000 0.000000
vt 0.383747 0.000000
vt 0.330542 0.106462
vt 0.714023 0.253020
vt 0.500019 0.234202
vt 0.269671 0.205605
vt 0.811369 0.092146
vt 0.637924 0.000000
vt 0.000000 0.000000
vt 0.709206 0.000000
vt 1.000000 0.000000
vt 1.000000 0.362076
vt 0.892085 0.240620
vt 0.709206 0.709206
vt 1.000000 0.750927
vt 1.000000 0.580051
vt 1.000000 1.000000
vt 0.373100 0.373100
vt 0.431132 0.376102
vt 0.871676 0.513607
vt 1.000000 0.410832
vt 0.580051 0.580051
vt 1.000000 0.616253
vt 0.410832 0.410832
vt 0.150637 0.833421
vt 0.151151 0.836080
vt 0.125000 0.849172
vt 0.125000 0.812500
vt 0.147170 0.812500
vt 0.125000 0.750000
vt 0.130513 0.750000
vt 0.134957 0.769599
vt 0.125000 0.733896
vt 0.093750 0.812500
vt 0.093750 0.750000
vt 0.093750 0.687500
vt 0.110009 0.687500
vt 0.093750 0.659361
vt 0.098490 0.659188
vt 0.108598 0.853466
vt 0.093750 0.839896
vt 0.074854 0.812500
vt 0.062500 0.750000
vt 0.062500 0.781293
vt 0.062500 0.687500
vt 0.062500 0.659087
vt 0.054180 0.750000
vt 0.046764 0.687500
vt 0.054222 0.658641
vt 0.046518 0.673290
vt 0.046384 0.658283
vn 0.6884 -0.6937 0.2120
vn 0.2662 -0.2516 -0.9305
vn 0.9068 0.0689 -0.4159
vn 0.6895 -0.6929 0.2110
vn -0.1067 -0.9923 0.0624
vn -0.1064 -0.9926 0.0578
vn 0.2618 -0.2612 -0.9291
vn -0.3001 0.8809 0.3657
vn -0.3414 0.8818 0.3252
vn -0.3958 0.8286 0.3958
vn -0.3453 0.8388 0.4208
vn -0.5021 0.7040 0.5021
vn -0.4371 0.7247 0.5326
vn -0.4036 0.7715 0.4918
vn -0.5842 0.6334 0.5074
vn -0.4654 0.8286 0.3110
vn -0.5904 0.7040 0.3945
vn -0.6929 0.5528 0.4630
vn -0.6282 0.5826 0.5156
vn -0.7330 0.4714 0.4903
vn -0.6825 0.4696 0.5601
vn -0.3657 0.8809 0.3001
vn -0.3774 0.8816 0.2833
vn -0.5170 0.8101 0.2763
vn -0.6561 0.7040 0.2717
vn -0.5672 0.7721 0.2865
vn -0.7699 0.5528 0.3189
vn -0.8151 0.4714 0.3366
vn -0.6883 0.6947 0.2088
vn -0.8002 0.5484 0.2427
vn -0.8448 0.4696 0.2563
usemtl None
s off
f 44/1/1 2/2/1 1/3/1 37/4/1 38/5/1 39/6/1 46/7/1 47/8/1 45/9/1
f 2/10/2 49/11/2 48/12/2 12/13/2 34/14/2 32/15/2 31/16/2 30/17/2 1/18/2
f 35/19/3 1/20/3 30/21/3 36/22/3
f 1/3/4 35/23/4 37/24/4
f 41/25/5 2/26/5 44/27/5 42/28/5 40/29/5
f 43/30/6 2/26/6 41/31/6
f 49/32/7 2/26/7 43/33/7
s 1
f 19/34/8 17/35/8 18/36/9 3/37/10 21/38/11
f 21/38/11 3/37/10 4/39/12 28/40/13 20/41/14
f 4/39/12 29/42/15 28/40/13
f 4/39/12 3/37/10 5/43/16 6/44/17
f 29/42/15 4/39/12 6/44/17 7/45/18 27/46/19
f 27/46/19 7/45/18 24/47/20 25/48/21
f 10/49/22 11/50/23 5/43/16 3/37/10 18/36/9
f 13/51/24 5/43/16 11/50/23
f 8/52/25 6/44/17 5/43/16 13/51/24 14/53/26
f 7/45/18 6/44/17 8/52/25 9/54/27
f 24/47/20 7/45/18 9/54/27 22/55/28
f 9/54/27 8/52/25 33/56/29 15/57/30
f 23/58/31 22/55/28 9/54/27 15/57/30 16/59/31 26/60/31
f 8/52/25 14/53/26 33/56/29
