# Blender v3.0.0 OBJ File: 'Sphere_Cell_Fracture.blend'
# www.blender.org
mtllib Sphere_Cell_Fracture46.mtl
v -0.056982 -0.704401 0.090107
v -0.317824 -0.618761 -0.033056
v -0.484377 -0.718932 -0.074672
v -0.466689 -0.706091 -0.070573
v -0.262761 -0.850474 -0.388188
v -0.274594 -0.853068 -0.386352
v 0.012609 -0.720979 0.007016
v -0.030427 -0.703213 0.056891
v 0.000821 -0.699399 0.003166
v -0.206838 -0.606585 -0.206523
v -0.239336 -0.658422 -0.271271
v -0.290099 -0.610518 -0.103089
v -0.338336 -0.727320 -0.283148
v -0.162212 -0.980785 0.108386
v -0.180240 -0.980785 0.074658
v -0.191342 -0.980785 0.038060
v -0.382683 -0.923880 0.000000
v -0.195090 -0.980785 0.000000
v -0.375330 -0.923880 -0.074658
v -0.191342 -0.980785 -0.038060
v -0.353553 -0.923880 -0.146446
v -0.180240 -0.980785 -0.074658
v -0.318189 -0.923880 -0.212607
v -0.162212 -0.980785 -0.108386
v -0.270598 -0.923880 -0.270598
v -0.137950 -0.980785 -0.137950
v 0.000000 -1.000000 0.000000
v 0.077262 -0.991441 -0.038903
v 0.059987 -0.991645 -0.059987
v 0.070555 -0.991642 -0.047144
v 0.000000 -0.987115 -0.130827
v -0.007876 -0.986139 -0.139956
v 0.021119 -0.989338 -0.106172
v -0.218085 -0.968359 0.090334
v 0.036483 -0.990610 -0.088079
v 0.048948 -0.991323 -0.073255
v -0.290064 -0.950251 0.057697
v -0.411338 -0.908563 0.000000
v -0.381151 -0.923880 0.015562
v -0.049806 -0.984524 -0.148298
v -0.028608 -0.985557 -0.143820
v -0.306084 -0.881285 -0.344068
v -0.107135 -0.981007 -0.160339
v -0.062395 -0.983941 -0.150635
v -0.509202 -0.853522 -0.051889
v -0.501445 -0.857892 -0.047644
v -0.316959 -0.883903 -0.328837
v -0.479579 -0.867066 -0.095394
v -0.321902 -0.885098 -0.321902
v -0.373068 -0.888601 -0.249276
v -0.424273 -0.882964 -0.175740
v 0.079366 -0.991539 -0.032874
v 0.052355 -0.994833 0.001041
v 0.063217 -0.993652 -0.012575
v 0.045863 -0.995394 0.009123
v 0.039883 -0.995748 0.016520
v -0.095038 -0.983152 0.142235
v -0.072088 -0.983430 0.151318
v -0.153869 -0.980785 0.118553
v -0.168208 -0.978598 0.112393
v -0.128735 -0.982069 0.128735
v 0.034534 -0.995909 0.023075
v 0.029374 -0.995909 0.029374
v -0.053416 -0.986252 0.128958
v -0.016956 -0.991440 0.085245
v 0.000000 -0.993610 0.064879
v 0.010412 -0.994744 0.052343
v 0.023996 -0.995746 0.035913
v 0.017924 -0.995387 0.043271
v -0.270598 -0.923880 -0.270598
v -0.107135 -0.981007 -0.160339
v -0.411338 -0.908563 0.000000
v -0.501445 -0.857892 -0.047644
v -0.306084 -0.881285 -0.344068
v -0.218085 -0.968359 0.090334
v -0.290064 -0.950251 0.057697
v 0.052355 -0.994833 0.001041
v 0.063217 -0.993652 -0.012575
v -0.373068 -0.888601 -0.249276
v -0.424273 -0.882964 -0.175740
v -0.007876 -0.986139 -0.139956
v -0.028608 -0.985557 -0.143820
v -0.095038 -0.983152 0.142235
v -0.072088 -0.983430 0.151318
v -0.153869 -0.980785 0.118553
v -0.128735 -0.982069 0.128735
v 0.039883 -0.995748 0.016520
v 0.034534 -0.995909 0.023075
v -0.016956 -0.991440 0.085245
v 0.000000 -0.993610 0.064879
v 0.029374 -0.995909 0.029374
v 0.023996 -0.995746 0.035913
v 0.010412 -0.994744 0.052343
v 0.017924 -0.995387 0.043271
v -0.168208 -0.978598 0.112393
v 0.059987 -0.991645 -0.059987
v 0.070555 -0.991642 -0.047144
v -0.053416 -0.986252 0.128958
v -0.479579 -0.867066 -0.095394
v 0.036483 -0.990610 -0.088079
v 0.048948 -0.991323 -0.073255
v 0.077262 -0.991441 -0.038903
v 0.000000 -0.987115 -0.130827
v 0.021119 -0.989338 -0.106172
v -0.381151 -0.923880 0.015562
v -0.049806 -0.984524 -0.148298
v -0.062395 -0.983941 -0.150635
v -0.316959 -0.883903 -0.328837
v -0.509202 -0.853522 -0.051889
v -0.321902 -0.885098 -0.321902
v 0.079366 -0.991539 -0.032874
v 0.045863 -0.995394 0.009123
vt 0.000000 0.000000
vt 1.000000 0.000000
vt 1.000000 1.000000
vt 0.920527 0.218393
vt 1.000000 0.239834
vt 0.011394 0.011394
vt 0.104551 0.028995
vt 0.243586 0.056932
vt 0.380803 0.086319
vt 0.527117 0.119723
vt 0.697736 0.161149
vt 0.244148 0.000000
vt 1.000000 0.000000
vt 1.000000 1.000000
vt 0.244148 0.244148
vt 0.581159 0.283163
vt 1.000000 0.334083
vt 0.850287 0.641317
vt 1.000000 0.857080
vt 0.334083 0.334083
vt 0.357816 0.337039
vt 0.449216 0.353036
vt 1.000000 0.843608
vt 0.857080 0.857080
vt 0.593753 0.000000
vt 1.000000 0.000000
vt 0.843608 0.843608
vt 0.831848 0.823473
vt 0.734059 0.608055
vt 0.660878 0.385287
vt 0.608326 0.136960
vt 1.000000 0.000000
vt 0.000000 0.000000
vt 0.000000 0.000000
vt 1.000000 1.000000
vt 1.000000 0.000000
vt 0.000000 0.000000
vt 1.000000 0.000000
vt 0.993647 0.993647
vt 0.000000 0.000000
vt 0.837265 0.028981
vt 0.894474 0.379371
vt 1.000000 0.000000
vt 1.000000 0.441097
vt 0.751517 0.589557
vt 0.669198 0.634467
vt 0.756972 0.467820
vt 0.549344 0.312513
vt 0.412414 0.205163
vt 0.375320 0.174388
vt 0.317973 0.120740
vt 0.243001 0.048886
vt 0.193321 0.000000
vt 1.000000 1.000000
vt 0.000000 0.000000
vt 1.000000 0.406247
vt 0.441097 0.441097
vt 0.000000 0.000000
vt 1.000000 0.000000
vt 1.000000 1.000000
vt 0.000000 0.000000
vt 0.000000 0.000000
vt 1.000000 0.000000
vt 1.000000 1.000000
vt 0.000000 0.000000
vt 1.000000 0.000000
vt 1.000000 0.000000
vt 1.000000 1.000000
vt 1.000000 0.000000
vt 1.000000 0.167527
vt 0.000000 0.000000
vt 0.842809 0.000000
vt 0.902157 0.063049
vt 0.842809 0.842809
vt 0.806679 0.000000
vt 0.814982 0.138373
vt 0.830255 0.408439
vt 0.836659 0.533942
vt 0.840015 0.610926
vt 0.841932 0.666399
vt 0.843015 0.711181
vt 0.843526 0.750773
vt 0.843567 0.788703
vt 0.993647 0.000000
vt 1.000000 0.011394
vt 1.000000 1.000000
vt 0.744853 0.041912
vt 0.725705 0.034680
vt 0.734375 0.000000
vt 0.711795 0.034680
vt 0.695489 0.030542
vt 0.703125 0.000000
vt 0.679511 0.030542
vt 0.664819 0.028225
vt 0.671875 0.000000
vt 0.647681 0.028225
vt 0.633830 0.027178
vt 0.640625 0.000000
vt 0.616169 0.027178
vt 0.602579 0.027185
vt 0.609375 0.000000
vt 0.584921 0.027185
vt 0.576400 0.027838
vt 0.571245 0.027521
vt 0.578125 0.000000
vt 0.546875 0.000000
vt 0.553755 0.027521
vt 0.541713 0.020649
vt 0.515625 0.000000
vt 0.520787 0.020649
vt 0.511365 0.017039
vt 0.484375 0.000000
vt 0.487722 0.016806
vt 0.480630 0.014981
vt 0.453125 0.000000
vt 0.456870 0.014981
vt 0.449667 0.013830
vt 0.421875 0.000000
vt 0.425332 0.013830
vt 0.418548 0.013306
vt 0.390625 0.000000
vt 0.393951 0.013306
vt 0.387298 0.013308
vt 0.359375 0.000000
vt 0.362702 0.013308
vt 0.355916 0.013837
vt 0.328125 0.000000
vt 0.331584 0.013837
vt 0.324374 0.015005
vt 0.296875 0.000000
vt 0.300626 0.015005
vt 0.292601 0.017097
vt 0.269899 0.017097
vt 0.260429 0.020785
vt 0.265625 0.000000
vt 0.239571 0.020785
vt 0.227414 0.027845
vt 0.234375 0.000000
vt 0.210086 0.027845
vt 0.191946 0.044717
vt 0.203125 0.000000
vt 0.178212 0.053899
vt 0.158174 0.054803
vt 0.171875 0.000000
vt 0.183054 0.044717
vt 0.154326 0.054803
vt 0.126044 0.058325
vt 0.140625 0.000000
vt 0.104496 0.062500
vt 0.093750 0.064902
vt 0.093750 0.062500
vt 0.109375 0.000000
vt 0.123956 0.058325
vt 0.062500 0.062500
vt 0.078125 0.000000
vt 0.062500 0.076147
vt 0.031250 0.096036
vt 0.031250 0.062500
vt 0.046875 0.000000
vt 0.000000 0.062500
vt 0.015625 0.000000
vt 0.006514 0.125000
vt 0.000000 0.135359
vt 0.000000 0.125000
vt 0.984916 0.169630
vt 0.983846 0.172585
vt 0.968750 0.163425
vt 0.968750 0.125000
vt 1.000000 0.125000
vt 1.000000 0.135359
vt 1.000000 0.062500
vt 0.968750 0.062500
vt 0.984375 0.000000
vt 0.937500 0.125000
vt 0.937500 0.152672
vt 0.937500 0.062500
vt 0.953125 0.000000
vt 0.906250 0.125000
vt 0.906250 0.148860
vt 0.906250 0.062500
vt 0.921875 0.000000
vt 0.875000 0.125000
vt 0.875000 0.151229
vt 0.875000 0.062500
vt 0.890625 0.000000
vt 0.872078 0.152037
vt 0.865712 0.153808
vt 0.874731 0.125000
vt 0.845310 0.062500
vt 0.859375 0.000000
vt 0.843930 0.061779
vt 0.828125 0.000000
vt 0.843570 0.061779
vt 0.815066 0.052234
vt 0.796875 0.000000
vt 0.809934 0.052234
vt 0.800644 0.050338
vt 0.785131 0.046977
vt 0.755147 0.041912
vt 0.765625 0.000000
vt 0.777369 0.046977
vt 0.760820 0.045085
vn -0.2418 0.5259 -0.8155
vn 0.7420 0.2768 -0.6106
vn 0.0961 -0.8286 -0.5515
vn 0.0740 -0.8417 -0.5348
vn 0.0566 -0.8505 -0.5229
vn -0.8169 0.0507 -0.5746
vn -0.8175 0.0537 -0.5734
vn -0.8166 0.0574 -0.5743
vn -0.2691 0.5258 -0.8069
vn -0.4973 0.7800 -0.3798
vn -0.4959 0.7821 -0.3773
vn 0.7408 0.2915 -0.6052
vn 0.7737 0.0986 0.6258
vn -0.3570 0.2187 0.9082
vn -0.3696 0.2209 0.9026
vn -0.4948 0.7942 -0.3528
vn -0.4936 0.7883 -0.3674
vn 0.2255 0.9537 0.1989
vn 0.7409 0.2973 -0.6022
vn 0.1877 0.9641 0.1878
vn 0.2162 0.9545 0.2053
vn 0.7396 0.4869 0.4647
vn 0.7728 0.1250 0.6223
vn 0.7724 0.0984 0.6274
vn 0.7700 0.0967 0.6307
vn 0.2158 0.9543 0.2066
vn 0.7437 0.2806 -0.6068
vn -0.4869 0.8688 -0.0905
vn -0.0053 -0.9951 -0.0980
vn 0.0150 -0.9951 -0.0969
vn 0.0000 -1.0000 0.0000
vn 0.0348 -0.9952 -0.0917
vn 0.0530 -0.9952 -0.0825
vn 0.0689 -0.9952 -0.0697
vn 0.0818 -0.9952 -0.0539
vn 0.0869 -0.9951 -0.0464
vn 0.0886 -0.9951 -0.0422
vn 0.0952 -0.9951 -0.0240
vn 0.0982 -0.9951 -0.0028
vn 0.0967 -0.9952 0.0162
vn 0.0912 -0.9952 0.0358
vn 0.0818 -0.9952 0.0540
vn 0.0688 -0.9952 0.0697
vn 0.0529 -0.9952 0.0825
vn 0.0347 -0.9952 0.0917
vn 0.0150 -0.9951 0.0969
vn -0.0054 -0.9951 0.0980
vn -0.0256 -0.9951 0.0948
vn -0.0447 -0.9951 0.0876
vn -0.0464 -0.9951 0.0869
vn -0.0555 -0.9952 0.0808
vn -0.0710 -0.9952 0.0675
vn -0.1000 -0.9916 0.0820
vn -0.2473 -0.9569 0.1523
vn -0.1671 -0.9796 0.1116
vn -0.1856 -0.9796 0.0769
vn -0.2736 -0.9568 0.0980
vn -0.2881 -0.9568 0.0394
vn -0.1971 -0.9796 0.0392
vn -0.2010 -0.9796 0.0000
vn -0.3523 -0.9352 0.0347
vn -0.4711 -0.8814 -0.0336
vn -0.3879 -0.9217 0.0000
vn -0.4709 -0.8809 -0.0464
vn -0.4649 -0.8818 -0.0790
vn -0.3804 -0.9217 -0.0757
vn -0.1971 -0.9796 -0.0392
vn -0.3583 -0.9217 -0.1484
vn -0.4382 -0.8819 -0.1739
vn -0.1856 -0.9796 -0.0769
vn -0.3225 -0.9217 -0.2155
vn -0.3923 -0.8819 -0.2613
vn -0.1671 -0.9796 -0.1116
vn -0.2949 -0.9205 -0.2564
vn -0.3294 -0.8819 -0.3372
vn -0.1409 -0.9792 -0.1458
vn -0.3001 -0.8809 -0.3657
vn -0.0993 -0.9860 -0.1341
vn -0.0408 -0.9952 -0.0891
vn -0.0286 -0.9951 -0.0942
vn -0.0215 -0.9952 -0.0956
vn -0.0096 -0.9951 -0.0980
usemtl None
s off
f 6/1/1 11/2/1 5/3/1
f 31/4/2 81/5/2 5/3/2 102/6/2 30/7/2 29/8/2 101/9/2 35/10/2 33/11/2
f 5/3/3 81/12/3 6/13/3
f 6/14/4 81/15/4 82/16/4 106/17/4
f 70/18/5 74/19/5 6/14/5 106/20/5 44/21/5 71/22/5
f 108/23/6 6/14/6 74/24/6
f 109/25/7 3/26/7 6/14/7 108/27/7 49/28/7 50/29/7 80/30/7 48/31/7
f 13/32/8 6/14/8 3/33/8
f 13/34/9 11/2/9 6/14/9
f 13/34/10 3/26/10 11/35/10
f 11/35/11 3/33/11 10/36/11
f 10/37/12 7/38/12 11/35/12
f 111/39/13 7/40/13 53/41/13 78/42/13
f 4/43/14 73/44/14 72/45/14 39/46/14 76/47/14 34/48/14 95/49/14 85/50/14 61/51/14 57/52/14 84/53/14 1/54/14 2/55/14
f 3/26/15 109/56/15 73/57/15 4/58/15
f 4/58/16 12/59/16 3/60/16
f 12/61/17 10/36/17 3/60/17
f 8/62/18 9/63/18 10/64/18
f 9/65/19 7/38/19 10/64/19
f 12/61/20 2/66/20 10/64/20
f 2/55/21 8/67/21 10/64/21
f 9/65/22 8/67/22 7/68/22
f 8/62/23 1/69/23 7/68/23
f 53/70/24 7/68/24 1/71/24 56/72/24 55/73/24
f 56/74/25 1/71/25 84/75/25 64/76/25 65/77/25 66/78/25 93/79/25 94/80/25 68/81/25 63/82/25 62/83/25
f 8/62/26 2/66/26 1/54/26
f 11/35/27 7/40/27 111/84/27 102/85/27 5/3/27
f 2/55/28 12/59/28 4/86/28
s 1
f 103/87/29 104/88/30 27/89/31
f 104/90/30 100/91/32 27/92/31
f 100/93/32 36/94/33 27/95/31
f 36/96/33 96/97/34 27/98/31
f 96/99/34 97/100/35 27/101/31
f 97/102/35 28/103/36 52/104/37 27/105/31
f 27/106/31 52/107/37 54/108/38
f 27/109/31 54/110/38 77/111/39
f 27/112/31 77/113/39 112/114/40
f 27/115/31 112/116/40 87/117/41
f 27/118/31 87/119/41 88/120/42
f 27/121/31 88/122/42 91/123/43
f 27/124/31 91/125/43 92/126/44
f 27/127/31 92/128/44 69/129/45
f 27/130/31 69/131/45 67/132/46
f 67/133/46 90/134/47 27/135/31
f 90/136/47 89/137/48 27/138/31
f 89/139/48 98/140/49 27/141/31
f 58/142/50 83/143/51 27/144/31 98/145/49
f 83/146/51 86/147/52 27/148/31
f 59/149/53 60/150/54 14/151/55
f 14/151/55 27/152/31 86/153/52 59/149/53
f 15/154/56 27/155/31 14/151/55
f 75/156/57 15/154/56 14/151/55 60/150/54
f 37/157/58 16/158/59 15/154/56 75/156/57
f 16/158/59 27/159/31 15/154/56
f 18/160/60 27/161/31 16/158/59
f 105/162/61 38/163/62 17/164/63
f 17/164/63 18/160/60 16/158/59 37/157/58 105/162/61
f 46/165/64 45/166/64 99/167/65 19/168/66 17/169/63 38/170/62
f 18/171/60 17/169/63 19/168/66 20/172/67
f 20/172/67 27/173/31 18/171/60
f 21/174/68 19/168/66 99/167/65 51/175/69
f 20/172/67 19/168/66 21/174/68 22/176/70
f 22/176/70 27/177/31 20/172/67
f 23/178/71 21/174/68 51/175/69 79/179/72
f 22/176/70 21/174/68 23/178/71 24/180/73
f 24/180/73 27/181/31 22/176/70
f 25/182/74 23/178/71 79/179/72 110/183/75
f 24/180/73 23/178/71 25/182/74 26/184/76
f 26/184/76 27/185/31 24/180/73
f 25/182/74 110/183/75 47/186/77 42/187/77
f 26/184/76 25/188/74 43/189/78
f 27/190/31 26/184/76 43/191/78
f 27/192/31 43/193/78 107/194/79
f 27/195/31 107/196/79 40/197/80 41/198/81
f 103/199/29 27/200/31 41/201/81 32/202/82
