{
	"asset":{
		"generator":"Khronos glTF Blender I/O v4.0.44",
		"version":"2.0"
	},
	"scene":0,
	"scenes":[
		{
			"name":"Scene",
			"nodes":[
				0
			]
		}
	],
	"nodes":[
		{
			"mesh":0,
			"name":"AudioVisual",
			"rotation":[
				0.7071068286895752,
				0,
				0,
				0.7071068286895752
			]
		}
	],
	"meshes":[
		{
			"name":"Text.006",
			"primitives":[
				{
					"attributes":{
						"POSITION":0,
						"NORMAL":1,
						"TEXCOORD_0":2
					},
					"indices":3
				}
			]
		}
	],
	"accessors":[
		{
			"bufferView":0,
			"componentType":5126,
			"count":14614,
			"max":[
				1.5057373046875,
				0.10000000149011612,
				0.700594961643219
			],
			"min":[
				-1.5614107847213745,
				-0.10000000149011612,
				-0.8880153298377991
			],
			"type":"VEC3"
		},
		{
			"bufferView":1,
			"componentType":5126,
			"count":14614,
			"type":"VEC3"
		},
		{
			"bufferView":2,
			"componentType":5126,
			"count":14614,
			"type":"VEC2"
		},
		{
			"bufferView":3,
			"componentType":5123,
			"count":43596,
			"type":"SCALAR"
		}
	],
	"bufferViews":[
		{
			"buffer":0,
			"byteLength":175368,
			"byteOffset":0,
			"target":34962
		},
		{
			"buffer":0,
			"byteLength":175368,
			"byteOffset":175368,
			"target":34962
		},
		{
			"buffer":0,
			"byteLength":116912,
			"byteOffset":350736,
			"target":34962
		},
		{
			"buffer":0,
			"byteLength":87192,
			"byteOffset":467648,
			"target":34963
		}
	],
	"buffers":[
		{
			"byteLength":554840,
			"uri":"audioVisual.bin"
		}
	]
}
