{
	"asset":{
		"generator":"Khronos glTF Blender I/O v4.0.44",
		"version":"2.0"
	},
	"scene":0,
	"scenes":[
		{
			"name":"Scene",
			"nodes":[
				0
			]
		}
	],
	"nodes":[
		{
			"mesh":0,
			"name":"Light Dance",
			"rotation":[
				0.7071068286895752,
				0,
				0,
				0.7071068286895752
			]
		}
	],
	"meshes":[
		{
			"name":"Text.007",
			"primitives":[
				{
					"attributes":{
						"POSITION":0,
						"NORMAL":1,
						"TEXCOORD_0":2
					},
					"indices":3
				}
			]
		}
	],
	"accessors":[
		{
			"bufferView":0,
			"componentType":5126,
			"count":13782,
			"max":[
				1.2486188411712646,
				0.10000000149011612,
				0.700594961643219
			],
			"min":[
				-1.2707180976867676,
				-0.10000000149011612,
				-0.8880153298377991
			],
			"type":"VEC3"
		},
		{
			"bufferView":1,
			"componentType":5126,
			"count":13782,
			"type":"VEC3"
		},
		{
			"bufferView":2,
			"componentType":5126,
			"count":13782,
			"type":"VEC2"
		},
		{
			"bufferView":3,
			"componentType":5123,
			"count":41136,
			"type":"SCALAR"
		}
	],
	"bufferViews":[
		{
			"buffer":0,
			"byteLength":165384,
			"byteOffset":0,
			"target":34962
		},
		{
			"buffer":0,
			"byteLength":165384,
			"byteOffset":165384,
			"target":34962
		},
		{
			"buffer":0,
			"byteLength":110256,
			"byteOffset":330768,
			"target":34962
		},
		{
			"buffer":0,
			"byteLength":82272,
			"byteOffset":441024,
			"target":34963
		}
	],
	"buffers":[
		{
			"byteLength":523296,
			"uri":"lightDance.bin"
		}
	]
}
